<?xml version="1.0" encoding="UTF-8" standalone="no"?>
<!-- Created with Inkscape (http://www.inkscape.org/) -->

<svg
   xmlns:dc="http://purl.org/dc/elements/1.1/"
   xmlns:cc="http://creativecommons.org/ns#"
   xmlns:rdf="http://www.w3.org/1999/02/22-rdf-syntax-ns#"
   xmlns:svg="http://www.w3.org/2000/svg"
   xmlns="http://www.w3.org/2000/svg"
   xmlns:xlink="http://www.w3.org/1999/xlink"
   xmlns:sodipodi="http://sodipodi.sourceforge.net/DTD/sodipodi-0.dtd"
   xmlns:inkscape="http://www.inkscape.org/namespaces/inkscape"
   inkscape:export-ydpi="90.000000"
   inkscape:export-xdpi="90.000000"
   width="480"
   height="300"
   id="svg11300"
   sodipodi:version="0.32"
   inkscape:version="0.92.4 5da689c313, 2019-01-14"
   sodipodi:docname="nvim.svg"
   inkscape:output_extension="org.inkscape.output.svg.inkscape"
   version="1.0"
   style="display:inline;enable-background:new"
   inkscape:export-filename="/home/sam/moka-next-template.png">
  <sodipodi:namedview
     stroke="#ef2929"
     fill="#f57900"
     id="base"
     pagecolor="#777777"
     bordercolor="#666666"
     borderopacity="0.25490196"
     inkscape:pageopacity="0"
     inkscape:pageshadow="2"
     inkscape:zoom="2"
     inkscape:cx="193.38741"
     inkscape:cy="117.75492"
     inkscape:current-layer="layer2"
     showgrid="false"
     inkscape:grid-bbox="true"
     inkscape:document-units="px"
     inkscape:showpageshadow="false"
     inkscape:window-width="1600"
     inkscape:window-height="842"
     inkscape:window-x="0"
     inkscape:window-y="0"
     width="400px"
     height="300px"
     inkscape:snap-nodes="true"
     inkscape:snap-bbox="true"
     gridtolerance="10000"
     inkscape:object-nodes="true"
     inkscape:snap-grids="true"
     showguides="false"
     inkscape:guide-bbox="true"
     inkscape:window-maximized="1"
     inkscape:bbox-nodes="true"
     inkscape:bbox-paths="true"
     inkscape:snap-bbox-edge-midpoints="true"
     inkscape:snap-bbox-midpoints="true">
    <inkscape:grid
       spacingy="1px"
       spacingx="1px"
       id="grid5883"
       type="xygrid"
       enabled="true"
       visible="true"
       empspacing="4"
       snapvisiblegridlinesonly="true"
       dotted="false"
       color="#000000"
       opacity="0.1254902"
       empcolor="#203ef3"
       empopacity="0.36470588" />
    <inkscape:grid
       type="xygrid"
       id="grid11592"
       empspacing="8"
       visible="true"
       enabled="false"
       spacingx="0.5px"
       spacingy="0.5px"
       color="#ff0000"
       opacity="0.1254902"
       empcolor="#ff0000"
       empopacity="0.25098039"
       snapvisiblegridlinesonly="true"
       dotted="true" />
  </sodipodi:namedview>
  <defs
     id="defs3">
    <linearGradient
       id="outerBackgroundGradient-9">
      <stop
         style="stop-color:#232323;stop-opacity:1"
         offset="0"
         id="stop1312" />
      <stop
         style="stop-color:#3f3f3f;stop-opacity:1"
         offset="1"
         id="stop1314" />
    </linearGradient>
    <linearGradient
       id="outerBackgroundGradient-8">
      <stop
         id="stop1306"
         offset="0"
         style="stop-color:#282828;stop-opacity:1" />
      <stop
         id="stop1308"
         offset="1"
         style="stop-color:#505050;stop-opacity:1" />
    </linearGradient>
    <linearGradient
       inkscape:collect="always"
       xlink:href="#outerBackgroundGradient-9"
       id="linearGradient11208"
       gradientUnits="userSpaceOnUse"
       gradientTransform="rotate(-90,144,156)"
       x1="35"
       y1="156"
       x2="253"
       y2="156" />
    <linearGradient
       inkscape:collect="always"
       xlink:href="#outerBackgroundGradient-9"
       id="linearGradient11210"
       gradientUnits="userSpaceOnUse"
       gradientTransform="rotate(-90,424,148)"
       x1="417"
       y1="148"
       x2="431"
       y2="148" />
    <linearGradient
       inkscape:collect="always"
       xlink:href="#outerBackgroundGradient-9"
       id="linearGradient11212"
       gradientUnits="userSpaceOnUse"
       gradientTransform="matrix(0,-0.95238091,0.95238094,0,321.3333,519.61901)"
       x1="418"
       y1="112"
       x2="438"
       y2="112" />
    <linearGradient
       inkscape:collect="always"
       xlink:href="#outerBackgroundGradient-9"
       id="linearGradient11214"
       gradientUnits="userSpaceOnUse"
       gradientTransform="rotate(-90,432,68)"
       x1="418"
       y1="68"
       x2="446"
       y2="68" />
    <linearGradient
       inkscape:collect="always"
       xlink:href="#outerBackgroundGradient-9"
       id="linearGradient11216"
       gradientUnits="userSpaceOnUse"
       gradientTransform="rotate(-90,312,244)"
       x1="292"
       y1="244"
       x2="332"
       y2="244" />
    <linearGradient
       inkscape:collect="always"
       xlink:href="#outerBackgroundGradient-9"
       id="linearGradient11218"
       gradientUnits="userSpaceOnUse"
       gradientTransform="rotate(-90,336,76)"
       x1="293"
       y1="76"
       x2="379"
       y2="76" />
    <linearGradient
       inkscape:collect="always"
       xlink:href="#outerBackgroundGradient-9"
       id="linearGradient11220"
       gradientUnits="userSpaceOnUse"
       gradientTransform="rotate(-90,320,172)"
       x1="291"
       y1="172"
       x2="349"
       y2="172" />
    <linearGradient
       id="outerBackgroundGradient-7">
      <stop
         style="stop-color:#555555;stop-opacity:1"
         offset="0"
         id="stop3864-8-6-58" />
      <stop
         style="stop-color:#686868;stop-opacity:1"
         offset="1"
         id="stop3866-9-1-2" />
    </linearGradient>
  </defs>
  <metadata
     id="metadata4">
    <rdf:RDF>
      <cc:Work
         rdf:about="">
        <dc:format>image/svg+xml</dc:format>
        <dc:type
           rdf:resource="http://purl.org/dc/dcmitype/StillImage" />
        <dc:creator>
          <cc:Agent>
            <dc:title>Sam Hewitt</dc:title>
          </cc:Agent>
        </dc:creator>
        <dc:source />
        <cc:license
           rdf:resource="" />
        <dc:title />
        <dc:subject>
          <rdf:Bag />
        </dc:subject>
        <dc:date />
        <dc:rights>
          <cc:Agent>
            <dc:title />
          </cc:Agent>
        </dc:rights>
        <dc:publisher>
          <cc:Agent>
            <dc:title />
          </cc:Agent>
        </dc:publisher>
        <dc:identifier />
        <dc:relation />
        <dc:language />
        <dc:coverage />
        <dc:description />
        <dc:contributor>
          <cc:Agent>
            <dc:title />
          </cc:Agent>
        </dc:contributor>
      </cc:Work>
      <cc:Work
         rdf:about="">
        <dc:format>image/svg+xml</dc:format>
        <dc:type
           rdf:resource="http://purl.org/dc/dcmitype/StillImage" />
      </cc:Work>
    </rdf:RDF>
  </metadata>
  <g
     style="display:inline"
     inkscape:groupmode="layer"
     inkscape:label="Icon"
     id="layer1">
    <g
       style="display:none"
       inkscape:label="Baseplate"
       id="layer7"
       inkscape:groupmode="layer">
      <text
         y="19.745117"
         xml:space="preserve"
         x="15.006836"
         style="font-style:normal;font-variant:normal;font-weight:normal;font-stretch:normal;line-height:0%;font-family:'DejaVu Sans';-inkscape-font-specification:'DejaVu Sans';display:inline;fill:#000000;fill-opacity:1;stroke:none;enable-background:new"
         inkscape:label="context"
         id="context"><tspan
           style="font-style:normal;font-variant:normal;font-weight:normal;font-stretch:normal;font-size:18px;line-height:1.25;font-family:'DejaVu Sans';-inkscape-font-specification:'DejaVu Sans'"
           y="19.745117"
           x="15.006836"
           sodipodi:role="line"
           id="tspan3933">apps</tspan></text>
      <text
         y="19.745117"
         xml:space="preserve"
         x="122.48828"
         style="font-style:normal;font-variant:normal;font-weight:bold;font-stretch:normal;line-height:0%;font-family:'DejaVu Sans';-inkscape-font-specification:'DejaVu Sans Bold';text-align:start;writing-mode:lr-tb;text-anchor:start;display:inline;fill:#000000;fill-opacity:1;stroke:none;enable-background:new"
         inkscape:label="icon-name"
         id="icon-name"
         inkscape:transform-center-y="-8.7802734"><tspan
           style="font-style:normal;font-variant:normal;font-weight:bold;font-stretch:normal;font-size:18px;line-height:1.25;font-family:'DejaVu Sans';-inkscape-font-specification:'DejaVu Sans Bold'"
           y="19.745117"
           x="122.48828"
           sodipodi:role="line"
           id="tspan3937">nvim</tspan></text>
      <rect
         style="fill:#eeeeec;fill-opacity:1;fill-rule:nonzero;stroke:none;stroke-width:2;marker:none;visibility:visible;display:inline;overflow:visible;enable-background:accumulate"
         id="rect16x16"
         width="16"
         height="16"
         x="416"
         y="140"
         inkscape:label="16x16" />
      <rect
         style="fill:#d4d4d4;fill-opacity:1;fill-rule:nonzero;stroke:none;stroke-width:2;marker:none;visibility:visible;display:inline;overflow:visible;enable-background:accumulate"
         id="rect24x24"
         width="24"
         height="24"
         x="416"
         y="100"
         inkscape:label="24x24" />
      <rect
         style="fill:#eeeeec;fill-opacity:1;fill-rule:nonzero;stroke:none;stroke-width:2;marker:none;visibility:visible;display:inline;overflow:visible;enable-background:accumulate"
         id="rect32x32"
         width="32"
         height="32"
         x="416"
         y="52"
         inkscape:label="32x32" />
      <rect
         inkscape:label="22x22"
         y="101"
         x="417"
         height="22"
         width="22"
         id="rect22x22"
         style="fill:#eeeeec;fill-opacity:1;fill-rule:nonzero;stroke:none;stroke-width:2;marker:none;visibility:visible;display:inline;overflow:visible;enable-background:accumulate" />
      <rect
         inkscape:label="48x48"
         y="220"
         x="288"
         height="48"
         width="48"
         id="rect48x48"
         style="fill:#eeeeec;fill-opacity:1;fill-rule:nonzero;stroke:none;stroke-width:2;marker:none;visibility:visible;display:inline;overflow:visible;enable-background:accumulate" />
      <rect
         style="fill:#eeeeec;fill-opacity:1;fill-rule:nonzero;stroke:none;stroke-width:2;marker:none;visibility:visible;display:inline;overflow:visible;enable-background:accumulate"
         id="rect256x256"
         width="256"
         height="256"
         x="16"
         y="28"
         inkscape:label="256x256" />
      <rect
         style="fill:#eeeeec;fill-opacity:1;fill-rule:nonzero;stroke:none;stroke-width:2;marker:none;visibility:visible;display:inline;overflow:visible;enable-background:accumulate"
         id="rect64x64"
         width="64"
         height="64"
         x="288"
         y="140"
         inkscape:label="64x64" />
      <rect
         style="fill:#eeeeec;fill-opacity:1;fill-rule:nonzero;stroke:none;stroke-width:2;marker:none;visibility:visible;display:inline;overflow:visible;enable-background:accumulate"
         id="rect96x96"
         width="96"
         height="96"
         x="288"
         y="28"
         inkscape:label="96x96" />
    </g>
    <g
       inkscape:groupmode="layer"
       id="layer4"
       inkscape:label="Shadow"
       style="display:inline"
       sodipodi:insensitive="true">
      <rect
         ry="50"
         y="47"
         x="34"
         height="220"
         width="220"
         id="rect4114"
         style="opacity:0.1;color:#bebebe;fill:#000000;fill-opacity:1;fill-rule:nonzero;stroke:none;stroke-width:0;marker:none;visibility:visible;display:inline;overflow:visible;enable-background:accumulate" />
      <rect
         style="opacity:0.1;color:#bebebe;fill:#000000;fill-opacity:1;fill-rule:nonzero;stroke:none;stroke-width:0;marker:none;visibility:visible;display:inline;overflow:visible;enable-background:accumulate"
         id="rect4120"
         width="30"
         height="30"
         x="417"
         y="54"
         ry="7" />
      <rect
         transform="scale(1,-1)"
         ry="9"
         y="-266"
         x="291"
         height="42"
         width="42"
         id="rect4122"
         style="opacity:0.1;color:#bebebe;fill:#000000;fill-opacity:1;fill-rule:nonzero;stroke:none;stroke-width:0;marker:none;visibility:visible;display:inline;overflow:visible;enable-background:accumulate" />
      <rect
         style="opacity:0.1;color:#bebebe;fill:#000000;fill-opacity:1;fill-rule:nonzero;stroke:none;stroke-width:0;marker:none;visibility:visible;display:inline;overflow:visible;enable-background:accumulate"
         id="rect4124"
         width="88"
         height="88"
         x="292"
         y="33"
         ry="18" />
      <rect
         ry="12.5"
         y="143"
         x="290"
         height="60"
         width="60"
         id="rect4126"
         style="opacity:0.1;color:#bebebe;fill:#000000;fill-opacity:1;fill-rule:nonzero;stroke:none;stroke-width:0;marker:none;visibility:visible;display:inline;overflow:visible;enable-background:accumulate" />
      <path
         id="path4268"
         d="m 422,101 c -2.77,0 -5,2.23 -5,5 l 0,12 c 0,2.77 2.23,5 5,5 l 12,0 c 2.77,0 5,-2.23 5,-5 l 0,-12 c 0,-2.77 -2.23,-5 -5,-5 z"
         style="opacity:0.1;color:#bebebe;fill:#000000;fill-opacity:1;fill-rule:nonzero;stroke:none;stroke-width:0;marker:none;visibility:visible;display:inline;overflow:visible;enable-background:accumulate"
         inkscape:connector-curvature="0"
         sodipodi:nodetypes="sssssssss" />
      <path
         id="path4270"
         d="m 419,140 c -1.662,0 -3,1.338 -3,3 l 0,10 c 0,1.662 1.338,3 3,3 l 10,0 c 1.662,0 3,-1.338 3,-3 l 0,-10 c 0,-1.662 -1.338,-3 -3,-3 z"
         style="opacity:0.1;color:#bebebe;fill:#000000;fill-opacity:1;fill-rule:nonzero;stroke:none;stroke-width:0;marker:none;visibility:visible;display:inline;overflow:visible;enable-background:accumulate"
         inkscape:connector-curvature="0"
         sodipodi:nodetypes="sssssssss" />
    </g>
    <g
       inkscape:groupmode="layer"
       id="layer2"
       inkscape:label="Background"
       style="display:inline">
      <path
         style="color:#bebebe;fill:url(#linearGradient11208);fill-opacity:1.0;fill-rule:nonzero;stroke:none;stroke-width:2;marker:none;visibility:visible;display:inline;overflow:visible;enable-background:accumulate"
         d="M 84 46.5 C 56.568735 46.5 34.5 68.568732 34.5 96 L 34.5 216 C 34.5 243.43127 56.568735 265.5 84 265.5 L 204 265.5 C 231.43127 265.5 253.5 243.43127 253.5 216 L 253.5 96 C 253.5 68.568732 231.43127 46.5 204 46.5 L 84 46.5 z "
         id="path4200" />
      <path
         style="color:#bebebe;fill:url(#linearGradient11210);fill-opacity:1.0;fill-rule:nonzero;stroke:none;stroke-width:2;marker:none;visibility:visible;display:inline;overflow:visible;enable-background:accumulate"
         d="M 419 140.5 C 417.6156 140.5 416.5 141.6156 416.5 143 L 416.5 153 C 416.5 154.3844 417.6156 155.5 419 155.5 L 429 155.5 C 430.3844 155.5 431.5 154.3844 431.5 153 L 431.5 143 C 431.5 141.6156 430.3844 140.5 429 140.5 L 419 140.5 z "
         id="path4202" />
      <path
         style="color:#bebebe;display:inline;overflow:visible;visibility:visible;fill:url(#linearGradient11212);fill-opacity:1.0;fill-rule:nonzero;stroke:none;stroke-width:1.90476179;marker:none;enable-background:accumulate"
         d="M 422.2857,102 C 419.90761,102 418,103.90761 418,106.2857 v 11.4286 c 0,2.37809 1.90761,4.2857 4.2857,4.2857 h 11.4286 C 436.09239,122 438,120.09239 438,117.7143 V 106.2857 C 438,103.90761 436.09239,102 433.7143,102 Z"
         id="path4204"
         inkscape:connector-curvature="0" />
      <path
         style="color:#bebebe;fill:url(#linearGradient11214);fill-opacity:1.0;fill-rule:nonzero;stroke:none;stroke-width:2;marker:none;visibility:visible;display:inline;overflow:visible;enable-background:accumulate"
         d="M 424 53.5 C 420.39346 53.5 417.5 56.393464 417.5 60 L 417.5 76 C 417.5 79.606536 420.39346 82.5 424 82.5 L 440 82.5 C 443.60654 82.5 446.5 79.606536 446.5 76 L 446.5 60 C 446.5 56.393464 443.60654 53.5 440 53.5 L 424 53.5 z "
         id="path4206" />
      <path
         style="color:#bebebe;fill:url(#linearGradient11216);fill-opacity:1.0;fill-rule:nonzero;stroke:none;stroke-width:2;marker:none;visibility:visible;display:inline;overflow:visible;enable-background:accumulate"
         d="M 300 223.5 C 295.28469 223.5 291.5 227.28469 291.5 232 L 291.5 256 C 291.5 260.71531 295.28469 264.5 300 264.5 L 324 264.5 C 328.71531 264.5 332.5 260.71531 332.5 256 L 332.5 232 C 332.5 227.28469 328.71531 223.5 324 223.5 L 300 223.5 z "
         id="path4208" />
      <path
         style="color:#bebebe;fill:url(#linearGradient11218);fill-opacity:1.0;fill-rule:nonzero;stroke:none;stroke-width:2;marker:none;visibility:visible;display:inline;overflow:visible;enable-background:accumulate"
         d="M 310 32.5 C 300.29745 32.5 292.5 40.297452 292.5 50 L 292.5 102 C 292.5 111.70255 300.29745 119.5 310 119.5 L 362 119.5 C 371.70255 119.5 379.5 111.70255 379.5 102 L 379.5 50 C 379.5 40.297452 371.70255 32.5 362 32.5 L 310 32.5 z "
         id="path4210" />
      <path
         style="color:#bebebe;fill:url(#linearGradient11220);fill-opacity:1.0;fill-rule:nonzero;stroke:none;stroke-width:2;marker:none;visibility:visible;display:inline;overflow:visible;enable-background:accumulate"
         d="M 302.5 142.5 C 295.84498 142.5 290.5 147.84498 290.5 154.5 L 290.5 189.5 C 290.5 196.15502 295.84498 201.5 302.5 201.5 L 337.5 201.5 C 344.15502 201.5 349.5 196.15502 349.5 189.5 L 349.5 154.5 C 349.5 147.84498 344.15502 142.5 337.5 142.5 L 302.5 142.5 z "
         id="path4212" />
    </g>
    <g
       inkscape:groupmode="layer"
       id="layer6"
       inkscape:label="Symbols"
       style="display:inline">
      <path
         inkscape:connector-curvature="0"
         style="opacity:0.2;stroke-width:3.17173862"
         d="m 103.28682,73.982456 -32.60462,23.719297 0.01356,0.01182 v 0.0063 l -8.126212,5.911997 v 106.73654 l 40.715912,29.64913 V 138.39517 l 81.43172,101.62237 32.60469,-23.71929 -0.0142,-0.0118 v -0.006 l 8.12278,-5.91204 V 103.63157 L 184.71522,73.982456 V 175.60482 Z"
         id="path2" />
      <path
         inkscape:connector-curvature="0"
         style="fill:#6ba63f;stroke-width:3.17173862"
         d="M 225.43455,100.66667 184.71868,71.017543 V 237.05262 l 40.71587,-29.64911 z"
         id="path4" />
      <path
         inkscape:connector-curvature="0"
         style="fill:#42afe6;stroke-width:3.17173862"
         d="M 62.570905,100.66667 103.28682,71.017543 V 237.05262 L 62.570905,207.40351 Z"
         id="path6" />
      <path
         inkscape:connector-curvature="0"
         style="fill:#96ca6b;stroke-width:3.17173862"
         d="M 103.28682,71.017543 217.32532,213.33333 184.71868,237.05262 70.68015,94.736836 Z"
         id="path8" />
      <path
         inkscape:connector-curvature="0"
         style="fill:#569e41;stroke-width:3.17173862"
         d="m 184.71868,172.64584 v 64.40678 l 32.59139,-23.73085 z"
         id="path10" />
      <path
         inkscape:connector-curvature="0"
         style="fill:#70be63;stroke-width:3.17173862"
         d="m 103.28682,71.017543 -32.58969,23.73116 32.58969,40.675627 z"
         id="path12" />
      <path
         inkscape:connector-curvature="0"
         style="opacity:0.2;fill:#ffffff;stroke-width:3.17173862"
         d="m 103.28682,71.017543 -32.60326,23.719293 0.01358,0.01182 v 0.0063 l -8.126219,5.912034 v 2.96491 l 8.126222,-5.912027 v -0.0063 l -0.01358,-0.01182 32.603257,-23.719297 81.43186,101.622364 v -2.96491 z m 81.43186,0 v 2.964913 l 40.71587,29.649114 v -2.9649 z"
         id="path14" />
      <path
         inkscape:connector-curvature="0"
         style="opacity:0.2;stroke-width:1.18731737"
         d="m 321.49999,45.500071 -11.6113,9.333337 0.006,0.0049 v 0.0025 l -2.89421,2.326329 v 41.999631 l 14.49893,11.666622 V 70.845906 l 29,39.987484 11.61141,-9.33328 -0.006,-0.005 v -0.002 l 2.893,-2.32639 V 57.166706 L 350.49843,45.500051 V 85.48754 Z"
         id="path2-9" />
      <path
         inkscape:connector-curvature="0"
         style="fill:#6ba63f;stroke-width:1.18731737"
         d="M 364.99999,56.000056 350.49998,44.333395 V 109.6666 l 14.50001,-11.666545 z"
         id="path4-2" />
      <path
         inkscape:connector-curvature="0"
         style="fill:#42afe6;stroke-width:1.18731737"
         d="m 306.99999,56.000056 14.5,-11.666661 V 109.6666 l -14.5,-11.666545 z"
         id="path6-2" />
      <path
         inkscape:connector-curvature="0"
         style="fill:#96ca6b;stroke-width:1.18731737"
         d="m 321.49999,44.333395 40.61219,55.999985 -11.6122,9.33323 -40.61216,-55.999878 z"
         id="path8-8" />
      <path
         inkscape:connector-curvature="0"
         style="fill:#569e41;stroke-width:1.18731737"
         d="M 350.49998,84.323232 V 109.6666 l 11.60672,-9.33776 z"
         id="path10-9" />
      <path
         inkscape:connector-curvature="0"
         style="fill:#70be63;stroke-width:1.18731737"
         d="M 321.49999,44.333395 309.8939,53.6714 321.49999,69.676882 Z"
         id="path12-7" />
      <path
         inkscape:connector-curvature="0"
         style="opacity:0.2;fill:#ffffff;stroke-width:1.18731737"
         d="m 321.49999,44.333395 -11.61087,9.333337 0.006,0.0049 v 0.0025 l -2.89424,2.326343 v 1.166659 l 2.89414,-2.326311 v -0.0025 l -0.006,-0.0049 11.61086,-9.333309 28.99999,39.987489 v -1.166678 z m 28.99999,0 v 1.166676 l 14.50001,11.666665 v -1.16668 z"
         id="path14-3" />
      <path
         inkscape:connector-curvature="0"
         style="opacity:0.2;stroke-width:0.82946885"
         d="m 309.7753,149.39129 -8.18797,6.45953 0.004,0.003 v 0.002 l -2.04071,1.61002 v 29.06846 l 10.22499,8.07441 V 166.9333 l 20.45004,27.67541 8.18797,-6.45953 -0.004,-0.003 v -0.002 l 2.03974,-1.61003 V 157.4657 l -10.22498,-8.07441 v 27.67542 z"
         id="path2-6" />
      <path
         inkscape:connector-curvature="0"
         style="fill:#6ba63f;stroke-width:0.82946885"
         d="m 340.45032,156.65811 -10.22499,-8.07441 v 45.21732 l 10.22499,-8.07445 z"
         id="path4-1" />
      <path
         inkscape:connector-curvature="0"
         style="fill:#42afe6;stroke-width:0.82946885"
         d="m 299.55032,156.65811 10.22498,-8.07441 v 45.21732 l -10.22498,-8.07445 z"
         id="path6-29" />
      <path
         inkscape:connector-curvature="0"
         style="fill:#96ca6b;stroke-width:0.82946885"
         d="m 309.7753,148.5837 28.6386,38.75775 -8.18857,6.45957 -28.63859,-38.75779 z"
         id="path8-3" />
      <path
         inkscape:connector-curvature="0"
         style="fill:#569e41;stroke-width:0.82946885"
         d="m 330.22533,176.26082 v 17.5402 l 8.18478,-6.46262 z"
         id="path10-1" />
      <path
         inkscape:connector-curvature="0"
         style="fill:#70be63;stroke-width:0.82946885"
         d="m 309.7753,148.5837 -8.18428,6.46297 8.18428,11.07748 z"
         id="path12-9" />
      <path
         inkscape:connector-curvature="0"
         style="opacity:0.2;fill:#ffffff;stroke-width:0.82946885"
         d="m 309.7753,148.5837 -8.18757,6.45953 0.004,0.003 v 0.002 l -2.0407,1.61 v 0.80759 l 2.0407,-1.61002 v -0.002 l -0.004,-0.003 8.18757,-6.45953 20.45004,27.67541 v -0.80758 z m 20.45004,0 v 0.80759 l 10.22498,8.07441 v -0.80759 z"
         id="path14-4" />
      <path
         inkscape:connector-curvature="0"
         style="display:inline;opacity:0.2;stroke-width:0.59048766;enable-background:new"
         d="m 304.58123,229.77239 -5.94079,4.51182 0.003,0.002 v 0.002 l -1.48064,1.12453 v 20.30372 l 7.41874,5.6398 v -19.33063 l 14.83754,19.33063 5.94079,-4.51175 -0.003,-0.002 v -0.002 l 1.47994,-1.12453 v -20.30382 l -7.41873,-5.63977 v 19.33072 z"
         id="path2-6-6" />
      <path
         inkscape:connector-curvature="0"
         style="display:inline;fill:#6ba63f;stroke-width:0.59048766;enable-background:new"
         d="m 326.8375,234.84805 -7.41875,-5.6398 v 31.5835 l 7.41875,-5.63998 z"
         id="path4-1-9" />
      <path
         inkscape:connector-curvature="0"
         style="display:inline;fill:#42afe6;stroke-width:0.59048766;enable-background:new"
         d="m 297.16249,234.84805 7.41874,-5.6398 v 31.5835 l -7.41874,-5.63998 z"
         id="path6-29-3" />
      <path
         inkscape:connector-curvature="0"
         style="display:inline;fill:#96ca6b;stroke-width:0.59048766;enable-background:new"
         d="m 304.58123,229.20825 20.77874,27.07146 -5.94122,4.51204 -20.77873,-27.07174 z"
         id="path8-3-7" />
      <path
         inkscape:connector-curvature="0"
         style="display:inline;fill:#569e41;stroke-width:0.59048766;enable-background:new"
         d="m 319.41875,248.54017 v 12.25158 l 5.93847,-4.51408 z"
         id="path10-1-4" />
      <path
         inkscape:connector-curvature="0"
         style="display:inline;fill:#70be63;stroke-width:0.59048766;enable-background:new"
         d="m 304.58123,229.20825 -5.93811,4.51435 5.93811,7.73741 z"
         id="path12-9-5" />
      <path
         inkscape:connector-curvature="0"
         style="display:inline;opacity:0.2;fill:#ffffff;stroke-width:0.59048766;enable-background:new"
         d="m 304.58123,229.20825 -5.9405,4.51175 0.003,0.002 v 0.002 l -1.48063,1.12451 v 0.56421 l 1.48063,-1.12453 v -0.002 l -0.003,-0.002 5.9405,-4.5118 14.83753,19.33069 v -0.56421 z m 14.83753,0 v 0.56414 l 7.41875,5.63976 v -0.5641 z"
         id="path14-4-2" />
      <path
         inkscape:connector-curvature="0"
         style="display:inline;opacity:0.2;stroke-width:0.43929702;enable-background:new"
         d="m 426.49999,56.631728 -4.40429,3.368344 0.002,0.0015 v 10e-4 L 421,60.842134 v 15.157903 l 5.50015,4.210445 V 65.779124 l 11.00002,14.431477 4.40429,-3.368354 -0.002,-0.0015 v -10e-4 l 1.09717,-0.839561 V 60.842188 l -5.50012,-4.210433 v 14.431474 z"
         id="path2-6-9" />
      <path
         inkscape:connector-curvature="0"
         style="display:inline;fill:#6ba63f;stroke-width:0.43929702;enable-background:new"
         d="m 443,60.421048 -5.49999,-4.210447 V 79.789399 L 443,75.578933 Z"
         id="path4-1-2" />
      <path
         inkscape:connector-curvature="0"
         style="display:inline;fill:#42afe6;stroke-width:0.43929702;enable-background:new"
         d="m 421,60.421048 5.49999,-4.210447 V 79.789399 L 421,75.578933 Z"
         id="path6-29-0" />
      <path
         inkscape:connector-curvature="0"
         style="display:inline;fill:#96ca6b;stroke-width:0.43929702;enable-background:new"
         d="m 426.49999,56.210601 15.40462,20.210423 -4.4046,3.368375 -15.40462,-20.210441 z"
         id="path8-3-6" />
      <path
         inkscape:connector-curvature="0"
         style="display:inline;fill:#569e41;stroke-width:0.43929702;enable-background:new"
         d="m 437.50001,70.642975 v 9.146424 l 4.40257,-3.369971 z"
         id="path10-1-8" />
      <path
         inkscape:connector-curvature="0"
         style="display:inline;fill:#70be63;stroke-width:0.43929702;enable-background:new"
         d="m 426.49999,56.210601 -4.40231,3.370146 4.40231,5.776414 z"
         id="path12-9-9" />
      <path
         inkscape:connector-curvature="0"
         style="display:inline;opacity:0.2;fill:#ffffff;stroke-width:0.43929702;enable-background:new"
         d="m 426.49999,56.210601 -4.40407,3.368357 0.002,0.0015 v 10e-4 l -1.09768,0.839543 v 0.421121 l 1.09768,-0.839551 v -0.001 l -0.002,-0.0015 4.40407,-3.368344 11.00002,14.431478 v -0.421122 z m 11.00002,0 v 0.421127 L 443,60.842161 v -0.421113 z"
         id="path14-4-26" />
      <path
         inkscape:connector-curvature="0"
         style="display:inline;opacity:0.2;stroke-width:0.3078877;enable-background:new"
         d="m 424.19291,103.93271 -3.04871,2.39024 8.9e-4,9.2e-4 v 8.1e-4 l -0.75982,0.59569 v 10.75659 l 3.80729,2.98786 v -10.24106 l 7.61428,10.24106 3.0486,-2.3903 -8.9e-4,-0.002 v -6.5e-4 l 0.75943,-0.59578 v -10.75595 l -3.80717,-2.98777 v 10.24103 z"
         id="path2-6-9-6" />
      <path
         inkscape:connector-curvature="0"
         style="display:inline;fill:#6ba63f;stroke-width:0.3078877;enable-background:new"
         d="m 435.61427,106.62179 -3.80717,-2.98797 v 16.73235 l 3.80717,-2.98788 z"
         id="path4-1-2-4" />
      <path
         inkscape:connector-curvature="0"
         style="display:inline;fill:#42afe6;stroke-width:0.3078877;enable-background:new"
         d="m 420.38574,106.62179 3.80717,-2.98797 v 16.73235 l -3.80717,-2.98788 z"
         id="path6-29-0-9" />
      <path
         inkscape:connector-curvature="0"
         style="display:inline;fill:#96ca6b;stroke-width:0.3078877;enable-background:new"
         d="m 424.19291,103.63382 10.66311,14.34205 -3.04892,2.3903 -10.66312,-14.34205 z"
         id="path8-3-6-5" />
      <path
         inkscape:connector-curvature="0"
         style="display:inline;fill:#569e41;stroke-width:0.3078877;enable-background:new"
         d="m 431.8071,113.87549 v 6.49068 l 3.04755,-2.39147 z"
         id="path10-1-8-0" />
      <path
         inkscape:connector-curvature="0"
         style="display:inline;fill:#70be63;stroke-width:0.3078877;enable-background:new"
         d="m 424.19291,103.63382 -3.04736,2.39162 3.04736,4.09916 z"
         id="path12-9-9-4" />
      <path
         inkscape:connector-curvature="0"
         style="display:inline;opacity:0.2;fill:#ffffff;stroke-width:0.3078877;enable-background:new"
         d="m 424.19291,103.63382 -3.04854,2.3903 8.9e-4,9.8e-4 v 7.2e-4 l -0.75981,0.5958 v 0.29876 l 0.75981,-0.59569 v -8.1e-4 l -8.9e-4,-9.2e-4 3.04854,-2.39024 7.61419,10.24104 v -0.29875 z m 7.61419,0 v 0.29889 l 3.80717,2.98783 v -0.29875 z"
         id="path14-4-26-8" />
      <path
         inkscape:connector-curvature="0"
         style="display:inline;opacity:0.2;stroke-width:0.21042722;enable-background:new"
         d="m 421.49414,142.06396 -2.00691,1.69605 5.5e-4,6.3e-4 v 6e-4 l -0.50016,0.42271 v 7.63271 l 2.50628,2.12018 v -7.26698 l 5.01232,7.26698 2.00686,-1.6961 -5.4e-4,-0.002 v -5.3e-4 l 0.49984,-0.4227 v -7.63224 l -2.50617,-2.12012 v 7.26693 z"
         id="path2-6-9-6-7" />
      <path
         inkscape:connector-curvature="0"
         style="display:inline;fill:#6ba63f;stroke-width:0.21042722;enable-background:new"
         d="m 429.01262,143.9721 -2.50619,-2.12026 v 11.87306 l 2.50619,-2.12016 z"
         id="path4-1-2-4-1" />
      <path
         inkscape:connector-curvature="0"
         style="display:inline;fill:#42afe6;stroke-width:0.21042722;enable-background:new"
         d="m 418.98795,143.9721 2.50619,-2.12026 v 11.87306 l -2.50619,-2.12016 z"
         id="path6-29-0-9-7" />
      <path
         inkscape:connector-curvature="0"
         style="display:inline;fill:#96ca6b;stroke-width:0.21042722;enable-background:new"
         d="m 421.49414,141.85184 7.01936,10.17698 -2.00707,1.69608 -7.01933,-10.17696 z"
         id="path8-3-6-5-2" />
      <path
         inkscape:connector-curvature="0"
         style="display:inline;fill:#569e41;stroke-width:0.21042722;enable-background:new"
         d="m 426.50643,149.11918 v 4.60572 l 2.00618,-1.69686 z"
         id="path10-1-8-0-7" />
      <path
         inkscape:connector-curvature="0"
         style="display:inline;fill:#70be63;stroke-width:0.21042722;enable-background:new"
         d="m 421.49414,141.85184 -2.00603,1.69706 2.00603,2.90876 z"
         id="path12-9-9-4-2" />
      <path
         inkscape:connector-curvature="0"
         style="display:inline;opacity:0.2;fill:#ffffff;stroke-width:0.21042722;enable-background:new"
         d="m 421.49414,141.85184 -2.00673,1.6961 5.1e-4,7.4e-4 v 4.7e-4 l -0.50015,0.42281 v 0.21199 l 0.50015,-0.4227 v -6.1e-4 l -5.1e-4,-6.2e-4 2.00673,-1.69606 5.01229,7.2669 v -0.212 z m 5.01229,0 v 0.21212 l 2.50619,2.12007 v -0.21192 z"
         id="path14-4-26-8-2" />
    </g>
    <g
       inkscape:groupmode="layer"
       id="layer5"
       inkscape:label="Highlights"
       style="display:inline"
       sodipodi:insensitive="true">
      <path
         style="opacity:0.13000004;color:#bebebe;fill:#ffffff;fill-opacity:1;fill-rule:nonzero;stroke:none;stroke-width:0;marker:none;visibility:visible;display:inline;overflow:visible;enable-background:accumulate"
         d="M 84,47 C 56.836703,47 35,68.836703 35,96 l 0,1 C 35,69.836703 56.836703,48 84,48 l 120,0 c 27.1633,0 49,21.836703 49,49 l 0,-1 C 253,68.836703 231.1633,47 204,47 L 84,47 z"
         id="rect3894"
         inkscape:connector-curvature="0" />
      <path
         style="opacity:0.13000004;color:#bebebe;fill:#ffffff;fill-opacity:1;fill-rule:nonzero;stroke:none;stroke-width:0;marker:none;visibility:visible;display:inline;overflow:visible;enable-background:accumulate"
         d="m 419,141 c -1.1253,0 -2,0.8747 -2,2 l 0,1 c 0,-1.1253 0.8747,-2 2,-2 l 10,0 c 1.1253,0 2,0.8747 2,2 l 0,-1 c 0,-1.1253 -0.8747,-2 -2,-2 l -10,0 z"
         id="rect3896"
         inkscape:connector-curvature="0" />
      <path
         style="opacity:0.13000004;color:#bebebe;fill:#ffffff;fill-opacity:1;fill-rule:nonzero;stroke:none;stroke-width:0;marker:none;visibility:visible;display:inline;overflow:visible;enable-background:accumulate"
         d="m 422,102 c -2.2333,0 -4,1.7667 -4,4 l 0,1 c 0,-2.2333 1.7667,-4 4,-4 l 12,0 c 2.2333,0 4,1.7667 4,4 l 0,-1 c 0,-2.2333 -1.7667,-4 -4,-4 l -12,0 z"
         id="rect3898"
         inkscape:connector-curvature="0" />
      <path
         style="opacity:0.13000004;color:#bebebe;fill:#ffffff;fill-opacity:1;fill-rule:nonzero;stroke:none;stroke-width:0;marker:none;visibility:visible;display:inline;overflow:visible;enable-background:accumulate"
         d="m 424,54 c -3.3413,0 -6,2.658703 -6,6 l 0,1 c 0,-3.341297 2.6587,-6 6,-6 l 16,0 c 3.3413,0 6,2.658703 6,6 l 0,-1 c 0,-3.341297 -2.6587,-6 -6,-6 l -16,0 z"
         id="rect3900"
         inkscape:connector-curvature="0" />
      <path
         style="opacity:0.13000004;color:#bebebe;fill:#ffffff;fill-opacity:1;fill-rule:nonzero;stroke:none;stroke-width:0;marker:none;visibility:visible;display:inline;overflow:visible;enable-background:accumulate"
         d="m 300,224 c -4.4493,0 -8,3.5507 -8,8 l 0,1 c 0,-4.4493 3.5507,-8 8,-8 l 24,0 c 4.4493,0 8,3.5507 8,8 l 0,-1 c 0,-4.4493 -3.5507,-8 -8,-8 l -24,0 z"
         id="rect3902"
         inkscape:connector-curvature="0" />
      <path
         style="opacity:0.13000004;color:#bebebe;fill:#ffffff;fill-opacity:1;fill-rule:nonzero;stroke:none;stroke-width:0;marker:none;visibility:visible;display:inline;overflow:visible;enable-background:accumulate"
         d="m 310,33 c -9.4353,0 -17,7.564703 -17,17 l 0,1 c 0,-9.435297 7.5647,-17 17,-17 l 52,0 c 9.4353,0 17,7.564703 17,17 l 0,-1 c 0,-9.435297 -7.5647,-17 -17,-17 l -52,0 z"
         id="rect3904"
         inkscape:connector-curvature="0" />
      <path
         style="opacity:0.13000004;color:#bebebe;fill:#ffffff;fill-opacity:1;fill-rule:nonzero;stroke:none;stroke-width:0;marker:none;visibility:visible;display:inline;overflow:visible;enable-background:accumulate"
         d="m 302.5,143 c -6.3883,0 -11.5,5.1117 -11.5,11.5 l 0,1 c 0,-6.3883 5.1117,-11.5 11.5,-11.5 l 35,0 c 6.3883,0 11.5,5.1117 11.5,11.5 l 0,-1 c 0,-6.3883 -5.1117,-11.5 -11.5,-11.5 l -35,0 z"
         id="rect3906"
         inkscape:connector-curvature="0" />
      <path
         id="path4085"
         d="m 204,266 c 27.1633,0 49,-21.8367 49,-49 l 0,-1 c 0,27.1633 -21.8367,49 -49,49 L 84,265 C 56.8367,265 35,243.1633 35,216 l 0,1 c 0,27.1633 21.8367,49 49,49 l 120,0 z"
         style="opacity:0.41;color:#bebebe;fill:#000000;fill-opacity:1;fill-rule:nonzero;stroke:none;stroke-width:0;marker:none;visibility:visible;display:inline;overflow:visible;enable-background:accumulate"
         inkscape:connector-curvature="0" />
      <path
         id="path4087"
         d="m 429,156 c 1.1253,0 2,-0.8747 2,-2 l 0,-1 c 0,1.1253 -0.8747,2 -2,2 l -10,0 c -1.1253,0 -2,-0.8747 -2,-2 l 0,1 c 0,1.1253 0.8747,2 2,2 l 10,0 z"
         style="opacity:0.3;color:#bebebe;fill:#000000;fill-opacity:1;fill-rule:nonzero;stroke:none;stroke-width:0;marker:none;visibility:visible;display:inline;overflow:visible;enable-background:accumulate"
         inkscape:connector-curvature="0" />
      <path
         id="path4089"
         d="m 434,123 c 2.2333,0 4,-1.7667 4,-4 l 0,-1 c 0,2.2333 -1.7667,4 -4,4 l -12,0 c -2.2333,0 -4,-1.7667 -4,-4 l 0,1 c 0,2.2333 1.7667,4 4,4 l 12,0 z"
         style="opacity:0.3;color:#bebebe;fill:#000000;fill-opacity:1;fill-rule:nonzero;stroke:none;stroke-width:0;marker:none;visibility:visible;display:inline;overflow:visible;enable-background:accumulate"
         inkscape:connector-curvature="0" />
      <path
         id="path4091"
         d="m 440,83 c 3.3413,0 6,-2.6587 6,-6 l 0,-1 c 0,3.3413 -2.6587,6 -6,6 l -16,0 c -3.3413,0 -6,-2.6587 -6,-6 l 0,1 c 0,3.3413 2.6587,6 6,6 l 16,0 z"
         style="opacity:0.41;color:#bebebe;fill:#000000;fill-opacity:1;fill-rule:nonzero;stroke:none;stroke-width:0;marker:none;visibility:visible;display:inline;overflow:visible;enable-background:accumulate"
         inkscape:connector-curvature="0" />
      <path
         id="path4093"
         d="m 324,265 c 4.4493,0 8,-3.5507 8,-8 l 0,-1 c 0,4.4493 -3.5507,8 -8,8 l -24,0 c -4.4493,0 -8,-3.5507 -8,-8 l 0,1 c 0,4.4493 3.5507,8 8,8 l 24,0 z"
         style="opacity:0.41;color:#bebebe;fill:#000000;fill-opacity:1;fill-rule:nonzero;stroke:none;stroke-width:0;marker:none;visibility:visible;display:inline;overflow:visible;enable-background:accumulate"
         inkscape:connector-curvature="0" />
      <path
         id="path4095"
         d="m 362,120 c 9.4353,0 17,-7.5647 17,-17 l 0,-1 c 0,9.4353 -7.5647,17 -17,17 l -52,0 c -9.4353,0 -17,-7.5647 -17,-17 l 0,1 c 0,9.4353 7.5647,17 17,17 l 52,0 z"
         style="opacity:0.41;color:#bebebe;fill:#000000;fill-opacity:1;fill-rule:nonzero;stroke:none;stroke-width:0;marker:none;visibility:visible;display:inline;overflow:visible;enable-background:accumulate"
         inkscape:connector-curvature="0" />
      <path
         id="path4097"
         d="m 337.5,202 c 6.3883,0 11.5,-5.1117 11.5,-11.5 l 0,-1 c 0,6.3883 -5.1117,11.5 -11.5,11.5 l -35,0 c -6.3883,0 -11.5,-5.1117 -11.5,-11.5 l 0,1 c 0,6.3883 5.1117,11.5 11.5,11.5 l 35,0 z"
         style="opacity:0.41;color:#bebebe;fill:#000000;fill-opacity:1;fill-rule:nonzero;stroke:none;stroke-width:0;marker:none;visibility:visible;display:inline;overflow:visible;enable-background:accumulate"
         inkscape:connector-curvature="0" />
      <path
         inkscape:connector-curvature="0"
         id="path4280"
         d="M 84,265 C 56.836703,265 35,243.1633 35,216 l 0,-1 c 0,27.1633 21.836703,49 49,49 l 120,0 c 27.1633,0 49,-21.8367 49,-49 l 0,1 c 0,27.1633 -21.8367,49 -49,49 l -120,0 z"
         style="opacity:0.1;color:#bebebe;fill:#ffffff;fill-opacity:1;fill-rule:nonzero;stroke:none;stroke-width:0;marker:none;visibility:visible;display:inline;overflow:visible;enable-background:accumulate" />
      <path
         style="opacity:0.1;color:#bebebe;fill:#ffffff;fill-opacity:1;fill-rule:nonzero;stroke:none;stroke-width:0;marker:none;visibility:visible;display:inline;overflow:visible;enable-background:accumulate"
         d="m 300,264 c -4.4493,0 -8,-3.5507 -8,-8 l 0,-1 c 0,4.4493 3.5507,8 8,8 l 24,0 c 4.4493,0 8,-3.5507 8,-8 l 0,1 c 0,4.4493 -3.5507,8 -8,8 l -24,0 z"
         id="path4294"
         inkscape:connector-curvature="0" />
      <path
         style="opacity:0.1;color:#bebebe;fill:#ffffff;fill-opacity:1;fill-rule:nonzero;stroke:none;stroke-width:0;marker:none;visibility:visible;display:inline;overflow:visible;enable-background:accumulate"
         d="m 302.5,201 c -6.3883,0 -11.5,-5.1117 -11.5,-11.5 l 0,-1 c 0,6.3883 5.1117,11.5 11.5,11.5 l 35,0 c 6.3883,0 11.5,-5.1117 11.5,-11.5 l 0,1 c 0,6.3883 -5.1117,11.5 -11.5,11.5 l -35,0 z"
         id="path4296"
         inkscape:connector-curvature="0" />
      <path
         style="opacity:0.1;color:#bebebe;fill:#ffffff;fill-opacity:1;fill-rule:nonzero;stroke:none;stroke-width:0;marker:none;visibility:visible;display:inline;overflow:visible;enable-background:accumulate"
         d="m 310,119 c -9.4353,0 -17,-7.5647 -17,-17 l 0,-1 c 0,9.4353 7.5647,17 17,17 l 52,0 c 9.4353,0 17,-7.5647 17,-17 l 0,1 c 0,9.4353 -7.5647,17 -17,17 l -52,0 z"
         id="path4298"
         inkscape:connector-curvature="0" />
      <path
         style="opacity:0.1;color:#bebebe;fill:#ffffff;fill-opacity:1;fill-rule:nonzero;stroke:none;stroke-width:0;marker:none;visibility:visible;display:inline;overflow:visible;enable-background:accumulate"
         d="m 424,82 c -3.3413,0 -6,-2.658703 -6,-6 l 0,-1 c 0,3.341297 2.6587,6 6,6 l 16,0 c 3.3413,0 6,-2.658703 6,-6 l 0,1 c 0,3.341297 -2.6587,6 -6,6 l -16,0 z"
         id="path4300"
         inkscape:connector-curvature="0" />
      <path
         style="opacity:0.1;color:#bebebe;fill:#ffffff;fill-opacity:1;fill-rule:nonzero;stroke:none;stroke-width:0;marker:none;visibility:visible;display:inline;overflow:visible;enable-background:accumulate"
         d="m 422,122 c -2.2333,0 -4,-1.7667 -4,-4 l 0,-1 c 0,2.2333 1.7667,4 4,4 l 12,0 c 2.2333,0 4,-1.7667 4,-4 l 0,1 c 0,2.2333 -1.7667,4 -4,4 l -12,0 z"
         id="path4302"
         inkscape:connector-curvature="0" />
      <path
         style="opacity:0.1;color:#bebebe;fill:#ffffff;fill-opacity:1;fill-rule:nonzero;stroke:none;stroke-width:0;marker:none;visibility:visible;display:inline;overflow:visible;enable-background:accumulate"
         d="m 419,154.5 c -1.1253,0 -2,-0.8747 -2,-2 l 0,-1 c 0,1.1253 0.8747,2 2,2 l 10,0 c 1.1253,0 2,-0.8747 2,-2 l 0,1 c 0,1.1253 -0.8747,2 -2,2 l -10,0 z"
         id="path4304"
         inkscape:connector-curvature="0" />
    </g>
    <g
       inkscape:groupmode="layer"
       id="layer3"
       inkscape:label="Border"
       style="display:inline"
       sodipodi:insensitive="true">
      <path
         style="opacity:0.41;color:#bebebe;fill:#000000;fill-opacity:1;fill-rule:nonzero;stroke:none;stroke-width:0;marker:none;visibility:visible;display:inline;overflow:visible;enable-background:accumulate"
         d="m 422,101 c -2.77,0 -5,2.23 -5,5 l 0,12 c 0,2.77 2.23,5 5,5 l 12,0 c 2.77,0 5,-2.23 5,-5 l 0,-12 c 0,-2.77 -2.23,-5 -5,-5 l -12,0 z m 0,1 12,0 c 2.2333,0 4,1.7667 4,4 l 0,12 c 0,2.2333 -1.7667,4 -4,4 l -12,0 c -2.2333,0 -4,-1.7667 -4,-4 l 0,-12 c 0,-2.2333 1.7667,-4 4,-4 z"
         id="rect4099"
         inkscape:connector-curvature="0" />
      <path
         style="opacity:0.41;color:#bebebe;fill:#000000;fill-opacity:1;fill-rule:nonzero;stroke:none;stroke-width:0;marker:none;visibility:visible;display:inline;overflow:visible;enable-background:accumulate"
         d="m 424,53 c -3.878,0 -7,3.122 -7,7 l 0,16 c 0,3.878 3.122,7 7,7 l 16,0 c 3.878,0 7,-3.122 7,-7 l 0,-16 c 0,-3.878 -3.122,-7 -7,-7 l -16,0 z m 0,1 16,0 c 3.3413,0 6,2.658703 6,6 l 0,16 c 0,3.341297 -2.6587,6 -6,6 l -16,0 c -3.3413,0 -6,-2.658703 -6,-6 l 0,-16 c 0,-3.341297 2.6587,-6 6,-6 z"
         id="rect4151"
         inkscape:connector-curvature="0" />
      <path
         style="opacity:0.41;color:#bebebe;fill:#000000;fill-opacity:1;fill-rule:nonzero;stroke:none;stroke-width:0;marker:none;visibility:visible;display:inline;overflow:visible;enable-background:accumulate"
         d="m 419,140 c -1.662,0 -3,1.338 -3,3 l 0,10 c 0,1.662 1.338,3 3,3 l 10,0 c 1.662,0 3,-1.338 3,-3 l 0,-10 c 0,-1.662 -1.338,-3 -3,-3 l -10,0 z m 0,1 10,0 c 1.1253,0 2,0.8747 2,2 l 0,10 c 0,1.1253 -0.8747,2 -2,2 l -10,0 c -1.1253,0 -2,-0.8747 -2,-2 l 0,-10 c 0,-1.1253 0.8747,-2 2,-2 z"
         id="rect4095"
         inkscape:connector-curvature="0" />
      <path
         style="opacity:0.41;color:#bebebe;fill:#000000;fill-opacity:1;fill-rule:nonzero;stroke:none;stroke-width:0;marker:none;visibility:visible;display:inline;overflow:visible;enable-background:accumulate"
         d="m 300,223 c -4.986,0 -9,4.014 -9,9 l 0,24 c 0,4.986 4.014,9 9,9 l 24,0 c 4.986,0 9,-4.014 9,-9 l 0,-24 c 0,-4.986 -4.014,-9 -9,-9 l -24,0 z m 0,1 24,0 c 4.4493,0 8,3.5507 8,8 l 0,24 c 0,4.4493 -3.5507,8 -8,8 l -24,0 c -4.4493,0 -8,-3.5507 -8,-8 l 0,-24 c 0,-4.4493 3.5507,-8 8,-8 z"
         id="rect4783"
         inkscape:connector-curvature="0" />
      <path
         style="opacity:0.41;color:#bebebe;fill:#000000;fill-opacity:1;fill-rule:nonzero;stroke:none;stroke-width:0;marker:none;visibility:visible;display:inline;overflow:visible;enable-background:accumulate"
         d="m 302.5,142 c -6.925,0 -12.5,5.575 -12.5,12.5 l 0,35 c 0,6.925 5.575,12.5 12.5,12.5 l 35,0 c 6.925,0 12.5,-5.575 12.5,-12.5 l 0,-35 c 0,-6.925 -5.575,-12.5 -12.5,-12.5 l -35,0 z m 0,1 35,0 c 6.3883,0 11.5,5.1117 11.5,11.5 l 0,35 c 0,6.3883 -5.1117,11.5 -11.5,11.5 l -35,0 c -6.3883,0 -11.5,-5.1117 -11.5,-11.5 l 0,-35 c 0,-6.3883 5.1117,-11.5 11.5,-11.5 z"
         id="rect4515"
         inkscape:connector-curvature="0" />
      <path
         style="opacity:0.41;color:#bebebe;fill:#000000;fill-opacity:1;fill-rule:nonzero;stroke:none;stroke-width:0;marker:none;visibility:visible;display:inline;overflow:visible;enable-background:accumulate"
         d="m 310,32 c -9.972,0 -18,8.028 -18,18 l 0,52 c 0,9.972 8.028,18 18,18 l 52,0 c 9.972,0 18,-8.028 18,-18 l 0,-52 c 0,-9.972 -8.028,-18 -18,-18 l -52,0 z m 0,1 52,0 c 9.4353,0 17,7.564703 17,17 l 0,52 c 0,9.4353 -7.5647,17 -17,17 l -52,0 c -9.4353,0 -17,-7.5647 -17,-17 l 0,-52 c 0,-9.435297 7.5647,-17 17,-17 z"
         id="rect4511"
         inkscape:connector-curvature="0" />
      <path
         style="opacity:0.41;color:#bebebe;fill:#000000;fill-opacity:1;fill-rule:nonzero;stroke:none;stroke-width:0;marker:none;visibility:visible;display:inline;overflow:visible;enable-background:accumulate"
         d="M 84,46 C 56.3,46 34,68.3 34,96 l 0,120 c 0,27.7 22.3,50 50,50 l 120,0 c 27.7,0 50,-22.3 50,-50 L 254,96 C 254,68.3 231.7,46 204,46 L 84,46 z m 0,1 120,0 c 27.1633,0 49,21.836703 49,49 l 0,120 c 0,27.1633 -21.8367,49 -49,49 L 84,265 C 56.836703,265 35,243.1633 35,216 L 35,96 C 35,68.836703 56.836703,47 84,47 z"
         id="rect4040"
         inkscape:connector-curvature="0" />
    </g>
  </g>
</svg>
