<?xml version="1.0" encoding="UTF-8" standalone="no"?>
<!-- Created with Inkscape (http://www.inkscape.org/) -->

<svg
   xmlns:dc="http://purl.org/dc/elements/1.1/"
   xmlns:cc="http://creativecommons.org/ns#"
   xmlns:rdf="http://www.w3.org/1999/02/22-rdf-syntax-ns#"
   xmlns:svg="http://www.w3.org/2000/svg"
   xmlns="http://www.w3.org/2000/svg"
   xmlns:xlink="http://www.w3.org/1999/xlink"
   xmlns:sodipodi="http://sodipodi.sourceforge.net/DTD/sodipodi-0.dtd"
   xmlns:inkscape="http://www.inkscape.org/namespaces/inkscape"
   inkscape:export-ydpi="90.000000"
   inkscape:export-xdpi="90.000000"
   width="480"
   height="300"
   id="svg11300"
   sodipodi:version="0.32"
   inkscape:version="0.92.4 5da689c313, 2019-01-14"
   sodipodi:docname="tootle.svg"
   inkscape:output_extension="org.inkscape.output.svg.inkscape"
   version="1.0"
   style="display:inline;enable-background:new"
   inkscape:export-filename="/home/sam/moka-next-template.png">
  <sodipodi:namedview
     stroke="#ef2929"
     fill="#f57900"
     id="base"
     pagecolor="#777777"
     bordercolor="#666666"
     borderopacity="0.25490196"
     inkscape:pageopacity="0"
     inkscape:pageshadow="2"
     inkscape:zoom="1"
     inkscape:cx="185.88295"
     inkscape:cy="14.665094"
     inkscape:current-layer="layer6"
     showgrid="false"
     inkscape:grid-bbox="true"
     inkscape:document-units="px"
     inkscape:showpageshadow="false"
     inkscape:window-width="1600"
     inkscape:window-height="843"
     inkscape:window-x="0"
     inkscape:window-y="0"
     width="400px"
     height="300px"
     inkscape:snap-nodes="true"
     inkscape:snap-bbox="true"
     gridtolerance="10000"
     inkscape:object-nodes="true"
     inkscape:snap-grids="true"
     showguides="true"
     inkscape:guide-bbox="true"
     inkscape:window-maximized="1"
     inkscape:bbox-nodes="true"
     inkscape:bbox-paths="true"
     inkscape:snap-bbox-edge-midpoints="true"
     inkscape:snap-bbox-midpoints="true">
    <inkscape:grid
       spacingy="1"
       spacingx="1"
       id="grid5883"
       type="xygrid"
       enabled="true"
       visible="true"
       empspacing="4"
       snapvisiblegridlinesonly="true"
       dotted="false"
       color="#000000"
       opacity="0.1254902"
       empcolor="#203ef3"
       empopacity="0.36470588"
       originx="0"
       originy="0" />
    <inkscape:grid
       type="xygrid"
       id="grid11592"
       empspacing="8"
       visible="true"
       enabled="false"
       spacingx="0.5"
       spacingy="0.5"
       color="#ff0000"
       opacity="0.1254902"
       empcolor="#ff0000"
       empopacity="0.25098039"
       snapvisiblegridlinesonly="true"
       dotted="true"
       originx="0"
       originy="0" />
  </sodipodi:namedview>
  <defs
     id="defs3">
    <linearGradient
       inkscape:collect="always"
       xlink:href="#outerBackgroundGradient-12"
       id="linearGradient4254"
       x1="35"
       y1="156"
       x2="253"
       y2="156"
       gradientUnits="userSpaceOnUse"
       gradientTransform="matrix(0,-1,1,0,-12,300)" />
    <linearGradient
       inkscape:collect="always"
       xlink:href="#outerBackgroundGradient-12"
       id="linearGradient4256"
       x1="417"
       y1="148"
       x2="431"
       y2="148"
       gradientUnits="userSpaceOnUse"
       gradientTransform="matrix(0,-1,1,0,276,572)" />
    <linearGradient
       inkscape:collect="always"
       xlink:href="#outerBackgroundGradient-12"
       id="linearGradient4260"
       x1="418"
       y1="68"
       x2="446"
       y2="68"
       gradientUnits="userSpaceOnUse"
       gradientTransform="matrix(0,-1,1,0,364,500)" />
    <linearGradient
       inkscape:collect="always"
       xlink:href="#outerBackgroundGradient-12"
       id="linearGradient4262"
       x1="292"
       y1="244"
       x2="332"
       y2="244"
       gradientUnits="userSpaceOnUse"
       gradientTransform="matrix(0,-1,1,0,68,556)" />
    <linearGradient
       inkscape:collect="always"
       xlink:href="#outerBackgroundGradient-12"
       id="linearGradient4264"
       x1="293"
       y1="76"
       x2="379"
       y2="76"
       gradientUnits="userSpaceOnUse"
       gradientTransform="matrix(0,-1,1,0,260,412)" />
    <linearGradient
       inkscape:collect="always"
       xlink:href="#outerBackgroundGradient-12"
       id="linearGradient4266"
       x1="291"
       y1="172"
       x2="349"
       y2="172"
       gradientUnits="userSpaceOnUse"
       gradientTransform="matrix(0,-1,1,0,148,492)" />
    <linearGradient
       inkscape:collect="always"
       xlink:href="#outerBackgroundGradient-12"
       id="linearGradient3870"
       gradientUnits="userSpaceOnUse"
       gradientTransform="matrix(0,-1,1,0,316,540)"
       x1="418"
       y1="112"
       x2="438"
       y2="112" />
    <linearGradient
       id="linearGradient3888">
      <stop
         style="stop-color:#f4a773;stop-opacity:1;"
         offset="0"
         id="stop3890" />
      <stop
         style="stop-color:#ffffff;stop-opacity:1;"
         offset="1"
         id="stop3892" />
    </linearGradient>
    <linearGradient
       id="outerBackgroundGradient-12">
      <stop
         style="stop-color:#2f7474;stop-opacity:1;"
         offset="0"
         id="stop3864-8-6-4" />
      <stop
         style="stop-color:#75b4b4;stop-opacity:1;"
         offset="1"
         id="stop3866-9-1-3" />
    </linearGradient>
  </defs>
  <metadata
     id="metadata4">
    <rdf:RDF>
      <cc:Work
         rdf:about="">
        <dc:format>image/svg+xml</dc:format>
        <dc:type
           rdf:resource="http://purl.org/dc/dcmitype/StillImage" />
        <dc:creator>
          <cc:Agent>
            <dc:title>Sam Hewitt</dc:title>
          </cc:Agent>
        </dc:creator>
        <dc:source />
        <cc:license
           rdf:resource="" />
        <dc:title />
        <dc:subject>
          <rdf:Bag />
        </dc:subject>
        <dc:date />
        <dc:rights>
          <cc:Agent>
            <dc:title />
          </cc:Agent>
        </dc:rights>
        <dc:publisher>
          <cc:Agent>
            <dc:title />
          </cc:Agent>
        </dc:publisher>
        <dc:identifier />
        <dc:relation />
        <dc:language />
        <dc:coverage />
        <dc:description />
        <dc:contributor>
          <cc:Agent>
            <dc:title />
          </cc:Agent>
        </dc:contributor>
      </cc:Work>
      <cc:Work
         rdf:about="">
        <dc:format>image/svg+xml</dc:format>
        <dc:type
           rdf:resource="http://purl.org/dc/dcmitype/StillImage" />
      </cc:Work>
    </rdf:RDF>
  </metadata>
  <g
     style="display:inline"
     inkscape:groupmode="layer"
     inkscape:label="Icon"
     id="layer1">
    <g
       style="display:none"
       inkscape:label="Baseplate"
       id="layer7"
       inkscape:groupmode="layer">
      <text
         y="19.745117"
         xml:space="preserve"
         x="15.006836"
         style="font-style:normal;font-variant:normal;font-weight:normal;font-stretch:normal;line-height:0%;font-family:'DejaVu Sans';-inkscape-font-specification:'DejaVu Sans';display:inline;fill:#000000;fill-opacity:1;stroke:none;enable-background:new"
         inkscape:label="context"
         id="context"><tspan
           style="font-style:normal;font-variant:normal;font-weight:normal;font-stretch:normal;font-size:18px;line-height:1.25;font-family:'DejaVu Sans';-inkscape-font-specification:'DejaVu Sans'"
           y="19.745117"
           x="15.006836"
           sodipodi:role="line"
           id="tspan3933">apps</tspan></text>
      <text
         y="19.745117"
         xml:space="preserve"
         x="122.48828"
         style="font-style:normal;font-variant:normal;font-weight:bold;font-stretch:normal;line-height:0%;font-family:'DejaVu Sans';-inkscape-font-specification:'DejaVu Sans Bold';text-align:start;writing-mode:lr-tb;text-anchor:start;display:inline;fill:#000000;fill-opacity:1;stroke:none;enable-background:new"
         inkscape:label="icon-name"
         id="icon-name"><tspan
           style="font-style:normal;font-variant:normal;font-weight:bold;font-stretch:normal;font-size:18px;line-height:1.25;font-family:'DejaVu Sans';-inkscape-font-specification:'DejaVu Sans Bold'"
           y="19.745117"
           x="122.48828"
           sodipodi:role="line"
           id="tspan3937">tootle</tspan></text>
      <rect
         style="fill:#eeeeec;fill-opacity:1;fill-rule:nonzero;stroke:none;stroke-width:2;marker:none;visibility:visible;display:inline;overflow:visible;enable-background:accumulate"
         id="rect16x16"
         width="16"
         height="16"
         x="416"
         y="140"
         inkscape:label="16x16" />
      <rect
         style="fill:#d4d4d4;fill-opacity:1;fill-rule:nonzero;stroke:none;stroke-width:2;marker:none;visibility:visible;display:inline;overflow:visible;enable-background:accumulate"
         id="rect24x24"
         width="24"
         height="24"
         x="416"
         y="100"
         inkscape:label="24x24" />
      <rect
         style="fill:#eeeeec;fill-opacity:1;fill-rule:nonzero;stroke:none;stroke-width:2;marker:none;visibility:visible;display:inline;overflow:visible;enable-background:accumulate"
         id="rect32x32"
         width="32"
         height="32"
         x="416"
         y="52"
         inkscape:label="32x32" />
      <rect
         inkscape:label="22x22"
         y="101"
         x="417"
         height="22"
         width="22"
         id="rect22x22"
         style="fill:#eeeeec;fill-opacity:1;fill-rule:nonzero;stroke:none;stroke-width:2;marker:none;visibility:visible;display:inline;overflow:visible;enable-background:accumulate" />
      <rect
         inkscape:label="48x48"
         y="220"
         x="288"
         height="48"
         width="48"
         id="rect48x48"
         style="fill:#eeeeec;fill-opacity:1;fill-rule:nonzero;stroke:none;stroke-width:2;marker:none;visibility:visible;display:inline;overflow:visible;enable-background:accumulate" />
      <rect
         style="fill:#eeeeec;fill-opacity:1;fill-rule:nonzero;stroke:none;stroke-width:2;marker:none;visibility:visible;display:inline;overflow:visible;enable-background:accumulate"
         id="rect256x256"
         width="256"
         height="256"
         x="16"
         y="28"
         inkscape:label="256x256" />
      <rect
         style="fill:#eeeeec;fill-opacity:1;fill-rule:nonzero;stroke:none;stroke-width:2;marker:none;visibility:visible;display:inline;overflow:visible;enable-background:accumulate"
         id="rect64x64"
         width="64"
         height="64"
         x="288"
         y="140"
         inkscape:label="64x64" />
      <rect
         style="fill:#eeeeec;fill-opacity:1;fill-rule:nonzero;stroke:none;stroke-width:2;marker:none;visibility:visible;display:inline;overflow:visible;enable-background:accumulate"
         id="rect96x96"
         width="96"
         height="96"
         x="288"
         y="28"
         inkscape:label="96x96" />
    </g>
    <g
       inkscape:groupmode="layer"
       id="layer4"
       inkscape:label="Shadow"
       style="display:inline"
       sodipodi:insensitive="true">
      <rect
         ry="50"
         y="47"
         x="34"
         height="220"
         width="220"
         id="rect4114"
         style="opacity:0.1;color:#bebebe;fill:#000000;fill-opacity:1;fill-rule:nonzero;stroke:none;stroke-width:0;marker:none;visibility:visible;display:inline;overflow:visible;enable-background:accumulate" />
      <rect
         style="opacity:0.1;color:#bebebe;fill:#000000;fill-opacity:1;fill-rule:nonzero;stroke:none;stroke-width:0;marker:none;visibility:visible;display:inline;overflow:visible;enable-background:accumulate"
         id="rect4120"
         width="30"
         height="30"
         x="417"
         y="54"
         ry="7" />
      <rect
         transform="scale(1,-1)"
         ry="9"
         y="-266"
         x="291"
         height="42"
         width="42"
         id="rect4122"
         style="opacity:0.1;color:#bebebe;fill:#000000;fill-opacity:1;fill-rule:nonzero;stroke:none;stroke-width:0;marker:none;visibility:visible;display:inline;overflow:visible;enable-background:accumulate" />
      <rect
         style="opacity:0.1;color:#bebebe;fill:#000000;fill-opacity:1;fill-rule:nonzero;stroke:none;stroke-width:0;marker:none;visibility:visible;display:inline;overflow:visible;enable-background:accumulate"
         id="rect4124"
         width="88"
         height="88"
         x="292"
         y="33"
         ry="18" />
      <rect
         ry="12.5"
         y="143"
         x="290"
         height="60"
         width="60"
         id="rect4126"
         style="opacity:0.1;color:#bebebe;fill:#000000;fill-opacity:1;fill-rule:nonzero;stroke:none;stroke-width:0;marker:none;visibility:visible;display:inline;overflow:visible;enable-background:accumulate" />
      <path
         id="path4268"
         d="m 422,101 c -2.77,0 -5,2.23 -5,5 l 0,12 c 0,2.77 2.23,5 5,5 l 12,0 c 2.77,0 5,-2.23 5,-5 l 0,-12 c 0,-2.77 -2.23,-5 -5,-5 z"
         style="opacity:0.1;color:#bebebe;fill:#000000;fill-opacity:1;fill-rule:nonzero;stroke:none;stroke-width:0;marker:none;visibility:visible;display:inline;overflow:visible;enable-background:accumulate"
         inkscape:connector-curvature="0"
         sodipodi:nodetypes="sssssssss" />
      <path
         id="path4270"
         d="m 419,140 c -1.662,0 -3,1.338 -3,3 l 0,10 c 0,1.662 1.338,3 3,3 l 10,0 c 1.662,0 3,-1.338 3,-3 l 0,-10 c 0,-1.662 -1.338,-3 -3,-3 z"
         style="opacity:0.1;color:#bebebe;fill:#000000;fill-opacity:1;fill-rule:nonzero;stroke:none;stroke-width:0;marker:none;visibility:visible;display:inline;overflow:visible;enable-background:accumulate"
         inkscape:connector-curvature="0"
         sodipodi:nodetypes="sssssssss" />
    </g>
    <g
       inkscape:groupmode="layer"
       id="layer2"
       inkscape:label="Background"
       style="display:inline">
      <path
         style="color:#bebebe;fill:url(#linearGradient4254);fill-opacity:1.0;fill-rule:nonzero;stroke:none;stroke-width:2;marker:none;visibility:visible;display:inline;overflow:visible;enable-background:accumulate"
         d="M 84 46.5 C 56.568735 46.5 34.5 68.568732 34.5 96 L 34.5 216 C 34.5 243.43127 56.568735 265.5 84 265.5 L 204 265.5 C 231.43127 265.5 253.5 243.43127 253.5 216 L 253.5 96 C 253.5 68.568732 231.43127 46.5 204 46.5 L 84 46.5 z "
         id="path4200" />
      <path
         style="color:#bebebe;fill:url(#linearGradient4256);fill-opacity:1.0;fill-rule:nonzero;stroke:none;stroke-width:2;marker:none;visibility:visible;display:inline;overflow:visible;enable-background:accumulate"
         d="M 419 140.5 C 417.6156 140.5 416.5 141.6156 416.5 143 L 416.5 153 C 416.5 154.3844 417.6156 155.5 419 155.5 L 429 155.5 C 430.3844 155.5 431.5 154.3844 431.5 153 L 431.5 143 C 431.5 141.6156 430.3844 140.5 429 140.5 L 419 140.5 z "
         id="path4202" />
      <path
         style="color:#bebebe;fill:url(#linearGradient3870);fill-opacity:1.0;fill-rule:nonzero;stroke:none;stroke-width:2;marker:none;visibility:visible;display:inline;overflow:visible;enable-background:accumulate"
         d="M 422 101.5 C 419.50301 101.5 417.5 103.50301 417.5 106 L 417.5 118 C 417.5 120.49699 419.50301 122.5 422 122.5 L 434 122.5 C 436.49699 122.5 438.5 120.49699 438.5 118 L 438.5 106 C 438.5 103.50301 436.49699 101.5 434 101.5 L 422 101.5 z "
         id="path4204" />
      <path
         style="color:#bebebe;fill:url(#linearGradient4260);fill-opacity:1.0;fill-rule:nonzero;stroke:none;stroke-width:2;marker:none;visibility:visible;display:inline;overflow:visible;enable-background:accumulate"
         d="M 424 53.5 C 420.39346 53.5 417.5 56.393464 417.5 60 L 417.5 76 C 417.5 79.606536 420.39346 82.5 424 82.5 L 440 82.5 C 443.60654 82.5 446.5 79.606536 446.5 76 L 446.5 60 C 446.5 56.393464 443.60654 53.5 440 53.5 L 424 53.5 z "
         id="path4206" />
      <path
         style="color:#bebebe;fill:url(#linearGradient4262);fill-opacity:1.0;fill-rule:nonzero;stroke:none;stroke-width:2;marker:none;visibility:visible;display:inline;overflow:visible;enable-background:accumulate"
         d="M 300 223.5 C 295.28469 223.5 291.5 227.28469 291.5 232 L 291.5 256 C 291.5 260.71531 295.28469 264.5 300 264.5 L 324 264.5 C 328.71531 264.5 332.5 260.71531 332.5 256 L 332.5 232 C 332.5 227.28469 328.71531 223.5 324 223.5 L 300 223.5 z "
         id="path4208" />
      <path
         style="color:#bebebe;fill:url(#linearGradient4264);fill-opacity:1.0;fill-rule:nonzero;stroke:none;stroke-width:2;marker:none;visibility:visible;display:inline;overflow:visible;enable-background:accumulate"
         d="M 310 32.5 C 300.29745 32.5 292.5 40.297452 292.5 50 L 292.5 102 C 292.5 111.70255 300.29745 119.5 310 119.5 L 362 119.5 C 371.70255 119.5 379.5 111.70255 379.5 102 L 379.5 50 C 379.5 40.297452 371.70255 32.5 362 32.5 L 310 32.5 z "
         id="path4210" />
      <path
         style="color:#bebebe;fill:url(#linearGradient4266);fill-opacity:1.0;fill-rule:nonzero;stroke:none;stroke-width:2;marker:none;visibility:visible;display:inline;overflow:visible;enable-background:accumulate"
         d="M 302.5 142.5 C 295.84498 142.5 290.5 147.84498 290.5 154.5 L 290.5 189.5 C 290.5 196.15502 295.84498 201.5 302.5 201.5 L 337.5 201.5 C 344.15502 201.5 349.5 196.15502 349.5 189.5 L 349.5 154.5 C 349.5 147.84498 344.15502 142.5 337.5 142.5 L 302.5 142.5 z "
         id="path4212" />
      <path
         inkscape:connector-curvature="0"
         style="fill:#ffffff;stroke-width:18.15065575"
         d="m 244.43173,136.49384 -26.6938,-57.466017 c -0.0344,-0.05886 -0.0845,-0.137492 -0.11745,-0.196393 -0.18622,-0.263186 -0.39758,-0.500812 -0.63244,-0.68935 -0.95118,-0.777715 -2.24444,-0.938745 -3.3637,-0.284761 -0.65588,0.384931 -1.13726,0.993735 -1.42079,1.696832 -0.0343,0.05886 -0.0677,0.137465 -0.0847,0.210137 l -14.42799,38.892052 -28.63132,16.79572 c -0.18627,0.11766 -0.37905,0.22389 -0.56022,0.33769 l -9.7364,5.71362 -8.48481,4.97658 -2.22055,-4.77369 c -1.258,-2.70453 -4.21817,-3.75267 -6.62514,-2.33945 -2.40102,1.40607 -3.33992,4.7397 -2.08198,7.44432 l 2.22032,4.77362 -8.19572,4.8075 -7.07673,-15.23373 12.70298,-7.45126 c 3.26161,-1.92065 4.52538,-6.44367 2.82228,-10.10857 -0.27001,-0.59499 -0.61393,-1.12919 -1.00495,-1.59658 l -0.57693,-0.62847 c -2.00994,-1.92657 -4.93432,-2.40019 -7.41373,-0.94663 L 95.314898,142.4292 c -3.267409,1.92079 -4.531265,6.44359 -2.828267,10.11517 0.270063,0.57535 0.590493,1.09579 0.969607,1.55546 0.192866,0.24932 0.4093,0.47903 0.632413,0.68327 2.009816,1.91297 4.928295,2.38694 7.401609,0.93295 l 12.6969,-7.44437 7.07642,15.23346 -9.04401,5.30788 -2.22064,-4.77372 c -1.258,-2.69779 -4.23026,-3.74572 -6.6252,-2.33944 -0.6324,0.37133 -1.16082,0.8721 -1.58185,1.46717 -1.16085,1.65753 -1.42588,3.98236 -0.49992,5.9771 l 2.22053,4.77343 -13.774072,8.08001 c -0.186221,0.0976 -0.379139,0.21603 -0.565325,0.32407 l -32.813227,19.23644 -11.192585,-2.73157 c -0.03349,-0.0142 -0.06716,-0.0142 -0.08395,-0.0204 -0.312015,-0.0794 -0.644159,-0.0142 -0.944437,0.15711 -0.667635,0.39276 -0.956174,1.27865 -0.691139,2.04885 l 12.275757,26.417 c 0.03358,0.0401 0.06707,0.0975 0.10065,0.13754 l 0.01605,0.0204 0.181172,0.1965 c 0.432799,0.40453 1.058495,0.49288 1.600334,0.17666 0.300265,-0.17666 0.523373,-0.45363 0.655909,-0.78356 0.01222,-0.0204 0.01609,-0.06 0.03358,-0.0975 l 4.495225,-12.10314 13.130075,-7.70796 c 0.05043,4.19199 0.951112,8.4315 2.792179,12.40054 6.300343,13.55666 21.193644,18.81048 33.264844,11.73121 0.18616,-0.0975 0.37903,-0.22397 0.5602,-0.33798 l 13.77414,-8.07993 2.57549,5.54451 c 1.25143,2.6977 4.2303,3.74582 6.62522,2.3396 2.40106,-1.40634 3.33979,-4.74669 2.08206,-7.44461 l -2.57564,-5.53758 9.04434,-5.3078 7.50992,16.16672 c 1.75111,3.76619 5.87299,5.21974 9.22485,3.25227 0.93931,-0.54787 1.71503,-1.30406 2.29879,-2.19091 1.53478,-2.29202 1.85324,-5.45633 0.59548,-8.16772 l -7.50991,-16.16835 8.19592,-4.80753 2.57557,5.53776 c 1.25137,2.69785 4.22424,3.75274 6.62519,2.33948 2.40693,-1.41207 3.33377,-4.75341 2.08198,-7.44425 l -2.57539,-5.54454 19.00335,-11.14963 c 1.31175,-0.79144 2.53329,-1.69086 3.66458,-2.69785 9.11648,-8.08676 12.12538,-22.5564 6.55899,-34.53782 -1.8413,-3.96225 -4.42282,-7.21452 -7.44964,-9.66882 l 8.96005,-5.25384 36.85721,8.9726 c 0.0677,0.0205 0.13438,0.0395 0.19803,0.0395 0.67933,0.13749 1.40236,0.0401 2.05207,-0.33788 1.44429,-0.83843 2.0639,-2.76533 1.49277,-4.44903 z m -138.48717,81.25291 c -0.0839,0.0599 -0.16755,0.0975 -0.25328,0.1571 -5.42778,3.18389 -12.11326,0.82477 -14.941344,-5.27497 -2.82827,-6.09213 -0.734736,-13.60409 4.681547,-16.7818 l 14.351847,-8.4191 10.24778,22.05613 z m 22.78833,-13.36761 -10.24765,-22.05597 0.60217,-0.34565 8.44845,-4.95601 10.24802,22.056 -1.92593,1.12917 z m 21.16971,-12.41399 -10.24784,-22.05598 8.19572,-4.80747 10.24801,22.05596 z m 33.99284,-19.96676 c -0.11731,0.0794 -0.23992,0.17662 -0.36741,0.23756 l -16.72864,9.81771 -10.24806,-22.05595 12.47453,-7.32275 3.99559,-2.33959 c 0.21141,-0.11784 0.42767,-0.23569 0.64414,-0.35154 5.29545,-2.65048 11.57768,-0.23567 14.29757,5.61873 2.40111,5.15233 1.2632,11.32549 -2.42487,15.03093 -0.49324,0.50656 -1.04175,0.96615 -1.64237,1.3649 z"
         id="path4" />
      <path
         inkscape:connector-curvature="0"
         style="fill:#ffffff;stroke-width:7.02684879"
         d="m 375.41665,66.245455 -10.4763,-21.945593 c -0.0114,-0.02638 -0.032,-0.0487 -0.0468,-0.07201 -0.0735,-0.100765 -0.15607,-0.191113 -0.24821,-0.263407 -0.37332,-0.296923 -0.88097,-0.358975 -1.32007,-0.108428 -0.25752,0.147221 -0.44648,0.379586 -0.55774,0.648153 -0.0114,0.02347 -0.027,0.05175 -0.0321,0.08006 l -5.66253,14.852459 -11.2367,6.414045 c -0.0735,0.04132 -0.14884,0.08515 -0.22001,0.129059 l -3.821,2.181893 -3.3301,1.900472 -0.87145,-1.823009 c -0.49381,-1.032852 -1.6555,-1.433077 -2.60009,-0.893414 -0.94236,0.537084 -1.31079,1.81008 -0.81723,2.842942 l 0.87139,1.822989 -3.21642,1.835908 -2.77734,-5.817565 4.98557,-2.845523 c 1.28001,-0.733345 1.7759,-2.46078 1.1075,-3.860293 -0.10559,-0.227249 -0.24088,-0.431246 -0.3944,-0.609377 l -0.2264,-0.240171 c -0.7887,-0.735901 -1.93646,-0.91665 -2.90959,-0.361489 l -14.72239,8.402281 c -1.2825,0.733338 -1.7785,2.460776 -1.11008,3.862872 0.10557,0.219527 0.23183,0.418274 0.38047,0.593936 0.0761,0.09558 0.16076,0.183274 0.24837,0.260765 0.78876,0.730716 1.9341,0.911498 2.9048,0.356304 l 4.98305,-2.842931 2.77735,5.817559 -3.54955,2.02699 -0.87146,-1.822998 c -0.49366,-1.030269 -1.66015,-1.4305 -2.6001,-0.893426 -0.2483,0.141977 -0.45569,0.333068 -0.62158,0.560332 -0.45548,0.632623 -0.55962,1.520895 -0.19627,2.282615 l 0.87149,1.822993 -5.40587,3.085646 c -0.0735,0.03906 -0.14868,0.08259 -0.22174,0.123975 l -12.87812,7.346205 -4.39275,-1.043189 c -0.0115,-0.0049 -0.0271,-0.0049 -0.032,-0.0076 -0.12305,-0.02638 -0.25285,-0.0049 -0.37065,0.05999 -0.26194,0.149788 -0.3752,0.488096 -0.27123,0.782384 l 4.81766,10.088421 c 0.0115,0.0171 0.0271,0.0382 0.0387,0.0547 l 0.005,0.008 0.0719,0.072 c 0.16983,0.15488 0.41545,0.18837 0.62815,0.0697 0.11768,-0.0697 0.20539,-0.17295 0.2573,-0.29949 0.005,-0.01 0.005,-0.02 0.0114,-0.0339 l 1.76413,-4.622032 5.15322,-2.943654 c 0.0178,1.600933 0.37328,3.219936 1.09569,4.735652 2.47267,5.177184 8.3177,7.183464 13.0554,4.479944 0.0735,-0.041 0.1487,-0.085 0.21988,-0.12903 l 5.40584,-3.08568 1.01083,2.11741 c 0.49102,1.03026 1.66014,1.43046 2.60009,0.8933 0.94223,-0.53699 1.31076,-1.81261 0.81715,-2.842878 l -1.01081,-2.114785 3.54966,-2.026976 2.94731,6.173889 c 0.68725,1.43825 2.30489,1.99344 3.6203,1.24202 0.36882,-0.20925 0.67305,-0.49827 0.90217,-0.83656 0.60244,-0.87541 0.72735,-2.083839 0.23373,-3.119293 l -2.94726,-6.174499 3.21649,-1.835899 1.01078,2.114769 c 0.49104,1.030293 1.65804,1.433095 2.60013,0.893415 0.94473,-0.539623 1.30843,-1.815246 0.81725,-2.842938 l -1.01078,-2.117352 7.45809,-4.257936 c 0.51483,-0.302094 0.99425,-0.645515 1.43819,-1.030269 3.57799,-3.088245 4.7587,-8.614019 2.57427,-13.18958 -0.7228,-1.51314 -1.73585,-2.75515 -2.92385,-3.692453 l 3.5166,-2.00633 14.46514,3.426506 c 0.0271,0.0076 0.0528,0.0149 0.0777,0.01784 0.2665,0.05401 0.55039,0.01784 0.80537,-0.129151 0.56683,-0.320163 0.81016,-1.056096 0.5861,-1.699044 z m -54.35099,31.029571 c -0.0328,0.02348 -0.0665,0.03823 -0.0995,0.06 -2.13027,1.215879 -4.75407,0.314695 -5.86394,-2.014389 -1.11005,-2.326499 -0.28852,-5.195246 1.83729,-6.408855 l 5.63259,-3.215087 4.02181,8.422943 z m 8.94354,-5.104888 -4.02187,-8.422942 0.23639,-0.131697 3.31564,-1.892723 4.02201,8.422941 -0.75576,0.431253 z m 8.30827,-4.740815 -4.02197,-8.422932 3.21654,-1.835905 4.02199,8.422936 z m 13.34093,-7.625045 c -0.0467,0.03386 -0.093,0.06454 -0.14408,0.09037 l -6.56543,3.749262 -4.02192,-8.422931 4.89567,-2.796464 1.56825,-0.893426 c 0.0827,-0.04649 0.16779,-0.09037 0.25283,-0.134273 2.07826,-1.012198 4.54372,-0.09037 5.61114,2.145766 0.94232,1.967588 0.49588,4.325075 -0.95163,5.740081 -0.1936,0.193627 -0.40882,0.369244 -0.64459,0.521644 z"
         id="path4-3" />
      <path
         inkscape:connector-curvature="0"
         style="fill:#ffffff;stroke-width:4.78739548"
         d="m 347.4416,166.03415 -7.29344,-14.63187 c -0.009,-0.0153 -0.0229,-0.0353 -0.0321,-0.0501 -0.0509,-0.0672 -0.10868,-0.12757 -0.17278,-0.17558 -0.25988,-0.19798 -0.6133,-0.23955 -0.9191,-0.0727 -0.17921,0.0976 -0.31076,0.25292 -0.38821,0.43202 -0.009,0.0153 -0.0183,0.0353 -0.0229,0.0536 l -3.94216,9.90266 -7.82287,4.27642 c -0.0509,0.0299 -0.10351,0.0567 -0.15307,0.0858 l -2.66024,1.45469 -2.31825,1.26715 -0.60666,-1.21552 c -0.34375,-0.68857 -1.15258,-0.95543 -1.81019,-0.59565 -0.65603,0.35807 -0.91251,1.20687 -0.5689,1.89551 l 0.60671,1.21545 -2.23936,1.22406 -1.93354,-3.87875 3.47081,-1.89723 c 0.89114,-0.48905 1.23641,-1.64064 0.77111,-2.57375 -0.0738,-0.1516 -0.16776,-0.28755 -0.27454,-0.40608 l -0.15767,-0.16002 c -0.54913,-0.49055 -1.34821,-0.61117 -2.02559,-0.24098 l -10.24965,5.60209 c -0.89276,0.48908 -1.23802,1.64063 -0.77271,2.57546 0.0738,0.14649 0.16088,0.27907 0.26445,0.39603 0.0528,0.0638 0.11186,0.12202 0.17279,0.17406 0.54915,0.48704 1.34657,0.60775 2.02228,0.23752 l 3.46916,-1.8955 1.93354,3.87881 -2.47116,1.35149 -0.60671,-1.21549 c -0.34376,-0.68702 -1.15583,-0.95381 -1.8102,-0.59568 -0.1728,0.0943 -0.31718,0.22198 -0.43221,0.3735 -0.31718,0.42211 -0.38959,1.01407 -0.13659,1.52199 l 0.6067,1.21535 -3.76345,2.05736 c -0.0509,0.0252 -0.10362,0.0548 -0.15447,0.0823 l -8.96553,4.89795 -3.05812,-0.69558 c -0.009,-0.004 -0.0183,-0.004 -0.0229,-0.004 -0.0857,-0.0197 -0.176,-0.004 -0.25805,0.04 -0.18241,0.0999 -0.26125,0.3255 -0.18928,0.52165 l 3.35407,6.72633 c 0.009,0.008 0.0183,0.0251 0.0274,0.0353 l 0.004,0.004 0.0496,0.0498 c 0.11822,0.10348 0.28921,0.12567 0.43725,0.0447 0.0821,-0.0447 0.143,-0.11558 0.17921,-0.19955 0.002,-0.004 0.004,-0.0153 0.009,-0.0252 l 1.22815,-3.08169 3.58755,-1.96261 c 0.0138,1.0674 0.25988,2.14682 0.76286,3.15742 1.72143,3.45183 5.79073,4.78948 9.08889,2.98693 0.0509,-0.03 0.10362,-0.0566 0.15308,-0.0856 l 3.76345,-2.05729 0.70367,1.41175 c 0.34194,0.68689 1.15585,0.95372 1.81022,0.59567 0.65602,-0.35808 0.9125,-1.20861 0.56889,-1.89552 l -0.70373,-1.41002 2.47116,-1.35139 2.0519,4.11629 c 0.47843,0.9589 1.6047,1.32911 2.52046,0.82806 0.25666,-0.13962 0.46861,-0.33204 0.62806,-0.55774 0.41938,-0.58367 0.50642,-1.38931 0.16271,-2.07971 l -2.05189,-4.11671 2.23931,-1.22404 0.70373,1.40992 c 0.34192,0.68691 1.15419,0.95547 1.81021,0.5957 0.65765,-0.36005 0.91084,-1.2103 0.56887,-1.89549 l -0.70372,-1.41178 5.19223,-2.83885 c 0.35841,-0.20156 0.69219,-0.43055 1.00129,-0.68688 2.49087,-2.05912 3.31295,-5.74332 1.79214,-8.79388 -0.50312,-1.00892 -1.20845,-1.8371 -2.03549,-2.46197 l 2.44817,-1.33765 10.07042,2.28453 c 0.0183,0.004 0.0367,0.008 0.0541,0.008 0.18562,0.0353 0.38316,0.009 0.56062,-0.0856 0.39463,-0.21365 0.56394,-0.70412 0.40793,-1.13285 z m -37.83845,20.68843 c -0.0229,0.0153 -0.0459,0.0252 -0.0692,0.04 -1.483,0.81073 -3.30965,0.21004 -4.08242,-1.34294 -0.77275,-1.55126 -0.20074,-3.4639 1.27915,-4.27312 l 3.92129,-2.1436 2.79999,5.61586 z m 6.22639,-3.40354 -2.79999,-5.61586 0.16454,-0.0875 2.30842,-1.26198 2.79999,5.61588 -0.52614,0.28748 z m 5.78413,-3.1609 -2.8,-5.61586 2.23936,-1.22407 2.79995,5.61587 z m 9.28777,-5.08388 c -0.0321,0.0198 -0.0654,0.0447 -0.10032,0.0601 l -4.57072,2.49975 -2.79999,-5.61584 3.40834,-1.86448 1.09171,-0.59568 c 0.0573,-0.0299 0.1169,-0.0603 0.176,-0.0895 1.44684,-0.67487 3.16336,-0.0605 3.90652,1.43072 0.656,1.31179 0.34511,2.88359 -0.66264,3.82697 -0.13474,0.12918 -0.28463,0.24606 -0.44871,0.34806 z"
         id="path4-6" />
      <path
         inkscape:connector-curvature="0"
         style="fill:#ffffff;stroke-width:3.32918906"
         d="m 330.95721,240.52336 -5.03881,-10.242 c -0.008,-0.0114 -0.0159,-0.0244 -0.0222,-0.0351 -0.0353,-0.0468 -0.0749,-0.0892 -0.11931,-0.12282 -0.17954,-0.1387 -0.42368,-0.16726 -0.63496,-0.0508 -0.12386,0.0685 -0.21466,0.17717 -0.2682,0.30242 -0.008,0.0114 -0.0126,0.0244 -0.016,0.0375 l -2.72349,6.93165 -5.40453,2.99344 c -0.0353,0.0209 -0.0718,0.04 -0.10585,0.0603 l -1.83788,1.01829 -1.6016,0.88697 -0.41916,-0.85082 c -0.23748,-0.48202 -0.79624,-0.66881 -1.2506,-0.41694 -0.45322,0.25061 -0.6304,0.84475 -0.39298,1.32676 l 0.4191,0.8508 -1.54705,0.85682 -1.33581,-2.71505 2.39787,-1.32799 c 0.61564,-0.34233 0.85418,-1.14844 0.53272,-1.80161 -0.0509,-0.10602 -0.11603,-0.20127 -0.18968,-0.28457 l -0.10892,-0.112 c -0.37941,-0.3434 -0.93142,-0.42782 -1.39943,-0.16876 l -7.08112,3.92136 c -0.61676,0.34232 -0.85531,1.14842 -0.53385,1.80279 0.0509,0.10245 0.11147,0.19532 0.18303,0.27722 0.0365,0.0444 0.0772,0.0853 0.11931,0.12168 0.37939,0.34092 0.93029,0.42539 1.39715,0.16632 l 2.39672,-1.3268 1.3358,2.71504 -1.70723,0.94599 -0.41914,-0.85079 c -0.23749,-0.48084 -0.79852,-0.66761 -1.25061,-0.41696 -0.11932,0.0661 -0.21912,0.15532 -0.29892,0.26148 -0.21912,0.29541 -0.26915,0.70977 -0.0942,1.06528 l 0.41913,0.85078 -2.60003,1.44007 c -0.0353,0.0168 -0.0718,0.0384 -0.10661,0.0576 l -6.19403,3.42846 -2.11274,-0.48685 c -0.008,-0.001 -0.0126,-0.001 -0.016,-0.004 -0.0593,-0.0149 -0.12159,-0.001 -0.17826,0.028 -0.12616,0.07 -0.1805,0.22788 -0.13046,0.36516 l 2.3172,4.70824 c 0.008,0.008 0.0126,0.0168 0.019,0.0244 l 0.003,0.004 0.0342,0.0349 c 0.0817,0.072 0.19981,0.088 0.30208,0.0316 0.0567,-0.0316 0.0988,-0.0808 0.12388,-0.13963 0.003,-0.004 0.003,-0.0115 0.008,-0.0168 l 0.84851,-2.1571 2.47849,-1.37377 c 0.01,0.74713 0.17954,1.50273 0.52705,2.21013 1.1893,2.41617 4.0006,3.35254 6.2792,2.0908 0.0353,-0.0168 0.0714,-0.04 0.10585,-0.0603 l 2.60004,-1.44007 0.48616,0.98819 c 0.23621,0.4808 0.79853,0.66761 1.25062,0.41696 0.45321,-0.25064 0.6304,-0.84598 0.39302,-1.32681 l -0.4862,-0.98697 1.70725,-0.94598 1.41759,2.88134 c 0.33056,0.67124 1.1086,0.93032 1.74131,0.57964 0.17733,-0.0976 0.32371,-0.23242 0.43391,-0.39046 0.28974,-0.4085 0.34988,-0.97247 0.11247,-1.45572 l -1.41758,-2.88163 1.54707,-0.85683 0.48618,0.98697 c 0.23622,0.48083 0.7974,0.66882 1.25058,0.41694 0.45436,-0.25166 0.62932,-0.84715 0.39303,-1.32676 l -0.48613,-0.98819 3.58711,-1.98716 c 0.24762,-0.14113 0.47822,-0.30137 0.69177,-0.48082 1.72087,-1.4413 2.28879,-4.02018 1.2381,-6.15556 -0.34754,-0.70622 -0.83486,-1.28585 -1.40621,-1.72329 l 1.69131,-0.93634 6.95729,1.59912 c 0.0126,0.004 0.0254,0.008 0.0376,0.008 0.1282,0.0244 0.26471,0.008 0.38736,-0.0603 0.27261,-0.14952 0.38961,-0.49286 0.28181,-0.79295 z m -26.14128,14.48148 c -0.0159,0.0115 -0.0316,0.0168 -0.0479,0.028 -1.02456,0.56746 -2.28654,0.14711 -2.82038,-0.94013 -0.53386,-1.08577 -0.13862,-2.42461 0.8837,-2.99099 l 2.70909,-1.50048 1.93443,3.93097 z m 4.30158,-2.38243 -1.93439,-3.93099 0.11374,-0.0616 1.59476,-0.88334 1.93445,3.931 -0.36348,0.20127 z m 3.99607,-2.21254 -1.93442,-3.93099 1.54706,-0.85682 1.93444,3.93098 z m 6.41661,-3.55864 c -0.022,0.0149 -0.0453,0.0316 -0.0695,0.0424 l -3.15775,1.74977 -1.93445,-3.93099 2.3547,-1.30509 0.75422,-0.417 c 0.0399,-0.0211 0.0809,-0.042 0.1216,-0.0627 0.99958,-0.47239 2.18544,-0.042 2.69889,1.00142 0.45317,0.9183 0.23841,2.01853 -0.45779,2.67891 -0.093,0.0904 -0.19664,0.17211 -0.31,0.24326 z"
         id="path4-7" />
    </g>
    <g
       inkscape:groupmode="layer"
       id="layer6"
       inkscape:label="Symbols"
       style="display:inline">
      <path
         inkscape:connector-curvature="0"
         style="fill:#ffffff;stroke-width:2.31168652"
         d="m 445.47303,64.139396 -3.58047,-6.94945 c -0.004,-0.0081 -0.0119,-0.01551 -0.0158,-0.0228 -0.0251,-0.03188 -0.0533,-0.06052 -0.0848,-0.08341 -0.12764,-0.09401 -0.30109,-0.11367 -0.45121,-0.03434 -0.088,0.04663 -0.15255,0.120207 -0.19059,0.205248 -0.007,0.0075 -0.01,0.01639 -0.0119,0.02534 l -1.93525,4.703286 -3.84039,2.031114 c -0.0251,0.01299 -0.0508,0.02698 -0.0751,0.04086 l -1.30595,0.690937 -1.13805,0.601811 -0.29785,-0.577282 c -0.16875,-0.32707 -0.56582,-0.453811 -0.88866,-0.282914 -0.32205,0.170074 -0.44796,0.573193 -0.27927,0.900263 l 0.29784,0.577281 -1.09933,0.581368 -0.94921,-1.842229 1.70388,-0.901082 c 0.43747,-0.232227 0.60697,-0.779246 0.37854,-1.22243 -0.0362,-0.07196 -0.0824,-0.136563 -0.13477,-0.192969 l -0.0774,-0.07605 c -0.26959,-0.233036 -0.66187,-0.290275 -0.9944,-0.114482 l -5.03173,2.660726 c -0.43826,0.232229 -0.60777,0.779248 -0.37934,1.22325 0.0362,0.0695 0.0791,0.132446 0.12986,0.188074 0.0258,0.03026 0.055,0.05805 0.0848,0.08257 0.2696,0.231397 0.66106,0.288641 0.99279,0.112834 l 1.70306,-0.900264 0.94921,1.842227 -1.21314,0.641882 -0.29784,-0.577281 c -0.16875,-0.326257 -0.56743,-0.452998 -0.88865,-0.28292 -0.0848,0.04496 -0.15571,0.105463 -0.21219,0.177436 -0.15571,0.200332 -0.19126,0.481616 -0.0671,0.72283 l 0.29783,0.57728 -1.84754,0.97713 c -0.0251,0.01228 -0.0509,0.02617 -0.0758,0.03925 l -4.40135,2.326297 -1.50127,-0.33034 c -0.004,-0.0015 -0.01,-0.0015 -0.0119,-0.0026 -0.042,-0.0083 -0.0864,-0.0015 -0.1267,0.019 -0.0895,0.04742 -0.12828,0.154567 -0.093,0.247755 l 1.64657,3.194671 c 0.004,0.0056 0.01,0.01204 0.0134,0.01734 l 0.002,0.0026 0.0244,0.0228 c 0.0581,0.04903 0.14198,0.05966 0.21466,0.02209 0.0403,-0.02209 0.0702,-0.05477 0.088,-0.09482 9.6e-4,-0.0033 0.002,-0.0065 0.004,-0.01076 l 0.60293,-1.463646 1.76119,-0.932152 c 0.007,0.506958 0.12762,1.019646 0.37448,1.499625 0.84509,1.639445 2.84278,2.274777 4.4619,1.418669 0.0251,-0.01314 0.0509,-0.02698 0.0752,-0.0409 l 1.84755,-0.977125 0.34545,0.670496 c 0.16784,0.32625 0.56742,0.452991 0.88867,0.282914 0.32204,-0.170073 0.44795,-0.574009 0.27927,-0.900263 l -0.34545,-0.669682 1.21312,-0.641875 1.00733,1.955069 c 0.23485,0.455447 0.78776,0.631246 1.23732,0.393301 0.12605,-0.06624 0.23004,-0.157795 0.30833,-0.264925 0.20588,-0.277198 0.2486,-0.659866 0.0799,-0.987761 l -1.00732,-1.955262 1.09935,-0.581371 0.34544,0.669683 c 0.16786,0.326254 0.56662,0.453811 0.88867,0.282915 0.32286,-0.170882 0.44715,-0.574828 0.27927,-0.900264 l -0.34547,-0.6705 2.54896,-1.348348 c 0.17595,-0.09567 0.33979,-0.204417 0.49155,-0.326254 1.2228,-0.977946 1.62638,-2.727776 0.87979,-4.176704 -0.247,-0.47916 -0.59324,-0.872462 -0.99925,-1.16928 l 1.20185,-0.635337 4.94374,1.08506 c 0.01,0.0026 0.018,0.0047 0.0266,0.0057 0.0911,0.0171 0.18811,0.0057 0.27523,-0.0409 0.19373,-0.101384 0.27685,-0.334428 0.20025,-0.538032 z m -18.57555,9.826047 c -0.0119,0.0072 -0.0225,0.01204 -0.034,0.019 -0.72802,0.385028 -1.62476,0.09966 -2.00412,-0.63789 -0.37936,-0.73673 -0.0985,-1.645167 0.62795,-2.029476 l 1.92503,-1.01811 1.37456,2.667266 z m 3.05665,-1.616551 -1.37457,-2.667269 0.0808,-0.04171 1.13322,-0.599358 1.37456,2.667267 -0.25829,0.136563 z m 2.83953,-1.50126 -1.37457,-2.667266 1.09932,-0.58137 1.37457,2.667268 z m 4.55953,-2.414601 c -0.0158,0.01064 -0.0322,0.02041 -0.0493,0.02861 l -2.24384,1.187267 -1.37457,-2.667269 1.67322,-0.885545 0.53593,-0.282918 c 0.0282,-0.01471 0.0575,-0.02861 0.0864,-0.04251 0.71029,-0.320531 1.55296,-0.02861 1.91778,0.67949 0.32204,0.623073 0.16943,1.369613 -0.32529,1.817702 -0.0661,0.06132 -0.13972,0.116912 -0.22027,0.16518 z"
         id="path4-5" />
      <path
         inkscape:connector-curvature="0"
         style="fill:#ffffff;stroke-width:1.16369236"
         d="m 430.48778,146.75782 -1.72396,-3.65748 c -0.003,-0.004 -0.006,-0.009 -0.008,-0.0125 -0.0126,-0.0168 -0.0256,-0.0319 -0.0408,-0.0439 -0.0615,-0.0495 -0.14497,-0.0597 -0.21725,-0.0181 -0.0424,0.0245 -0.0734,0.0632 -0.0917,0.10799 -0.003,0.004 -0.005,0.009 -0.006,0.0134 l -0.93181,2.47533 -1.84911,1.06896 c -0.0126,0.007 -0.0244,0.0143 -0.0361,0.0215 l -0.62881,0.36364 -0.54796,0.31673 -0.14341,-0.30382 c -0.0812,-0.17214 -0.27241,-0.23884 -0.42787,-0.14889 -0.15507,0.0895 -0.21569,0.30166 -0.13448,0.4738 l 0.14341,0.30382 -0.52932,0.30598 -0.45702,-0.96957 0.82038,-0.47423 c 0.21065,-0.12225 0.29227,-0.41013 0.18227,-0.64337 -0.0174,-0.0379 -0.0396,-0.0719 -0.0649,-0.10162 l -0.0372,-0.04 c -0.12979,-0.12262 -0.31868,-0.15277 -0.47878,-0.0603 l -2.42273,1.40034 c -0.21102,0.12225 -0.29264,0.41012 -0.18266,0.6438 0.0175,0.0366 0.038,0.0697 0.0626,0.099 0.0126,0.0159 0.0264,0.0306 0.0407,0.0435 0.12981,0.12175 0.31829,0.15192 0.47802,0.0594 l 0.82001,-0.4738 0.45704,0.96955 -0.58412,0.33783 -0.14341,-0.30383 c -0.0813,-0.17171 -0.27321,-0.2384 -0.42788,-0.1489 -0.0408,0.0236 -0.0749,0.0555 -0.10211,0.0934 -0.0749,0.10549 -0.092,0.25346 -0.0322,0.38042 l 0.1434,0.30382 -0.88956,0.51426 c -0.0127,0.006 -0.0244,0.0137 -0.0366,0.0206 l -2.11919,1.22432 -0.72285,-0.17385 c -0.003,-8.7e-4 -0.005,-8.7e-4 -0.006,-0.001 -0.0202,-0.005 -0.0416,-8.7e-4 -0.061,0.01 -0.0431,0.025 -0.0618,0.0814 -0.0446,0.13039 l 0.79279,1.68135 c 0.003,0.002 0.005,0.006 0.006,0.009 l 8.6e-4,0.001 0.0113,0.0125 c 0.0278,0.0259 0.0683,0.0314 0.10325,0.0112 0.0194,-0.0112 0.0338,-0.0289 0.0424,-0.0499 7.7e-4,-0.001 8.6e-4,-0.004 0.003,-0.005 l 0.29032,-0.77031 0.84799,-0.49058 c 0.003,0.2668 0.0614,0.53663 0.18032,0.78924 0.40689,0.86284 1.36875,1.19722 2.14834,0.74664 0.0126,-0.006 0.0244,-0.0143 0.0362,-0.0215 l 0.88958,-0.51425 0.16633,0.35287 c 0.0808,0.17171 0.2732,0.23842 0.42788,0.14891 0.15506,-0.0895 0.21568,-0.3021 0.13447,-0.47381 l -0.16633,-0.35245 0.5841,-0.33783 0.48502,1.02896 c 0.11309,0.2397 0.3793,0.33222 0.59575,0.20699 0.0607,-0.0349 0.11069,-0.083 0.14847,-0.13943 0.0992,-0.14589 0.11964,-0.34728 0.0385,-0.51985 l -0.48499,-1.02905 0.52931,-0.30598 0.16633,0.35245 c 0.0808,0.17171 0.27282,0.23884 0.42788,0.1489 0.15545,-0.09 0.2153,-0.30253 0.13448,-0.4738 l -0.16634,-0.35289 1.22728,-0.70964 c 0.0848,-0.0504 0.16362,-0.10762 0.23668,-0.17169 0.58877,-0.5147 0.78309,-1.43563 0.42361,-2.1982 -0.11888,-0.25219 -0.28564,-0.45918 -0.48112,-0.61539 l 0.57867,-0.33437 2.38035,0.57105 c 0.005,10e-4 0.009,0.002 0.0127,0.002 0.0439,0.009 0.0905,0.002 0.13251,-0.0215 0.0933,-0.0534 0.1333,-0.176 0.0964,-0.28316 z m -8.94393,5.17144 c -0.006,0.004 -0.0101,0.006 -0.0163,0.01 -0.35054,0.20264 -0.7823,0.0525 -0.96496,-0.33573 -0.18266,-0.38774 -0.0474,-0.86585 0.30235,-1.0681 l 0.92687,-0.53584 0.66185,1.40378 z m 1.47173,-0.85079 -0.66183,-1.40378 0.039,-0.022 0.54562,-0.31544 0.66185,1.40378 -0.12443,0.0719 z m 1.3672,-0.79011 -0.66183,-1.40378 0.52932,-0.30598 0.66183,1.40378 z m 2.19538,-1.27081 c -0.008,0.005 -0.0155,0.0112 -0.0238,0.015 l -1.08039,0.62487 -0.66184,-1.40378 0.80564,-0.46606 0.25805,-0.14891 c 0.0136,-0.007 0.0276,-0.0151 0.0416,-0.0224 0.342,-0.1687 0.74773,-0.0151 0.92339,0.35761 0.15507,0.32793 0.0816,0.72083 -0.15662,0.95666 -0.0318,0.0323 -0.0672,0.0615 -0.10602,0.0869 z"
         id="path4-35" />
      <path
         inkscape:connector-curvature="0"
         style="fill:#ffffff;stroke-width:1.66463554"
         d="m 437.48067,110.26095 -2.51972,-5.12061 c -0.002,-0.006 -0.008,-0.012 -0.0108,-0.0175 -0.0175,-0.0234 -0.0376,-0.0447 -0.0597,-0.0614 -0.0898,-0.0694 -0.21188,-0.0836 -0.31752,-0.0254 -0.0619,0.0343 -0.10743,0.0886 -0.1342,0.1512 -0.002,0.006 -0.007,0.012 -0.008,0.0189 l -1.36192,3.46556 -2.70261,1.49659 c -0.0175,0.0113 -0.0358,0.02 -0.0529,0.0301 l -0.91906,0.5091 -0.8009,0.44342 -0.2096,-0.42535 c -0.11875,-0.24102 -0.39817,-0.3344 -0.6254,-0.20845 -0.22663,0.12527 -0.31523,0.42234 -0.19651,0.66332 l 0.20959,0.42537 -0.77363,0.42839 -0.66798,-1.35744 1.19907,-0.66395 c 0.30787,-0.17115 0.42715,-0.57415 0.26639,-0.90073 -0.0253,-0.053 -0.058,-0.10062 -0.0948,-0.1421 l -0.0545,-0.0559 c -0.18972,-0.17167 -0.46576,-0.21388 -0.6998,-0.0845 l -3.541,1.96051 c -0.30842,0.17116 -0.4277,0.57419 -0.26698,0.90136 0.0254,0.0511 0.0557,0.0976 0.0914,0.13858 0.0183,0.0223 0.0386,0.0428 0.0597,0.0609 0.18972,0.17045 0.46523,0.2127 0.69866,0.0833 l 1.19851,-0.66336 0.66798,1.35743 -0.85372,0.47295 -0.20959,-0.42536 c -0.11874,-0.2404 -0.39932,-0.33378 -0.62539,-0.20846 -0.0598,0.033 -0.10957,0.0777 -0.14948,0.13077 -0.10957,0.1477 -0.1346,0.35486 -0.0471,0.53261 l 0.2096,0.42535 -1.30018,0.71999 c -0.0175,0.009 -0.0358,0.0191 -0.0533,0.0288 l -3.09738,1.71408 -1.05651,-0.24339 c -0.002,-8.8e-4 -0.007,-8.8e-4 -0.008,-8.8e-4 -0.0296,-0.006 -0.0608,-8.8e-4 -0.0892,0.014 -0.0629,0.035 -0.0902,0.11389 -0.0652,0.18256 l 1.15876,2.35396 c 0.002,0.005 0.007,0.009 0.01,0.012 l 10e-4,8.7e-4 0.0172,0.0175 c 0.0408,0.0362 0.1,0.044 0.15107,0.0157 0.0284,-0.0157 0.0495,-0.0404 0.0619,-0.0698 10e-4,-8.8e-4 10e-4,-0.006 0.002,-0.007 l 0.42432,-1.07846 1.23939,-0.68685 c 0.003,0.37353 0.0898,0.75131 0.26357,1.10497 0.59471,1.20801 2.00053,1.67616 3.13998,1.04534 0.0175,-0.009 0.0358,-0.02 0.053,-0.0301 l 1.30018,-0.71997 0.24311,0.49403 c 0.11815,0.24038 0.39932,0.33378 0.62538,0.20846 0.22664,-0.12527 0.31525,-0.42293 0.19654,-0.66334 l -0.24312,-0.49343 0.85373,-0.47299 0.70887,1.44058 c 0.16528,0.33559 0.55439,0.46514 0.87077,0.2898 0.0887,-0.0488 0.16189,-0.11617 0.21698,-0.19522 0.14488,-0.20423 0.17494,-0.48618 0.0563,-0.7278 l -0.70888,-1.44072 0.77363,-0.42838 0.24311,0.49345 c 0.11815,0.24041 0.39875,0.33441 0.62539,0.20847 0.22719,-0.12582 0.31468,-0.42356 0.19652,-0.66333 l -0.2431,-0.49406 1.79378,-0.99352 c 0.12383,-0.0706 0.23915,-0.15066 0.34592,-0.24038 0.86054,-0.7206 1.14454,-2.00993 0.61913,-3.07755 -0.1738,-0.35307 -0.41748,-0.64288 -0.70318,-0.86158 l 0.84576,-0.46814 3.47909,0.79952 c 0.007,8.6e-4 0.0123,0.005 0.0186,0.005 0.0642,0.012 0.13239,0.005 0.19371,-0.0301 0.13639,-0.0748 0.19481,-0.24641 0.14092,-0.39644 z m -13.07229,7.24019 c -0.008,0.006 -0.0158,0.009 -0.024,0.014 -0.51233,0.28369 -1.14341,0.0734 -1.41037,-0.47004 -0.26696,-0.54285 -0.0693,-1.2122 0.44192,-1.49536 l 1.35472,-0.7502 0.96732,1.96534 z m 2.15106,-1.19113 -0.96731,-1.96534 0.0568,-0.0309 0.7975,-0.4416 0.96732,1.96533 -0.18175,0.10064 z m 1.99828,-1.10618 -0.96733,-1.96534 0.77364,-0.42838 0.96733,1.96535 z m 3.20871,-1.77917 c -0.0108,0.007 -0.0227,0.0157 -0.0347,0.0212 l -1.57907,0.87481 -0.96731,-1.96533 1.17747,-0.6525 0.37716,-0.20849 c 0.0199,-0.0113 0.0403,-0.0212 0.0608,-0.0315 0.49986,-0.23617 1.09285,-0.0212 1.34962,0.50067 0.22661,0.4591 0.11926,1.00918 -0.22893,1.33936 -0.0466,0.0453 -0.0984,0.0862 -0.15502,0.12166 z"
         id="path4-62" />
    </g>
    <g
       inkscape:groupmode="layer"
       id="layer5"
       inkscape:label="Highlights"
       style="display:inline"
       sodipodi:insensitive="true">
      <path
         style="opacity:0.12999998;color:#bebebe;fill:#ffffff;fill-opacity:1;fill-rule:nonzero;stroke:none;stroke-width:0;marker:none;visibility:visible;display:inline;overflow:visible;enable-background:accumulate"
         d="M 84,47 C 56.836703,47 35,68.836703 35,96 l 0,1 C 35,69.836703 56.836703,48 84,48 l 120,0 c 27.1633,0 49,21.836703 49,49 l 0,-1 C 253,68.836703 231.1633,47 204,47 L 84,47 z"
         id="rect3894"
         inkscape:connector-curvature="0" />
      <path
         style="opacity:0.12999998;color:#bebebe;fill:#ffffff;fill-opacity:1;fill-rule:nonzero;stroke:none;stroke-width:0;marker:none;visibility:visible;display:inline;overflow:visible;enable-background:accumulate"
         d="m 419,141 c -1.1253,0 -2,0.8747 -2,2 l 0,1 c 0,-1.1253 0.8747,-2 2,-2 l 10,0 c 1.1253,0 2,0.8747 2,2 l 0,-1 c 0,-1.1253 -0.8747,-2 -2,-2 l -10,0 z"
         id="rect3896"
         inkscape:connector-curvature="0" />
      <path
         style="opacity:0.12999998;color:#bebebe;fill:#ffffff;fill-opacity:1;fill-rule:nonzero;stroke:none;stroke-width:0;marker:none;visibility:visible;display:inline;overflow:visible;enable-background:accumulate"
         d="m 422,102 c -2.2333,0 -4,1.7667 -4,4 l 0,1 c 0,-2.2333 1.7667,-4 4,-4 l 12,0 c 2.2333,0 4,1.7667 4,4 l 0,-1 c 0,-2.2333 -1.7667,-4 -4,-4 l -12,0 z"
         id="rect3898"
         inkscape:connector-curvature="0" />
      <path
         style="opacity:0.12999998;color:#bebebe;fill:#ffffff;fill-opacity:1;fill-rule:nonzero;stroke:none;stroke-width:0;marker:none;visibility:visible;display:inline;overflow:visible;enable-background:accumulate"
         d="m 424,54 c -3.3413,0 -6,2.658703 -6,6 l 0,1 c 0,-3.341297 2.6587,-6 6,-6 l 16,0 c 3.3413,0 6,2.658703 6,6 l 0,-1 c 0,-3.341297 -2.6587,-6 -6,-6 l -16,0 z"
         id="rect3900"
         inkscape:connector-curvature="0" />
      <path
         style="opacity:0.12999998;color:#bebebe;fill:#ffffff;fill-opacity:1;fill-rule:nonzero;stroke:none;stroke-width:0;marker:none;visibility:visible;display:inline;overflow:visible;enable-background:accumulate"
         d="m 300,224 c -4.4493,0 -8,3.5507 -8,8 l 0,1 c 0,-4.4493 3.5507,-8 8,-8 l 24,0 c 4.4493,0 8,3.5507 8,8 l 0,-1 c 0,-4.4493 -3.5507,-8 -8,-8 l -24,0 z"
         id="rect3902"
         inkscape:connector-curvature="0" />
      <path
         style="opacity:0.12999998;color:#bebebe;fill:#ffffff;fill-opacity:1;fill-rule:nonzero;stroke:none;stroke-width:0;marker:none;visibility:visible;display:inline;overflow:visible;enable-background:accumulate"
         d="m 310,33 c -9.4353,0 -17,7.564703 -17,17 l 0,1 c 0,-9.435297 7.5647,-17 17,-17 l 52,0 c 9.4353,0 17,7.564703 17,17 l 0,-1 c 0,-9.435297 -7.5647,-17 -17,-17 l -52,0 z"
         id="rect3904"
         inkscape:connector-curvature="0" />
      <path
         style="opacity:0.12999998;color:#bebebe;fill:#ffffff;fill-opacity:1;fill-rule:nonzero;stroke:none;stroke-width:0;marker:none;visibility:visible;display:inline;overflow:visible;enable-background:accumulate"
         d="m 302.5,143 c -6.3883,0 -11.5,5.1117 -11.5,11.5 l 0,1 c 0,-6.3883 5.1117,-11.5 11.5,-11.5 l 35,0 c 6.3883,0 11.5,5.1117 11.5,11.5 l 0,-1 c 0,-6.3883 -5.1117,-11.5 -11.5,-11.5 l -35,0 z"
         id="rect3906"
         inkscape:connector-curvature="0" />
      <path
         id="path4085"
         d="m 204,266 c 27.1633,0 49,-21.8367 49,-49 l 0,-1 c 0,27.1633 -21.8367,49 -49,49 L 84,265 C 56.8367,265 35,243.1633 35,216 l 0,1 c 0,27.1633 21.8367,49 49,49 l 120,0 z"
         style="opacity:0.41;color:#bebebe;fill:#000000;fill-opacity:1;fill-rule:nonzero;stroke:none;stroke-width:0;marker:none;visibility:visible;display:inline;overflow:visible;enable-background:accumulate"
         inkscape:connector-curvature="0" />
      <path
         id="path4087"
         d="m 429,156 c 1.1253,0 2,-0.8747 2,-2 l 0,-1 c 0,1.1253 -0.8747,2 -2,2 l -10,0 c -1.1253,0 -2,-0.8747 -2,-2 l 0,1 c 0,1.1253 0.8747,2 2,2 l 10,0 z"
         style="opacity:0.3;color:#bebebe;fill:#000000;fill-opacity:1;fill-rule:nonzero;stroke:none;stroke-width:0;marker:none;visibility:visible;display:inline;overflow:visible;enable-background:accumulate"
         inkscape:connector-curvature="0" />
      <path
         id="path4089"
         d="m 434,123 c 2.2333,0 4,-1.7667 4,-4 l 0,-1 c 0,2.2333 -1.7667,4 -4,4 l -12,0 c -2.2333,0 -4,-1.7667 -4,-4 l 0,1 c 0,2.2333 1.7667,4 4,4 l 12,0 z"
         style="opacity:0.3;color:#bebebe;fill:#000000;fill-opacity:1;fill-rule:nonzero;stroke:none;stroke-width:0;marker:none;visibility:visible;display:inline;overflow:visible;enable-background:accumulate"
         inkscape:connector-curvature="0" />
      <path
         id="path4091"
         d="m 440,83 c 3.3413,0 6,-2.6587 6,-6 l 0,-1 c 0,3.3413 -2.6587,6 -6,6 l -16,0 c -3.3413,0 -6,-2.6587 -6,-6 l 0,1 c 0,3.3413 2.6587,6 6,6 l 16,0 z"
         style="opacity:0.41;color:#bebebe;fill:#000000;fill-opacity:1;fill-rule:nonzero;stroke:none;stroke-width:0;marker:none;visibility:visible;display:inline;overflow:visible;enable-background:accumulate"
         inkscape:connector-curvature="0" />
      <path
         id="path4093"
         d="m 324,265 c 4.4493,0 8,-3.5507 8,-8 l 0,-1 c 0,4.4493 -3.5507,8 -8,8 l -24,0 c -4.4493,0 -8,-3.5507 -8,-8 l 0,1 c 0,4.4493 3.5507,8 8,8 l 24,0 z"
         style="opacity:0.41;color:#bebebe;fill:#000000;fill-opacity:1;fill-rule:nonzero;stroke:none;stroke-width:0;marker:none;visibility:visible;display:inline;overflow:visible;enable-background:accumulate"
         inkscape:connector-curvature="0" />
      <path
         id="path4095"
         d="m 362,120 c 9.4353,0 17,-7.5647 17,-17 l 0,-1 c 0,9.4353 -7.5647,17 -17,17 l -52,0 c -9.4353,0 -17,-7.5647 -17,-17 l 0,1 c 0,9.4353 7.5647,17 17,17 l 52,0 z"
         style="opacity:0.41;color:#bebebe;fill:#000000;fill-opacity:1;fill-rule:nonzero;stroke:none;stroke-width:0;marker:none;visibility:visible;display:inline;overflow:visible;enable-background:accumulate"
         inkscape:connector-curvature="0" />
      <path
         id="path4097"
         d="m 337.5,202 c 6.3883,0 11.5,-5.1117 11.5,-11.5 l 0,-1 c 0,6.3883 -5.1117,11.5 -11.5,11.5 l -35,0 c -6.3883,0 -11.5,-5.1117 -11.5,-11.5 l 0,1 c 0,6.3883 5.1117,11.5 11.5,11.5 l 35,0 z"
         style="opacity:0.41;color:#bebebe;fill:#000000;fill-opacity:1;fill-rule:nonzero;stroke:none;stroke-width:0;marker:none;visibility:visible;display:inline;overflow:visible;enable-background:accumulate"
         inkscape:connector-curvature="0" />
      <path
         inkscape:connector-curvature="0"
         id="path4280"
         d="M 84,265 C 56.836703,265 35,243.1633 35,216 l 0,-1 c 0,27.1633 21.836703,49 49,49 l 120,0 c 27.1633,0 49,-21.8367 49,-49 l 0,1 c 0,27.1633 -21.8367,49 -49,49 l -120,0 z"
         style="opacity:0.1;color:#bebebe;fill:#ffffff;fill-opacity:1;fill-rule:nonzero;stroke:none;stroke-width:0;marker:none;visibility:visible;display:inline;overflow:visible;enable-background:accumulate" />
      <path
         style="opacity:0.1;color:#bebebe;fill:#ffffff;fill-opacity:1;fill-rule:nonzero;stroke:none;stroke-width:0;marker:none;visibility:visible;display:inline;overflow:visible;enable-background:accumulate"
         d="m 300,264 c -4.4493,0 -8,-3.5507 -8,-8 l 0,-1 c 0,4.4493 3.5507,8 8,8 l 24,0 c 4.4493,0 8,-3.5507 8,-8 l 0,1 c 0,4.4493 -3.5507,8 -8,8 l -24,0 z"
         id="path4294"
         inkscape:connector-curvature="0" />
      <path
         style="opacity:0.1;color:#bebebe;fill:#ffffff;fill-opacity:1;fill-rule:nonzero;stroke:none;stroke-width:0;marker:none;visibility:visible;display:inline;overflow:visible;enable-background:accumulate"
         d="m 302.5,201 c -6.3883,0 -11.5,-5.1117 -11.5,-11.5 l 0,-1 c 0,6.3883 5.1117,11.5 11.5,11.5 l 35,0 c 6.3883,0 11.5,-5.1117 11.5,-11.5 l 0,1 c 0,6.3883 -5.1117,11.5 -11.5,11.5 l -35,0 z"
         id="path4296"
         inkscape:connector-curvature="0" />
      <path
         style="opacity:0.1;color:#bebebe;fill:#ffffff;fill-opacity:1;fill-rule:nonzero;stroke:none;stroke-width:0;marker:none;visibility:visible;display:inline;overflow:visible;enable-background:accumulate"
         d="m 310,119 c -9.4353,0 -17,-7.5647 -17,-17 l 0,-1 c 0,9.4353 7.5647,17 17,17 l 52,0 c 9.4353,0 17,-7.5647 17,-17 l 0,1 c 0,9.4353 -7.5647,17 -17,17 l -52,0 z"
         id="path4298"
         inkscape:connector-curvature="0" />
      <path
         style="opacity:0.1;color:#bebebe;fill:#ffffff;fill-opacity:1;fill-rule:nonzero;stroke:none;stroke-width:0;marker:none;visibility:visible;display:inline;overflow:visible;enable-background:accumulate"
         d="m 424,82 c -3.3413,0 -6,-2.658703 -6,-6 l 0,-1 c 0,3.341297 2.6587,6 6,6 l 16,0 c 3.3413,0 6,-2.658703 6,-6 l 0,1 c 0,3.341297 -2.6587,6 -6,6 l -16,0 z"
         id="path4300"
         inkscape:connector-curvature="0" />
      <path
         style="opacity:0.1;color:#bebebe;fill:#ffffff;fill-opacity:1;fill-rule:nonzero;stroke:none;stroke-width:0;marker:none;visibility:visible;display:inline;overflow:visible;enable-background:accumulate"
         d="m 422,122 c -2.2333,0 -4,-1.7667 -4,-4 l 0,-1 c 0,2.2333 1.7667,4 4,4 l 12,0 c 2.2333,0 4,-1.7667 4,-4 l 0,1 c 0,2.2333 -1.7667,4 -4,4 l -12,0 z"
         id="path4302"
         inkscape:connector-curvature="0" />
      <path
         style="opacity:0.1;color:#bebebe;fill:#ffffff;fill-opacity:1;fill-rule:nonzero;stroke:none;stroke-width:0;marker:none;visibility:visible;display:inline;overflow:visible;enable-background:accumulate"
         d="m 419,154.5 c -1.1253,0 -2,-0.8747 -2,-2 l 0,-1 c 0,1.1253 0.8747,2 2,2 l 10,0 c 1.1253,0 2,-0.8747 2,-2 l 0,1 c 0,1.1253 -0.8747,2 -2,2 l -10,0 z"
         id="path4304"
         inkscape:connector-curvature="0" />
    </g>
    <g
       inkscape:groupmode="layer"
       id="layer3"
       inkscape:label="Border"
       style="display:inline"
       sodipodi:insensitive="true">
      <path
         style="opacity:0.41;color:#bebebe;fill:#000000;fill-opacity:1;fill-rule:nonzero;stroke:none;stroke-width:0;marker:none;visibility:visible;display:inline;overflow:visible;enable-background:accumulate"
         d="m 422,101 c -2.77,0 -5,2.23 -5,5 l 0,12 c 0,2.77 2.23,5 5,5 l 12,0 c 2.77,0 5,-2.23 5,-5 l 0,-12 c 0,-2.77 -2.23,-5 -5,-5 l -12,0 z m 0,1 12,0 c 2.2333,0 4,1.7667 4,4 l 0,12 c 0,2.2333 -1.7667,4 -4,4 l -12,0 c -2.2333,0 -4,-1.7667 -4,-4 l 0,-12 c 0,-2.2333 1.7667,-4 4,-4 z"
         id="rect4099"
         inkscape:connector-curvature="0" />
      <path
         style="opacity:0.41;color:#bebebe;fill:#000000;fill-opacity:1;fill-rule:nonzero;stroke:none;stroke-width:0;marker:none;visibility:visible;display:inline;overflow:visible;enable-background:accumulate"
         d="m 424,53 c -3.878,0 -7,3.122 -7,7 l 0,16 c 0,3.878 3.122,7 7,7 l 16,0 c 3.878,0 7,-3.122 7,-7 l 0,-16 c 0,-3.878 -3.122,-7 -7,-7 l -16,0 z m 0,1 16,0 c 3.3413,0 6,2.658703 6,6 l 0,16 c 0,3.341297 -2.6587,6 -6,6 l -16,0 c -3.3413,0 -6,-2.658703 -6,-6 l 0,-16 c 0,-3.341297 2.6587,-6 6,-6 z"
         id="rect4151"
         inkscape:connector-curvature="0" />
      <path
         style="opacity:0.41;color:#bebebe;fill:#000000;fill-opacity:1;fill-rule:nonzero;stroke:none;stroke-width:0;marker:none;visibility:visible;display:inline;overflow:visible;enable-background:accumulate"
         d="m 419,140 c -1.662,0 -3,1.338 -3,3 l 0,10 c 0,1.662 1.338,3 3,3 l 10,0 c 1.662,0 3,-1.338 3,-3 l 0,-10 c 0,-1.662 -1.338,-3 -3,-3 l -10,0 z m 0,1 10,0 c 1.1253,0 2,0.8747 2,2 l 0,10 c 0,1.1253 -0.8747,2 -2,2 l -10,0 c -1.1253,0 -2,-0.8747 -2,-2 l 0,-10 c 0,-1.1253 0.8747,-2 2,-2 z"
         id="rect4095"
         inkscape:connector-curvature="0" />
      <path
         style="opacity:0.41;color:#bebebe;fill:#000000;fill-opacity:1;fill-rule:nonzero;stroke:none;stroke-width:0;marker:none;visibility:visible;display:inline;overflow:visible;enable-background:accumulate"
         d="m 300,223 c -4.986,0 -9,4.014 -9,9 l 0,24 c 0,4.986 4.014,9 9,9 l 24,0 c 4.986,0 9,-4.014 9,-9 l 0,-24 c 0,-4.986 -4.014,-9 -9,-9 l -24,0 z m 0,1 24,0 c 4.4493,0 8,3.5507 8,8 l 0,24 c 0,4.4493 -3.5507,8 -8,8 l -24,0 c -4.4493,0 -8,-3.5507 -8,-8 l 0,-24 c 0,-4.4493 3.5507,-8 8,-8 z"
         id="rect4783"
         inkscape:connector-curvature="0" />
      <path
         style="opacity:0.41;color:#bebebe;fill:#000000;fill-opacity:1;fill-rule:nonzero;stroke:none;stroke-width:0;marker:none;visibility:visible;display:inline;overflow:visible;enable-background:accumulate"
         d="m 302.5,142 c -6.925,0 -12.5,5.575 -12.5,12.5 l 0,35 c 0,6.925 5.575,12.5 12.5,12.5 l 35,0 c 6.925,0 12.5,-5.575 12.5,-12.5 l 0,-35 c 0,-6.925 -5.575,-12.5 -12.5,-12.5 l -35,0 z m 0,1 35,0 c 6.3883,0 11.5,5.1117 11.5,11.5 l 0,35 c 0,6.3883 -5.1117,11.5 -11.5,11.5 l -35,0 c -6.3883,0 -11.5,-5.1117 -11.5,-11.5 l 0,-35 c 0,-6.3883 5.1117,-11.5 11.5,-11.5 z"
         id="rect4515"
         inkscape:connector-curvature="0" />
      <path
         style="opacity:0.41;color:#bebebe;fill:#000000;fill-opacity:1;fill-rule:nonzero;stroke:none;stroke-width:0;marker:none;visibility:visible;display:inline;overflow:visible;enable-background:accumulate"
         d="m 310,32 c -9.972,0 -18,8.028 -18,18 l 0,52 c 0,9.972 8.028,18 18,18 l 52,0 c 9.972,0 18,-8.028 18,-18 l 0,-52 c 0,-9.972 -8.028,-18 -18,-18 l -52,0 z m 0,1 52,0 c 9.4353,0 17,7.564703 17,17 l 0,52 c 0,9.4353 -7.5647,17 -17,17 l -52,0 c -9.4353,0 -17,-7.5647 -17,-17 l 0,-52 c 0,-9.435297 7.5647,-17 17,-17 z"
         id="rect4511"
         inkscape:connector-curvature="0" />
      <path
         style="opacity:0.41;color:#bebebe;fill:#000000;fill-opacity:1;fill-rule:nonzero;stroke:none;stroke-width:0;marker:none;visibility:visible;display:inline;overflow:visible;enable-background:accumulate"
         d="M 84,46 C 56.3,46 34,68.3 34,96 l 0,120 c 0,27.7 22.3,50 50,50 l 120,0 c 27.7,0 50,-22.3 50,-50 L 254,96 C 254,68.3 231.7,46 204,46 L 84,46 z m 0,1 120,0 c 27.1633,0 49,21.836703 49,49 l 0,120 c 0,27.1633 -21.8367,49 -49,49 L 84,265 C 56.836703,265 35,243.1633 35,216 L 35,96 C 35,68.836703 56.836703,47 84,47 z"
         id="rect4040"
         inkscape:connector-curvature="0" />
    </g>
  </g>
</svg>
