<?xml version="1.0" encoding="UTF-8" standalone="no"?>
<!-- Created with Inkscape (http://www.inkscape.org/) -->

<svg
   xmlns:dc="http://purl.org/dc/elements/1.1/"
   xmlns:cc="http://creativecommons.org/ns#"
   xmlns:rdf="http://www.w3.org/1999/02/22-rdf-syntax-ns#"
   xmlns:svg="http://www.w3.org/2000/svg"
   xmlns="http://www.w3.org/2000/svg"
   xmlns:xlink="http://www.w3.org/1999/xlink"
   xmlns:sodipodi="http://sodipodi.sourceforge.net/DTD/sodipodi-0.dtd"
   xmlns:inkscape="http://www.inkscape.org/namespaces/inkscape"
   inkscape:export-ydpi="90.000000"
   inkscape:export-xdpi="90.000000"
   width="480"
   height="300"
   id="svg11300"
   sodipodi:version="0.32"
   inkscape:version="0.92.4 5da689c313, 2019-01-14"
   sodipodi:docname="tootle.svg"
   inkscape:output_extension="org.inkscape.output.svg.inkscape"
   version="1.0"
   style="display:inline;enable-background:new"
   inkscape:export-filename="/home/sam/moka-next-template.png">
  <sodipodi:namedview
     stroke="#ef2929"
     fill="#f57900"
     id="base"
     pagecolor="#777777"
     bordercolor="#666666"
     borderopacity="0.25490196"
     inkscape:pageopacity="0"
     inkscape:pageshadow="2"
     inkscape:zoom="1"
     inkscape:cx="370.8883"
     inkscape:cy="56.132019"
     inkscape:current-layer="layer7"
     showgrid="false"
     inkscape:grid-bbox="true"
     inkscape:document-units="px"
     inkscape:showpageshadow="false"
     inkscape:window-width="1600"
     inkscape:window-height="841"
     inkscape:window-x="0"
     inkscape:window-y="0"
     width="400px"
     height="300px"
     inkscape:snap-nodes="true"
     inkscape:snap-bbox="true"
     gridtolerance="10000"
     inkscape:object-nodes="true"
     inkscape:snap-grids="true"
     showguides="true"
     inkscape:guide-bbox="true"
     inkscape:window-maximized="1"
     inkscape:bbox-nodes="true"
     inkscape:bbox-paths="true"
     inkscape:snap-bbox-edge-midpoints="true"
     inkscape:snap-bbox-midpoints="true">
    <inkscape:grid
       spacingy="1"
       spacingx="1"
       id="grid5883"
       type="xygrid"
       enabled="true"
       visible="true"
       empspacing="4"
       snapvisiblegridlinesonly="true"
       dotted="false"
       color="#000000"
       opacity="0.1254902"
       empcolor="#203ef3"
       empopacity="0.36470588"
       originx="0"
       originy="0" />
    <inkscape:grid
       type="xygrid"
       id="grid11592"
       empspacing="8"
       visible="true"
       enabled="false"
       spacingx="0.5"
       spacingy="0.5"
       color="#ff0000"
       opacity="0.1254902"
       empcolor="#ff0000"
       empopacity="0.25098039"
       snapvisiblegridlinesonly="true"
       dotted="true"
       originx="0"
       originy="0" />
  </sodipodi:namedview>
  <defs
     id="defs3">
    <linearGradient
       inkscape:collect="always"
       xlink:href="#outerBackgroundGradient-12"
       id="linearGradient4254"
       x1="35"
       y1="156"
       x2="253"
       y2="156"
       gradientUnits="userSpaceOnUse"
       gradientTransform="matrix(0,-1,1,0,-12,300)" />
    <linearGradient
       inkscape:collect="always"
       xlink:href="#outerBackgroundGradient-12"
       id="linearGradient4256"
       x1="417"
       y1="148"
       x2="431"
       y2="148"
       gradientUnits="userSpaceOnUse"
       gradientTransform="matrix(0,-1,1,0,276,572)" />
    <linearGradient
       inkscape:collect="always"
       xlink:href="#outerBackgroundGradient-12"
       id="linearGradient4260"
       x1="418"
       y1="68"
       x2="446"
       y2="68"
       gradientUnits="userSpaceOnUse"
       gradientTransform="matrix(0,-1,1,0,364,500)" />
    <linearGradient
       inkscape:collect="always"
       xlink:href="#outerBackgroundGradient-12"
       id="linearGradient4262"
       x1="292"
       y1="244"
       x2="332"
       y2="244"
       gradientUnits="userSpaceOnUse"
       gradientTransform="matrix(0,-1,1,0,68,556)" />
    <linearGradient
       inkscape:collect="always"
       xlink:href="#outerBackgroundGradient-12"
       id="linearGradient4264"
       x1="293"
       y1="76"
       x2="379"
       y2="76"
       gradientUnits="userSpaceOnUse"
       gradientTransform="matrix(0,-1,1,0,260,412)" />
    <linearGradient
       inkscape:collect="always"
       xlink:href="#outerBackgroundGradient-12"
       id="linearGradient4266"
       x1="291"
       y1="172"
       x2="349"
       y2="172"
       gradientUnits="userSpaceOnUse"
       gradientTransform="matrix(0,-1,1,0,148,492)" />
    <linearGradient
       inkscape:collect="always"
       xlink:href="#outerBackgroundGradient-12"
       id="linearGradient3870"
       gradientUnits="userSpaceOnUse"
       gradientTransform="matrix(0,-1,1,0,316,540)"
       x1="418"
       y1="112"
       x2="438"
       y2="112" />
    <linearGradient
       id="linearGradient3888">
      <stop
         style="stop-color:#f4a773;stop-opacity:1;"
         offset="0"
         id="stop3890" />
      <stop
         style="stop-color:#ffffff;stop-opacity:1;"
         offset="1"
         id="stop3892" />
    </linearGradient>
    <linearGradient
       id="outerBackgroundGradient-12">
      <stop
         style="stop-color:#2f7474;stop-opacity:1;"
         offset="0"
         id="stop3864-8-6-4" />
      <stop
         style="stop-color:#75b4b4;stop-opacity:1;"
         offset="1"
         id="stop3866-9-1-3" />
    </linearGradient>
  </defs>
  <metadata
     id="metadata4">
    <rdf:RDF>
      <cc:Work
         rdf:about="">
        <dc:format>image/svg+xml</dc:format>
        <dc:type
           rdf:resource="http://purl.org/dc/dcmitype/StillImage" />
        <dc:creator>
          <cc:Agent>
            <dc:title>Sam Hewitt</dc:title>
          </cc:Agent>
        </dc:creator>
        <dc:source />
        <cc:license
           rdf:resource="" />
        <dc:title></dc:title>
        <dc:subject>
          <rdf:Bag />
        </dc:subject>
        <dc:date />
        <dc:rights>
          <cc:Agent>
            <dc:title />
          </cc:Agent>
        </dc:rights>
        <dc:publisher>
          <cc:Agent>
            <dc:title />
          </cc:Agent>
        </dc:publisher>
        <dc:identifier />
        <dc:relation />
        <dc:language />
        <dc:coverage />
        <dc:description />
        <dc:contributor>
          <cc:Agent>
            <dc:title />
          </cc:Agent>
        </dc:contributor>
      </cc:Work>
      <cc:Work
         rdf:about="">
        <dc:format>image/svg+xml</dc:format>
        <dc:type
           rdf:resource="http://purl.org/dc/dcmitype/StillImage" />
      </cc:Work>
    </rdf:RDF>
  </metadata>
  <g
     style="display:inline"
     inkscape:groupmode="layer"
     inkscape:label="Icon"
     id="layer1">
    <g
       style="display:none"
       inkscape:label="Baseplate"
       id="layer7"
       inkscape:groupmode="layer">
      <text
         y="19.745117"
         xml:space="preserve"
         x="15.006836"
         style="font-style:normal;font-variant:normal;font-weight:normal;font-stretch:normal;line-height:0%;font-family:'DejaVu Sans';-inkscape-font-specification:'DejaVu Sans';display:inline;fill:#000000;fill-opacity:1;stroke:none;enable-background:new"
         inkscape:label="context"
         id="context"><tspan
           style="font-style:normal;font-variant:normal;font-weight:normal;font-stretch:normal;font-size:18px;line-height:1.25;font-family:'DejaVu Sans';-inkscape-font-specification:'DejaVu Sans'"
           y="19.745117"
           x="15.006836"
           sodipodi:role="line"
           id="tspan3933">apps</tspan></text>
      <text
         y="19.745117"
         xml:space="preserve"
         x="122.48828"
         style="font-style:normal;font-variant:normal;font-weight:bold;font-stretch:normal;line-height:0%;font-family:'DejaVu Sans';-inkscape-font-specification:'DejaVu Sans Bold';text-align:start;writing-mode:lr-tb;text-anchor:start;display:inline;fill:#000000;fill-opacity:1;stroke:none;enable-background:new"
         inkscape:label="icon-name"
         id="icon-name"><tspan
           style="font-style:normal;font-variant:normal;font-weight:bold;font-stretch:normal;font-size:18px;line-height:1.25;font-family:'DejaVu Sans';-inkscape-font-specification:'DejaVu Sans Bold'"
           y="19.745117"
           x="122.48828"
           sodipodi:role="line"
           id="tspan3937">tootle</tspan></text>
      <rect
         style="fill:#eeeeec;fill-opacity:1;fill-rule:nonzero;stroke:none;stroke-width:2;marker:none;visibility:visible;display:inline;overflow:visible;enable-background:accumulate"
         id="rect16x16"
         width="16"
         height="16"
         x="416"
         y="140"
         inkscape:label="16x16" />
      <rect
         style="fill:#d4d4d4;fill-opacity:1;fill-rule:nonzero;stroke:none;stroke-width:2;marker:none;visibility:visible;display:inline;overflow:visible;enable-background:accumulate"
         id="rect24x24"
         width="24"
         height="24"
         x="416"
         y="100"
         inkscape:label="24x24" />
      <rect
         style="fill:#eeeeec;fill-opacity:1;fill-rule:nonzero;stroke:none;stroke-width:2;marker:none;visibility:visible;display:inline;overflow:visible;enable-background:accumulate"
         id="rect32x32"
         width="32"
         height="32"
         x="416"
         y="52"
         inkscape:label="32x32" />
      <rect
         inkscape:label="22x22"
         y="101"
         x="417"
         height="22"
         width="22"
         id="rect22x22"
         style="fill:#eeeeec;fill-opacity:1;fill-rule:nonzero;stroke:none;stroke-width:2;marker:none;visibility:visible;display:inline;overflow:visible;enable-background:accumulate" />
      <rect
         inkscape:label="48x48"
         y="220"
         x="288"
         height="48"
         width="48"
         id="rect48x48"
         style="fill:#eeeeec;fill-opacity:1;fill-rule:nonzero;stroke:none;stroke-width:2;marker:none;visibility:visible;display:inline;overflow:visible;enable-background:accumulate" />
      <rect
         style="fill:#eeeeec;fill-opacity:1;fill-rule:nonzero;stroke:none;stroke-width:2;marker:none;visibility:visible;display:inline;overflow:visible;enable-background:accumulate"
         id="rect256x256"
         width="256"
         height="256"
         x="16"
         y="28"
         inkscape:label="256x256" />
      <rect
         style="fill:#eeeeec;fill-opacity:1;fill-rule:nonzero;stroke:none;stroke-width:2;marker:none;visibility:visible;display:inline;overflow:visible;enable-background:accumulate"
         id="rect64x64"
         width="64"
         height="64"
         x="288"
         y="140"
         inkscape:label="64x64" />
      <rect
         style="fill:#eeeeec;fill-opacity:1;fill-rule:nonzero;stroke:none;stroke-width:2;marker:none;visibility:visible;display:inline;overflow:visible;enable-background:accumulate"
         id="rect96x96"
         width="96"
         height="96"
         x="288"
         y="28"
         inkscape:label="96x96" />
    </g>
    <g
       inkscape:groupmode="layer"
       id="layer4"
       inkscape:label="Shadow"
       style="display:inline"
       sodipodi:insensitive="true">
      <rect
         ry="50"
         y="47"
         x="34"
         height="220"
         width="220"
         id="rect4114"
         style="opacity:0.1;color:#bebebe;fill:#000000;fill-opacity:1;fill-rule:nonzero;stroke:none;stroke-width:0;marker:none;visibility:visible;display:inline;overflow:visible;enable-background:accumulate" />
      <rect
         style="opacity:0.1;color:#bebebe;fill:#000000;fill-opacity:1;fill-rule:nonzero;stroke:none;stroke-width:0;marker:none;visibility:visible;display:inline;overflow:visible;enable-background:accumulate"
         id="rect4120"
         width="30"
         height="30"
         x="417"
         y="54"
         ry="7" />
      <rect
         transform="scale(1,-1)"
         ry="9"
         y="-266"
         x="291"
         height="42"
         width="42"
         id="rect4122"
         style="opacity:0.1;color:#bebebe;fill:#000000;fill-opacity:1;fill-rule:nonzero;stroke:none;stroke-width:0;marker:none;visibility:visible;display:inline;overflow:visible;enable-background:accumulate" />
      <rect
         style="opacity:0.1;color:#bebebe;fill:#000000;fill-opacity:1;fill-rule:nonzero;stroke:none;stroke-width:0;marker:none;visibility:visible;display:inline;overflow:visible;enable-background:accumulate"
         id="rect4124"
         width="88"
         height="88"
         x="292"
         y="33"
         ry="18" />
      <rect
         ry="12.5"
         y="143"
         x="290"
         height="60"
         width="60"
         id="rect4126"
         style="opacity:0.1;color:#bebebe;fill:#000000;fill-opacity:1;fill-rule:nonzero;stroke:none;stroke-width:0;marker:none;visibility:visible;display:inline;overflow:visible;enable-background:accumulate" />
      <path
         id="path4268"
         d="m 422,101 c -2.77,0 -5,2.23 -5,5 l 0,12 c 0,2.77 2.23,5 5,5 l 12,0 c 2.77,0 5,-2.23 5,-5 l 0,-12 c 0,-2.77 -2.23,-5 -5,-5 z"
         style="opacity:0.1;color:#bebebe;fill:#000000;fill-opacity:1;fill-rule:nonzero;stroke:none;stroke-width:0;marker:none;visibility:visible;display:inline;overflow:visible;enable-background:accumulate"
         inkscape:connector-curvature="0"
         sodipodi:nodetypes="sssssssss" />
      <path
         id="path4270"
         d="m 419,140 c -1.662,0 -3,1.338 -3,3 l 0,10 c 0,1.662 1.338,3 3,3 l 10,0 c 1.662,0 3,-1.338 3,-3 l 0,-10 c 0,-1.662 -1.338,-3 -3,-3 z"
         style="opacity:0.1;color:#bebebe;fill:#000000;fill-opacity:1;fill-rule:nonzero;stroke:none;stroke-width:0;marker:none;visibility:visible;display:inline;overflow:visible;enable-background:accumulate"
         inkscape:connector-curvature="0"
         sodipodi:nodetypes="sssssssss" />
    </g>
    <g
       inkscape:groupmode="layer"
       id="layer2"
       inkscape:label="Background"
       style="display:inline">
      <path
         style="color:#bebebe;fill:url(#linearGradient4254);fill-opacity:1.0;fill-rule:nonzero;stroke:none;stroke-width:2;marker:none;visibility:visible;display:inline;overflow:visible;enable-background:accumulate"
         d="M 84 46.5 C 56.568735 46.5 34.5 68.568732 34.5 96 L 34.5 216 C 34.5 243.43127 56.568735 265.5 84 265.5 L 204 265.5 C 231.43127 265.5 253.5 243.43127 253.5 216 L 253.5 96 C 253.5 68.568732 231.43127 46.5 204 46.5 L 84 46.5 z "
         id="path4200" />
      <path
         style="color:#bebebe;fill:url(#linearGradient4256);fill-opacity:1.0;fill-rule:nonzero;stroke:none;stroke-width:2;marker:none;visibility:visible;display:inline;overflow:visible;enable-background:accumulate"
         d="M 419 140.5 C 417.6156 140.5 416.5 141.6156 416.5 143 L 416.5 153 C 416.5 154.3844 417.6156 155.5 419 155.5 L 429 155.5 C 430.3844 155.5 431.5 154.3844 431.5 153 L 431.5 143 C 431.5 141.6156 430.3844 140.5 429 140.5 L 419 140.5 z "
         id="path4202" />
      <path
         style="color:#bebebe;fill:url(#linearGradient3870);fill-opacity:1.0;fill-rule:nonzero;stroke:none;stroke-width:2;marker:none;visibility:visible;display:inline;overflow:visible;enable-background:accumulate"
         d="M 422 101.5 C 419.50301 101.5 417.5 103.50301 417.5 106 L 417.5 118 C 417.5 120.49699 419.50301 122.5 422 122.5 L 434 122.5 C 436.49699 122.5 438.5 120.49699 438.5 118 L 438.5 106 C 438.5 103.50301 436.49699 101.5 434 101.5 L 422 101.5 z "
         id="path4204" />
      <path
         style="color:#bebebe;fill:url(#linearGradient4260);fill-opacity:1.0;fill-rule:nonzero;stroke:none;stroke-width:2;marker:none;visibility:visible;display:inline;overflow:visible;enable-background:accumulate"
         d="M 424 53.5 C 420.39346 53.5 417.5 56.393464 417.5 60 L 417.5 76 C 417.5 79.606536 420.39346 82.5 424 82.5 L 440 82.5 C 443.60654 82.5 446.5 79.606536 446.5 76 L 446.5 60 C 446.5 56.393464 443.60654 53.5 440 53.5 L 424 53.5 z "
         id="path4206" />
      <path
         style="color:#bebebe;fill:url(#linearGradient4262);fill-opacity:1.0;fill-rule:nonzero;stroke:none;stroke-width:2;marker:none;visibility:visible;display:inline;overflow:visible;enable-background:accumulate"
         d="M 300 223.5 C 295.28469 223.5 291.5 227.28469 291.5 232 L 291.5 256 C 291.5 260.71531 295.28469 264.5 300 264.5 L 324 264.5 C 328.71531 264.5 332.5 260.71531 332.5 256 L 332.5 232 C 332.5 227.28469 328.71531 223.5 324 223.5 L 300 223.5 z "
         id="path4208" />
      <path
         style="color:#bebebe;fill:url(#linearGradient4264);fill-opacity:1.0;fill-rule:nonzero;stroke:none;stroke-width:2;marker:none;visibility:visible;display:inline;overflow:visible;enable-background:accumulate"
         d="M 310 32.5 C 300.29745 32.5 292.5 40.297452 292.5 50 L 292.5 102 C 292.5 111.70255 300.29745 119.5 310 119.5 L 362 119.5 C 371.70255 119.5 379.5 111.70255 379.5 102 L 379.5 50 C 379.5 40.297452 371.70255 32.5 362 32.5 L 310 32.5 z "
         id="path4210" />
      <path
         style="color:#bebebe;fill:url(#linearGradient4266);fill-opacity:1.0;fill-rule:nonzero;stroke:none;stroke-width:2;marker:none;visibility:visible;display:inline;overflow:visible;enable-background:accumulate"
         d="M 302.5 142.5 C 295.84498 142.5 290.5 147.84498 290.5 154.5 L 290.5 189.5 C 290.5 196.15502 295.84498 201.5 302.5 201.5 L 337.5 201.5 C 344.15502 201.5 349.5 196.15502 349.5 189.5 L 349.5 154.5 C 349.5 147.84498 344.15502 142.5 337.5 142.5 L 302.5 142.5 z "
         id="path4212" />
      <path
         inkscape:connector-curvature="0"
         style="fill:#ffffff;stroke-width:14.17139626"
         d="M 224.82316,141.72473 203.34098,98.195249 c -0.0271,-0.04463 -0.0675,-0.104136 -0.0945,-0.148764 -0.14985,-0.199345 -0.31995,-0.379348 -0.50894,-0.522162 -0.76545,-0.589102 -1.80629,-0.711089 -2.707,-0.215706 -0.52785,0.291576 -0.91529,0.752744 -1.14343,1.285317 -0.0271,0.04462 -0.0539,0.104134 -0.0675,0.159177 l -11.6112,29.460079 -23.0414,12.72242 c -0.14985,0.0892 -0.30509,0.1696 -0.45089,0.25587 l -7.83546,4.32791 -6.82822,3.76967 -1.78696,-3.616 c -1.01249,-2.04862 -3.39468,-2.84257 -5.33177,-1.77207 -1.93223,1.06514 -2.68769,3.59026 -1.67546,5.63888 l 1.78684,3.616 -6.59562,3.64158 -5.69506,-11.53929 10.2229,-5.64417 c 2.62478,-1.4549 3.64173,-4.88093 2.27122,-7.657 -0.21736,-0.45075 -0.49411,-0.85539 -0.80865,-1.20944 l -0.46439,-0.47605 c -1.61756,-1.45937 -3.97098,-1.81819 -5.96626,-0.71704 l -30.18916,16.6662 c -2.6295,1.45491 -3.64659,4.88094 -2.27608,7.66207 0.21734,0.43587 0.4752,0.8301 0.7803,1.17822 0.1552,0.18892 0.32939,0.36297 0.50894,0.51768 1.61742,1.44896 3.96611,1.80792 5.95654,0.70663 l 10.21803,-5.63903 5.69491,11.53914 -7.27845,4.02063 -1.78696,-3.616 c -1.01249,-2.04355 -3.4044,-2.83736 -5.33178,-1.77207 -0.50894,0.28116 -0.93418,0.66053 -1.27302,1.11127 -0.9342,1.25556 -1.14749,3.01662 -0.40231,4.52762 l 1.78699,3.61584 -11.08486,6.12043 c -0.14986,0.0744 -0.30511,0.16365 -0.454954,0.24547 l -26.40717,14.57125 -9.007377,-2.06917 c -0.02701,-0.0103 -0.05399,-0.0103 -0.06751,-0.0148 -0.251097,-0.0595 -0.518395,-0.0103 -0.760041,0.11901 -0.537293,0.29753 -0.76949,0.96846 -0.556194,1.5519 l 9.879063,20.01049 c 0.02708,0.0297 0.05392,0.0744 0.081,0.10413 l 0.01298,0.0148 0.145801,0.14876 c 0.3483,0.30644 0.851837,0.37339 1.287889,0.13389 0.241641,-0.13389 0.421189,-0.34365 0.527849,-0.59357 0.0099,-0.0148 0.01299,-0.0447 0.02708,-0.0744 l 3.617552,-9.16785 10.566598,-5.83868 c 0.04056,3.17536 0.765433,6.38672 2.247043,9.39323 5.070287,10.269 17.055851,14.24858 26.770331,8.8861 0.14985,-0.0744 0.3051,-0.16959 0.4509,-0.25588 l 11.08486,-6.12042 2.07263,4.19989 c 1.00709,2.04341 3.40439,2.83737 5.33176,1.77206 1.93223,-1.06514 2.68769,-3.59546 1.67561,-5.63903 l -2.07277,-4.19467 7.27857,-4.0205 6.04361,12.24593 c 1.40924,2.85284 4.72644,3.95398 7.42383,2.46352 0.75599,-0.41505 1.3801,-0.98779 1.84989,-1.65946 1.23524,-1.73621 1.4916,-4.1331 0.47924,-6.18693 l -6.04361,-12.24725 6.59576,-3.64159 2.07264,4.19469 c 1.00707,2.04357 3.39967,2.84257 5.33175,1.77208 1.93709,-1.06961 2.68296,-3.60052 1.6756,-5.63889 l -2.07263,-4.1999 15.29318,-8.44559 c 1.05567,-0.59952 2.03874,-1.28085 2.94917,-2.04358 7.33662,-6.12563 9.75796,-17.08609 5.27844,-26.1617 -1.48188,-3.00145 -3.55937,-5.46498 -5.99515,-7.32408 l 7.21067,-3.97965 29.66131,6.79663 c 0.0539,0.0149 0.10808,0.0298 0.15926,0.0298 0.54673,0.10414 1.12857,0.0297 1.65142,-0.25588 1.16234,-0.63521 1.66101,-2.09473 1.20149,-3.37008 z m -111.4492,61.54764 c -0.0675,0.0447 -0.13494,0.0744 -0.20385,0.119 -4.36813,2.41177 -9.74836,0.62483 -12.0243,-3.99562 -2.276083,-4.61465 -0.59129,-10.30486 3.76753,-12.712 l 11.54979,-6.37719 8.24705,16.70704 z m 18.33915,-10.12558 -8.24707,-16.70705 0.48466,-0.26182 6.79905,-3.7542 8.24719,16.70705 -1.54979,0.85539 z m 17.03653,-9.4035 -8.24705,-16.70704 6.59561,-3.64157 8.24718,16.70703 z m 27.35622,-15.1245 c -0.0945,0.0596 -0.19306,0.1339 -0.29565,0.18001 l -13.46259,7.43669 -8.24718,-16.70704 10.03888,-5.54679 3.21554,-1.77222 c 0.1701,-0.0892 0.34423,-0.17853 0.51838,-0.26629 4.26164,-2.0077 9.31732,-0.17851 11.5062,4.25613 1.93223,3.90281 1.01654,8.57889 -1.95154,11.38561 -0.3969,0.38383 -0.83834,0.73192 -1.32164,1.0339 z"
         id="path4" />
      <path
         inkscape:connector-curvature="0"
         style="fill:#ffffff;stroke-width:5.97534847"
         d="M 369.53265,70.163619 360.6202,51.509898 c -0.0106,-0.02244 -0.028,-0.04145 -0.0391,-0.06121 -0.0621,-0.08561 -0.13283,-0.162438 -0.21121,-0.223897 -0.31755,-0.252379 -0.74938,-0.305112 -1.12307,-0.09219 -0.21899,0.125139 -0.37972,0.322642 -0.47438,0.550927 -0.0106,0.01991 -0.0233,0.04398 -0.028,0.06804 l -4.81722,12.62457 -9.55931,5.45192 c -0.0621,0.03507 -0.12659,0.07244 -0.18714,0.109701 l -3.25075,1.854617 -2.83287,1.615385 -0.74137,-1.549545 c -0.42005,-0.877925 -1.40836,-1.218118 -2.21202,-0.759401 -0.80163,0.456513 -1.11507,1.538565 -0.69512,2.416491 l 0.74133,1.549537 -2.73636,1.560511 -2.36274,-4.944916 4.24124,-2.418682 c 1.08895,-0.623345 1.51085,-2.09166 0.94227,-3.281249 -0.0901,-0.193167 -0.20501,-0.366563 -0.33549,-0.517969 l -0.19257,-0.204137 c -0.67108,-0.625513 -1.64746,-0.779156 -2.47524,-0.307263 l -12.52478,7.141925 c -1.09092,0.623344 -1.51287,2.091659 -0.94428,3.28344 0.0901,0.186592 0.19724,0.355533 0.32371,0.504839 0.0645,0.08121 0.13663,0.155793 0.21121,0.221649 0.67102,0.621115 1.64544,0.774773 2.47122,0.30287 l 4.23923,-2.41649 2.36267,4.944914 -3.01964,1.722936 -0.74137,-1.549545 c -0.42006,-0.875731 -1.41241,-1.215927 -2.21203,-0.759407 -0.21121,0.120675 -0.38758,0.283109 -0.52871,0.476274 -0.38758,0.537732 -0.47606,1.292752 -0.16695,1.940222 l 0.74137,1.549538 -4.59885,2.622801 c -0.0621,0.03318 -0.12659,0.07026 -0.18869,0.105376 l -10.95569,6.244257 -3.73695,-0.886703 c -0.0106,-0.0045 -0.0233,-0.0045 -0.028,-0.007 -0.10483,-0.02244 -0.21511,-0.0045 -0.31533,0.05099 -0.22287,0.127319 -0.31925,0.414883 -0.23089,0.665026 l 4.09859,8.575139 c 0.0106,0.01449 0.0233,0.0325 0.0336,0.04654 l 0.005,0.007 0.0606,0.06121 c 0.14439,0.13165 0.3534,0.160125 0.5343,0.05928 0.10012,-0.05928 0.17473,-0.147001 0.21899,-0.254562 0.005,-0.0088 0.005,-0.01707 0.0106,-0.02878 l 1.50082,-3.92872 4.38385,-2.502087 c 0.0155,1.360781 0.31755,2.736936 0.93224,4.025294 2.10354,4.400606 7.07606,6.105966 11.10636,3.807996 0.0621,-0.0351 0.12659,-0.0725 0.18715,-0.10975 l 4.59883,-2.622807 0.85991,1.799747 c 0.4178,0.87573 1.41239,1.21593 2.21201,0.7594 0.80163,-0.45651 1.11504,-1.540756 0.69518,-2.416487 l -0.85996,-1.797562 3.01972,-1.722924 2.50735,5.247803 c 0.58465,1.22251 1.96086,1.69439 3.07997,1.05571 0.31364,-0.17781 0.57255,-0.42356 0.76747,-0.71113 0.51245,-0.744045 0.61881,-1.77121 0.19879,-2.651338 l -2.50734,-5.248324 2.73642,-1.560514 0.85986,1.797561 c 0.41783,0.875735 1.41046,1.218122 2.21206,0.759403 0.80364,-0.45868 1.11307,-1.542957 0.69513,-2.416491 l -0.85987,-1.799753 6.34478,-3.61924 c 0.43796,-0.256774 0.84581,-0.548694 1.22352,-0.875729 3.04381,-2.625005 4.04836,-7.321902 2.18991,-11.211116 -0.6148,-1.286163 -1.47669,-2.341872 -2.48724,-3.138584 l 2.99152,-1.705373 12.3058,2.912518 c 0.0233,0.007 0.0447,0.01265 0.066,0.01515 0.22675,0.04591 0.46822,0.01515 0.68512,-0.109772 0.48224,-0.272139 0.68913,-0.897679 0.49849,-1.444189 z m -46.2376,26.375088 c -0.028,0.01992 -0.056,0.0325 -0.0846,0.051 -1.81223,1.033494 -4.04437,0.267492 -4.9886,-1.712227 -0.94431,-1.977527 -0.24539,-4.415958 1.56305,-5.447521 l 4.79175,-2.73281 3.42148,7.15948 z m 7.60847,-4.339148 -3.42152,-7.159486 0.20112,-0.111953 2.82077,-1.608797 3.42156,7.159484 -0.64297,0.366564 z m 7.06805,-4.02968 -3.42151,-7.159487 2.73636,-1.560505 3.42157,7.159477 z m 11.34942,-6.481283 c -0.0391,0.02878 -0.08,0.05482 -0.12263,0.07684 l -5.5853,3.186867 -3.42156,-7.159485 4.16488,-2.376984 1.33405,-0.759408 c 0.0706,-0.03951 0.14287,-0.07684 0.21509,-0.114134 1.76806,-0.860368 3.86554,-0.07684 4.77365,1.823891 0.80164,1.672446 0.42174,3.676314 -0.80965,4.879068 -0.16463,0.164586 -0.3478,0.313841 -0.5483,0.443381 z"
         id="path4-3" />
      <path
         inkscape:connector-curvature="0"
         style="fill:#ffffff;stroke-width:3.8339231"
         d="m 340.70568,168.27845 -5.50318,-12.43673 c -0.007,-0.0132 -0.0173,-0.0296 -0.0242,-0.0425 -0.0384,-0.0571 -0.082,-0.10841 -0.13037,-0.14922 -0.19609,-0.16832 -0.46276,-0.20361 -0.6935,-0.0616 -0.13522,0.0833 -0.23448,0.21505 -0.29292,0.36722 -0.007,0.0132 -0.0138,0.0296 -0.0173,0.0456 l -2.97451,8.41702 -5.90265,3.63489 c -0.0384,0.0255 -0.0781,0.0485 -0.1155,0.0731 l -2.00725,1.23652 -1.74921,1.07701 -0.45775,-1.03313 c -0.25937,-0.5853 -0.86966,-0.81213 -1.36586,-0.50628 -0.495,0.30432 -0.68852,1.02576 -0.42925,1.61113 l 0.45778,1.03307 -1.68968,1.04042 -1.45893,-3.29685 2.61886,-1.61259 c 0.6724,-0.41567 0.93292,-1.39452 0.58183,-2.18766 -0.0557,-0.12883 -0.12658,-0.24439 -0.20715,-0.34511 l -0.11897,-0.13602 c -0.41434,-0.41695 -1.01727,-0.51945 -1.52838,-0.20487 l -7.73376,4.76168 c -0.67362,0.41567 -0.93413,1.39453 -0.58304,2.18911 0.0557,0.12446 0.12139,0.23716 0.19954,0.33662 0.0398,0.054 0.0844,0.10368 0.13038,0.14792 0.41435,0.414 1.01603,0.51655 1.52589,0.2019 l 2.61761,-1.61113 1.45893,3.29685 -1.86459,1.14872 -0.45778,-1.03312 c -0.25938,-0.58388 -0.87212,-0.81067 -1.36587,-0.5063 -0.13038,0.0803 -0.23932,0.18872 -0.32612,0.31748 -0.23932,0.35874 -0.29396,0.8619 -0.10306,1.29361 l 0.45778,1.03306 -2.83967,1.74871 c -0.0384,0.0212 -0.0782,0.0467 -0.11655,0.0701 l -6.76484,4.16318 -2.30747,-0.59123 c -0.007,-0.004 -0.0138,-0.004 -0.0173,-0.004 -0.0647,-0.0169 -0.1328,-0.004 -0.19471,0.034 -0.13764,0.0849 -0.19712,0.27668 -0.14282,0.44339 l 2.53077,5.71722 c 0.007,0.008 0.0138,0.0212 0.0207,0.0296 l 0.003,0.004 0.0374,0.0425 c 0.0892,0.0876 0.21822,0.10675 0.32992,0.0384 0.0619,-0.0384 0.1079,-0.0982 0.13522,-0.16964 0.002,-0.004 0.003,-0.0132 0.007,-0.0213 l 0.92669,-2.61938 2.70694,-1.66817 c 0.0104,0.90728 0.19609,1.82475 0.57561,2.68373 1.29888,2.93395 4.36933,4.07096 6.85791,2.53884 0.0384,-0.0255 0.0782,-0.0484 0.11551,-0.0731 l 2.83967,-1.74866 0.53095,1.19994 c 0.258,0.58388 0.87213,0.81067 1.36587,0.50631 0.49499,-0.30434 0.68852,-1.02726 0.42925,-1.61114 l -0.53099,-1.19845 1.86459,-1.14868 1.54823,3.49877 c 0.361,0.81507 1.21081,1.12968 1.90179,0.70384 0.19366,-0.11868 0.35358,-0.28222 0.47389,-0.4741 0.31644,-0.49608 0.38211,-1.18088 0.12277,-1.76768 l -1.54822,-3.49915 1.68964,-1.04042 0.53099,1.19844 c 0.25799,0.58388 0.87088,0.81216 1.36587,0.50635 0.49623,-0.30602 0.68727,-1.02874 0.42924,-1.61112 l -0.53099,-1.19996 3.91774,-2.41298 c 0.27044,-0.17133 0.52228,-0.36594 0.75551,-0.58385 1.87946,-1.75016 2.49975,-4.88166 1.35224,-7.47463 -0.37962,-0.85751 -0.91182,-1.5614 -1.53585,-2.09256 l 1.84724,-1.137 7.59851,1.94184 c 0.0138,0.004 0.0277,0.008 0.0408,0.008 0.14006,0.0296 0.28911,0.009 0.42302,-0.0731 0.29776,-0.18153 0.42551,-0.59849 0.30779,-0.96287 z m -28.55056,17.58468 c -0.0173,0.0132 -0.0346,0.0212 -0.0522,0.034 -1.11898,0.68907 -2.49726,0.17851 -3.08034,-1.14153 -0.58307,-1.31849 -0.15147,-2.94423 0.96516,-3.63198 l 2.95877,-1.82203 2.1127,4.77336 z m 4.69804,-2.89296 -2.11269,-4.77335 0.12415,-0.0748 1.74179,-1.07261 2.1127,4.77336 -0.39699,0.24438 z m 4.36435,-2.68667 -2.1127,-4.77334 1.68968,-1.04044 2.11267,4.77335 z m 7.00798,-4.32116 c -0.0242,0.0171 -0.0494,0.0384 -0.0757,0.0511 l -3.44878,2.12471 -2.1127,-4.77333 2.57172,-1.58476 0.82374,-0.50632 c 0.0432,-0.0255 0.0882,-0.051 0.1328,-0.0761 1.09169,-0.57362 2.38687,-0.0514 2.94761,1.21601 0.49499,1.11503 0.26041,2.45104 -0.49998,3.25293 -0.10167,0.10971 -0.21476,0.20912 -0.33857,0.29582 z"
         id="path4-6" />
      <path
         inkscape:connector-curvature="0"
         style="fill:#ffffff;stroke-width:2.6221149"
         d="m 326.9674,241.26833 -3.97822,-8.04729 c -0.006,-0.009 -0.0125,-0.0192 -0.0175,-0.0276 -0.0278,-0.0368 -0.0592,-0.0701 -0.0942,-0.0965 -0.14174,-0.10898 -0.3345,-0.13142 -0.5013,-0.0399 -0.0978,0.0538 -0.16949,0.1392 -0.21175,0.23761 -0.006,0.009 -0.01,0.0192 -0.0126,0.0295 l -2.15025,5.4463 -4.26697,2.35199 c -0.0278,0.0164 -0.0566,0.0314 -0.0836,0.0474 l -1.45103,0.80008 -1.2645,0.69691 -0.33093,-0.6685 c -0.1875,-0.37873 -0.62865,-0.5255 -0.98737,-0.3276 -0.35783,0.19691 -0.49772,0.66373 -0.31027,1.04246 l 0.33089,0.66848 -1.22142,0.67322 -1.05465,-2.13326 1.89316,-1.04342 c 0.48606,-0.26897 0.67439,-0.90234 0.42059,-1.41555 -0.0402,-0.0833 -0.0916,-0.15814 -0.14975,-0.22359 l -0.086,-0.088 c -0.29954,-0.26981 -0.73537,-0.33614 -1.10487,-0.1326 l -5.59067,3.08107 c -0.48694,0.26897 -0.67529,0.90233 -0.42148,1.41648 0.0402,0.0805 0.088,0.15347 0.1445,0.21782 0.0288,0.0349 0.061,0.067 0.0942,0.0956 0.29953,0.26787 0.73448,0.33424 1.10308,0.13068 l 1.89225,-1.04248 1.05463,2.13324 -1.34788,0.74328 -0.33092,-0.66848 c -0.1875,-0.3778 -0.63045,-0.52455 -0.98738,-0.32761 -0.0942,0.0519 -0.173,0.12204 -0.236,0.20545 -0.173,0.23211 -0.2125,0.55768 -0.0744,0.83701 l 0.33092,0.66847 -2.05277,1.13148 c -0.0278,0.0132 -0.0566,0.0302 -0.0842,0.0453 l -4.89029,2.69379 -1.66805,-0.38253 c -0.006,-0.001 -0.01,-0.001 -0.0126,-0.003 -0.0468,-0.0117 -0.096,-0.001 -0.14074,0.022 -0.0996,0.055 -0.1425,0.17905 -0.103,0.28691 l 1.82947,3.69934 c 0.006,0.006 0.01,0.0132 0.015,0.0192 l 0.002,0.003 0.027,0.0274 c 0.0645,0.0566 0.15775,0.0691 0.2385,0.0248 0.0448,-0.0248 0.078,-0.0635 0.0978,-0.10971 0.002,-0.003 0.002,-0.009 0.006,-0.0132 l 0.66991,-1.69486 1.95682,-1.07939 c 0.008,0.58703 0.14175,1.18071 0.41611,1.73653 0.93897,1.89842 3.15854,2.63414 4.95753,1.64277 0.0278,-0.0132 0.0564,-0.0314 0.0836,-0.0474 l 2.05278,-1.13149 0.38382,0.77644 c 0.1865,0.37777 0.63046,0.52455 0.98739,0.32761 0.35782,-0.19693 0.49772,-0.6647 0.3103,-1.04249 l -0.38386,-0.77548 1.3479,-0.74327 1.11921,2.26391 c 0.26098,0.5274 0.87526,0.73097 1.3748,0.45543 0.14,-0.0767 0.25557,-0.18261 0.34257,-0.30679 0.22876,-0.32096 0.27624,-0.76408 0.0888,-1.14378 l -1.1192,-2.26414 1.22144,-0.67322 0.38384,0.77548 c 0.1865,0.37779 0.62957,0.5255 0.98736,0.32759 0.35873,-0.19773 0.49686,-0.66562 0.3103,-1.04245 l -0.38381,-0.77644 2.83209,-1.56134 c 0.1955,-0.11089 0.37756,-0.23679 0.54616,-0.37779 1.35866,-1.13245 1.80705,-3.15871 0.97751,-4.83651 -0.2744,-0.55489 -0.65914,-1.01031 -1.11023,-1.35401 l 1.33532,-0.7357 5.4929,1.25645 c 0.01,0.003 0.02,0.006 0.0296,0.006 0.10122,0.0192 0.209,0.006 0.30583,-0.0474 0.21524,-0.11748 0.3076,-0.38725 0.2225,-0.62303 z m -20.63899,11.37831 c -0.0125,0.009 -0.025,0.0132 -0.0378,0.022 -0.80892,0.44586 -1.80527,0.11558 -2.22675,-0.73868 -0.42149,-0.8531 -0.10944,-1.90505 0.6977,-2.35006 l 2.13888,-1.17895 1.52726,3.08862 z m 3.39617,-1.87191 -1.52724,-3.08864 0.0898,-0.0484 1.2591,-0.69405 1.52728,3.08864 -0.28698,0.15814 z m 3.15496,-1.73843 -1.52725,-3.08863 1.22143,-0.67322 1.52727,3.08863 z m 5.06603,-2.79607 c -0.0174,0.0117 -0.0358,0.0248 -0.0548,0.0333 l -2.4931,1.37482 -1.52728,-3.08863 1.85908,-1.02543 0.59547,-0.32764 c 0.0315,-0.0166 0.0638,-0.033 0.096,-0.0493 0.78919,-0.37116 1.72544,-0.033 2.13082,0.78683 0.35779,0.72152 0.18823,1.58599 -0.36143,2.10486 -0.0734,0.071 -0.15525,0.13523 -0.24475,0.19113 z"
         id="path4-7" />
    </g>
    <g
       inkscape:groupmode="layer"
       id="layer6"
       inkscape:label="Symbols"
       style="display:inline">
      <path
         inkscape:connector-curvature="0"
         style="fill:#ffffff;stroke-width:1.78972888"
         d="m 442.22907,67.136367 -2.71844,-5.486411 c -0.003,-0.0064 -0.009,-0.01225 -0.012,-0.018 -0.019,-0.02517 -0.0405,-0.04778 -0.0644,-0.06585 -0.0969,-0.07422 -0.22859,-0.08974 -0.34257,-0.02711 -0.0668,0.03681 -0.11582,0.0949 -0.1447,0.162038 -0.005,0.0059 -0.007,0.01294 -0.009,0.02 l -1.46933,3.713123 -2.91577,1.603512 c -0.019,0.01025 -0.0386,0.0213 -0.0571,0.03226 l -0.99153,0.545477 -0.86406,0.475115 -0.22613,-0.45575 c -0.12813,-0.258213 -0.42959,-0.358271 -0.67471,-0.223353 -0.24451,0.134269 -0.34011,0.452521 -0.21203,0.710734 l 0.22613,0.455749 -0.83466,0.458975 -0.72068,-1.454392 1.29366,-0.711381 c 0.33215,-0.183337 0.46083,-0.615195 0.2874,-0.965077 -0.0275,-0.05681 -0.0625,-0.107813 -0.10232,-0.152344 l -0.0588,-0.06004 c -0.20468,-0.183976 -0.50251,-0.229165 -0.75498,-0.09038 l -3.82029,2.100574 c -0.33275,0.183338 -0.46144,0.615196 -0.28801,0.965723 0.0275,0.05487 0.06,0.104563 0.0986,0.14848 0.0196,0.02389 0.0417,0.04583 0.0644,0.06519 0.20468,0.182682 0.50189,0.227875 0.75375,0.08908 l 1.29304,-0.710736 0.72068,1.454391 -0.92107,0.506749 -0.22613,-0.455748 c -0.12812,-0.257572 -0.43081,-0.35763 -0.6747,-0.223358 -0.0644,0.0355 -0.11822,0.08326 -0.1611,0.140081 -0.11822,0.158157 -0.14521,0.380223 -0.0509,0.570656 l 0.22613,0.455747 -1.40273,0.771419 c -0.019,0.0097 -0.0386,0.02066 -0.0576,0.03099 l -3.34167,1.836551 -1.13983,-0.260795 c -0.003,-0.0012 -0.007,-0.0012 -0.009,-0.002 -0.0319,-0.0065 -0.0656,-0.0012 -0.0962,0.015 -0.068,0.03744 -0.0974,0.122026 -0.0706,0.195596 l 1.25014,2.52211 c 0.003,0.0044 0.007,0.0095 0.0102,0.01369 l 0.002,0.002 0.0185,0.018 c 0.0441,0.03871 0.1078,0.0471 0.16298,0.01744 0.0306,-0.01744 0.0533,-0.04324 0.0668,-0.07486 10e-4,-0.0026 0.002,-0.0051 0.003,-0.0085 l 0.45777,-1.155511 1.33716,-0.73591 c 0.005,0.40023 0.0969,0.804984 0.28433,1.183915 0.64162,1.294299 2.15835,1.795878 3.38765,1.120002 0.019,-0.01037 0.0386,-0.0213 0.0571,-0.03229 l 1.40273,-0.771415 0.26228,0.529339 c 0.12744,0.257567 0.43081,0.357625 0.67471,0.223354 0.24451,-0.134269 0.34011,-0.453165 0.21204,-0.710735 l -0.26228,-0.528696 0.92104,-0.506744 0.76481,1.543476 c 0.17831,0.359564 0.5981,0.498353 0.93943,0.310502 0.0957,-0.0523 0.17466,-0.124575 0.23409,-0.209152 0.15631,-0.21884 0.18875,-0.520947 0.0607,-0.779811 l -0.76479,-1.543629 0.83466,-0.458977 0.26228,0.528697 c 0.12744,0.257569 0.43019,0.358272 0.6747,0.223354 0.24513,-0.134907 0.3395,-0.453812 0.21204,-0.710735 l -0.2623,-0.529342 1.93527,-1.064486 c 0.13359,-0.07553 0.25799,-0.161382 0.3732,-0.257569 0.92841,-0.772063 1.23482,-2.153509 0.66798,-3.2974 -0.18753,-0.378284 -0.45042,-0.688786 -0.75867,-0.923116 l 0.91249,-0.501582 3.75348,0.856626 c 0.007,0.002 0.0137,0.0037 0.0202,0.0045 0.0692,0.0135 0.14282,0.0045 0.20897,-0.03229 0.14709,-0.08004 0.21019,-0.264023 0.15204,-0.424763 z m -14.10329,7.757408 c -0.009,0.0057 -0.0171,0.0095 -0.0258,0.015 -0.55275,0.30397 -1.23359,0.07868 -1.52161,-0.503597 -0.28803,-0.581629 -0.0748,-1.298817 0.47676,-1.602219 l 1.46156,-0.803771 1.04362,2.105737 z m 2.32072,-1.276224 -1.04363,-2.10574 0.0613,-0.03293 0.86039,-0.473177 1.04362,2.105738 -0.1961,0.107813 z m 2.15588,-1.185206 -1.04362,-2.105738 0.83465,-0.458976 1.04362,2.105738 z m 3.46178,-1.906266 c -0.012,0.0084 -0.0244,0.01612 -0.0374,0.02259 l -1.70362,0.937317 -1.04362,-2.105739 1.27037,-0.699115 0.4069,-0.223356 c 0.0214,-0.01162 0.0436,-0.02259 0.0656,-0.03356 0.53927,-0.253051 1.17906,-0.02259 1.45605,0.53644 0.24451,0.4919 0.12864,1.081274 -0.24697,1.435028 -0.0502,0.04841 -0.10609,0.0923 -0.16725,0.130406 z"
         id="path4-5" />
      <path
         inkscape:connector-curvature="0"
         style="fill:#ffffff;stroke-width:0.92702413"
         d="m 429.30134,147.0063 -1.36751,-2.92608 c -0.002,-0.003 -0.005,-0.007 -0.006,-0.01 -0.01,-0.0134 -0.0203,-0.0255 -0.0324,-0.0351 -0.0488,-0.0396 -0.11499,-0.0478 -0.17233,-0.0145 -0.0336,0.0196 -0.0582,0.0506 -0.0727,0.0864 -0.002,0.003 -0.004,0.007 -0.005,0.0107 l -0.73915,1.98033 -1.46677,0.8552 c -0.01,0.006 -0.0194,0.0114 -0.0287,0.0172 l -0.49879,0.29092 -0.43466,0.25339 -0.11376,-0.24306 c -0.0644,-0.13772 -0.21609,-0.19108 -0.3394,-0.11912 -0.12301,0.0716 -0.1711,0.24134 -0.10667,0.37905 l 0.11375,0.24307 -0.41987,0.24479 -0.36252,-0.77568 0.65075,-0.3794 c 0.16709,-0.0978 0.23183,-0.32811 0.14458,-0.51471 -0.0138,-0.0303 -0.0314,-0.0575 -0.0515,-0.0813 l -0.0295,-0.032 c -0.10295,-0.0981 -0.25279,-0.12222 -0.37979,-0.0482 l -1.92179,1.12031 c -0.16739,0.0978 -0.23213,0.3281 -0.14489,0.51505 0.0139,0.0293 0.0302,0.0558 0.0496,0.0792 0.01,0.0127 0.021,0.0245 0.0323,0.0348 0.10297,0.0974 0.25248,0.12154 0.37918,0.0475 l 0.65046,-0.37906 0.36254,0.77567 -0.46334,0.27027 -0.11376,-0.24307 c -0.0645,-0.13737 -0.21672,-0.19073 -0.33941,-0.11912 -0.0324,0.0189 -0.0594,0.0444 -0.081,0.0747 -0.0594,0.0844 -0.073,0.20278 -0.0256,0.30435 l 0.11375,0.24306 -0.70563,0.41142 c -0.01,0.005 -0.0194,0.011 -0.029,0.0165 l -1.68102,0.97949 -0.57339,-0.13909 c -0.002,-6.9e-4 -0.004,-6.9e-4 -0.005,-0.001 -0.016,-0.004 -0.033,-6.9e-4 -0.0484,0.008 -0.0342,0.02 -0.049,0.0651 -0.0354,0.10432 l 0.62887,1.34512 c 0.002,0.002 0.004,0.005 0.005,0.007 l 8.6e-4,0.001 0.009,0.01 c 0.0221,0.0207 0.0542,0.0251 0.0819,0.009 0.0154,-0.009 0.0268,-0.0231 0.0336,-0.0399 6.1e-4,-0.001 8.7e-4,-0.003 0.002,-0.004 l 0.23029,-0.61627 0.67265,-0.39248 c 0.003,0.21345 0.0487,0.42932 0.14304,0.63142 0.32276,0.69029 1.08574,0.9578 1.70414,0.59733 0.01,-0.005 0.0194,-0.0114 0.0287,-0.0172 l 0.70565,-0.41142 0.13194,0.28231 c 0.0641,0.13737 0.21671,0.19074 0.3394,0.11913 0.12301,-0.0716 0.17109,-0.24169 0.10667,-0.37906 l -0.13194,-0.28197 0.46333,-0.27027 0.38474,0.82319 c 0.0897,0.19177 0.30087,0.26579 0.47257,0.1656 0.0481,-0.0279 0.0878,-0.0664 0.11777,-0.11155 0.0787,-0.11671 0.0949,-0.27783 0.0305,-0.41589 l -0.38472,-0.82327 0.41987,-0.24479 0.13194,0.28197 c 0.0641,0.13737 0.21641,0.19108 0.33941,0.11912 0.12331,-0.072 0.17078,-0.24203 0.10667,-0.37905 l -0.13195,-0.28232 0.97353,-0.56773 c 0.0672,-0.0403 0.12978,-0.0861 0.18774,-0.13736 0.46703,-0.41177 0.62117,-1.14854 0.33602,-1.75861 -0.0943,-0.20176 -0.22658,-0.36736 -0.38164,-0.49233 l 0.45902,-0.26751 1.88818,0.45686 c 0.004,0.001 0.007,0.002 0.0101,0.002 0.0348,0.007 0.0718,0.002 0.10511,-0.0172 0.074,-0.0427 0.10574,-0.14081 0.0765,-0.22654 z m -7.09464,4.13728 c -0.005,0.003 -0.008,0.005 -0.0129,0.008 -0.27806,0.16212 -0.62055,0.042 -0.76544,-0.26859 -0.14489,-0.3102 -0.0376,-0.6927 0.23983,-0.85451 l 0.73523,-0.42868 0.525,1.12306 z m 1.16743,-0.68065 -0.52499,-1.12306 0.0309,-0.0176 0.43281,-0.25236 0.525,1.12306 -0.0987,0.0575 z m 1.08451,-0.63211 -0.52499,-1.12306 0.41988,-0.24479 0.52499,1.12306 z m 1.74145,-1.01668 c -0.006,0.004 -0.0123,0.009 -0.0188,0.012 l -0.85701,0.49991 -0.52499,-1.12306 0.63906,-0.37286 0.20469,-0.11913 c 0.0108,-0.006 0.0219,-0.0121 0.033,-0.0179 0.27129,-0.13496 0.59313,-0.0121 0.73247,0.2861 0.123,0.26235 0.0647,0.57668 -0.12424,0.76535 -0.0252,0.0258 -0.0533,0.0492 -0.0841,0.0695 z"
         id="path4-35" />
      <path
         inkscape:connector-curvature="0"
         style="fill:#ffffff;stroke-width:1.43691468"
         d="m 436.17042,110.23618 -2.11343,-4.54893 c -0.002,-0.005 -0.007,-0.0107 -0.009,-0.0156 -0.0147,-0.0208 -0.0315,-0.0397 -0.0501,-0.0546 -0.0753,-0.0616 -0.17771,-0.0743 -0.26632,-0.0225 -0.0519,0.0305 -0.0901,0.0787 -0.11255,0.13432 -0.002,0.005 -0.006,0.0107 -0.007,0.0167 l -1.14232,3.07866 -2.26683,1.32951 c -0.0147,0.01 -0.03,0.0177 -0.0444,0.0267 l -0.77087,0.45226 -0.67176,0.39392 -0.1758,-0.37786 c -0.0996,-0.2141 -0.33397,-0.29706 -0.52455,-0.18518 -0.19009,0.11129 -0.26441,0.37519 -0.16483,0.58927 l 0.1758,0.37788 -0.64889,0.38056 -0.56028,-1.20589 1.00573,-0.58982 c 0.25823,-0.15204 0.35828,-0.51006 0.22344,-0.80017 -0.0213,-0.0471 -0.0486,-0.0894 -0.0795,-0.12624 l -0.0457,-0.0497 c -0.15913,-0.15251 -0.39067,-0.19001 -0.58696,-0.075 l -2.97004,1.74164 c -0.25869,0.15205 -0.35874,0.51008 -0.22393,0.80072 0.0213,0.0455 0.0467,0.0867 0.0767,0.12312 0.0153,0.0198 0.0324,0.0381 0.0501,0.0541 0.15913,0.15142 0.39021,0.18895 0.58601,0.0739 l 1.00526,-0.5893 0.56027,1.20588 -0.71606,0.42016 -0.1758,-0.37788 c -0.0996,-0.21356 -0.33493,-0.29651 -0.52455,-0.18519 -0.0501,0.0294 -0.0919,0.069 -0.12538,0.11618 -0.0919,0.13121 -0.11289,0.31524 -0.0395,0.47315 l 0.1758,0.37786 -1.09054,0.6396 c -0.0147,0.008 -0.03,0.017 -0.0447,0.0256 l -2.59795,1.52272 -0.88615,-0.21622 c -0.002,-10e-4 -0.006,-10e-4 -0.007,-10e-4 -0.0248,-0.005 -0.051,-0.001 -0.0748,0.0124 -0.0528,0.0311 -0.0757,0.10117 -0.0547,0.16217 l 0.97191,2.09116 c 0.002,0.004 0.006,0.008 0.008,0.0107 l 10e-4,0.001 0.0144,0.0156 c 0.0343,0.0322 0.0838,0.039 0.12671,0.0139 0.0238,-0.0139 0.0415,-0.0359 0.0519,-0.062 9.5e-4,-0.001 10e-4,-0.005 0.002,-0.006 l 0.3559,-0.95806 1.03954,-0.61016 c 0.003,0.33183 0.0753,0.66743 0.22107,0.98161 0.49882,1.07314 1.67796,1.48902 2.63369,0.92863 0.0147,-0.008 0.03,-0.0177 0.0444,-0.0267 l 1.09053,-0.6396 0.20391,0.43888 c 0.0991,0.21355 0.33493,0.29652 0.52454,0.18519 0.1901,-0.11129 0.26442,-0.37572 0.16485,-0.58928 l -0.20392,-0.43835 0.71607,-0.42018 0.59457,1.27975 c 0.13864,0.29812 0.465,0.41321 0.73037,0.25744 0.0744,-0.0434 0.13579,-0.10319 0.18199,-0.17342 0.12152,-0.18143 0.14674,-0.43191 0.0472,-0.64655 l -0.59457,-1.27987 0.64888,-0.38055 0.20391,0.43836 c 0.0991,0.21356 0.33446,0.29706 0.52456,0.18519 0.19055,-0.11177 0.26394,-0.37627 0.16483,-0.58928 l -0.2039,-0.4389 1.50454,-0.88259 c 0.10386,-0.0627 0.20059,-0.13385 0.29015,-0.21355 0.72178,-0.64015 0.95999,-1.78554 0.51929,-2.73396 -0.14577,-0.31366 -0.35016,-0.57111 -0.5898,-0.76539 l 0.70939,-0.41588 2.91811,0.71025 c 0.006,0.001 0.0104,0.004 0.0156,0.004 0.0538,0.0107 0.11105,0.004 0.16248,-0.0267 0.1144,-0.0664 0.1634,-0.2189 0.1182,-0.35218 z m -10.96446,6.43187 c -0.007,0.005 -0.0133,0.008 -0.0201,0.0124 -0.42973,0.25203 -0.95905,0.0653 -1.18296,-0.41756 -0.22392,-0.48224 -0.0582,-1.07687 0.37066,-1.32842 l 1.13628,-0.66644 0.81135,1.74593 z m 1.80421,-1.05815 -0.81134,-1.74592 0.0476,-0.0274 0.66891,-0.39231 0.81135,1.74592 -0.15245,0.0894 z m 1.67607,-0.98268 -0.81135,-1.74593 0.64889,-0.38055 0.81136,1.74593 z m 2.69133,-1.58055 c -0.009,0.006 -0.019,0.0139 -0.0291,0.0188 l -1.32446,0.77714 -0.81134,-1.74592 0.98761,-0.57965 0.31634,-0.18521 c 0.0167,-0.01 0.0338,-0.0188 0.051,-0.0279 0.41926,-0.20981 0.91664,-0.0188 1.132,0.44477 0.19008,0.40785 0.10003,0.89651 -0.19201,1.18983 -0.0391,0.0402 -0.0825,0.0765 -0.13002,0.10808 z"
         id="path4-62" />
    </g>
    <g
       inkscape:groupmode="layer"
       id="layer5"
       inkscape:label="Highlights"
       style="display:inline"
       sodipodi:insensitive="true">
      <path
         style="opacity:0.12999998;color:#bebebe;fill:#ffffff;fill-opacity:1;fill-rule:nonzero;stroke:none;stroke-width:0;marker:none;visibility:visible;display:inline;overflow:visible;enable-background:accumulate"
         d="M 84,47 C 56.836703,47 35,68.836703 35,96 l 0,1 C 35,69.836703 56.836703,48 84,48 l 120,0 c 27.1633,0 49,21.836703 49,49 l 0,-1 C 253,68.836703 231.1633,47 204,47 L 84,47 z"
         id="rect3894"
         inkscape:connector-curvature="0" />
      <path
         style="opacity:0.12999998;color:#bebebe;fill:#ffffff;fill-opacity:1;fill-rule:nonzero;stroke:none;stroke-width:0;marker:none;visibility:visible;display:inline;overflow:visible;enable-background:accumulate"
         d="m 419,141 c -1.1253,0 -2,0.8747 -2,2 l 0,1 c 0,-1.1253 0.8747,-2 2,-2 l 10,0 c 1.1253,0 2,0.8747 2,2 l 0,-1 c 0,-1.1253 -0.8747,-2 -2,-2 l -10,0 z"
         id="rect3896"
         inkscape:connector-curvature="0" />
      <path
         style="opacity:0.12999998;color:#bebebe;fill:#ffffff;fill-opacity:1;fill-rule:nonzero;stroke:none;stroke-width:0;marker:none;visibility:visible;display:inline;overflow:visible;enable-background:accumulate"
         d="m 422,102 c -2.2333,0 -4,1.7667 -4,4 l 0,1 c 0,-2.2333 1.7667,-4 4,-4 l 12,0 c 2.2333,0 4,1.7667 4,4 l 0,-1 c 0,-2.2333 -1.7667,-4 -4,-4 l -12,0 z"
         id="rect3898"
         inkscape:connector-curvature="0" />
      <path
         style="opacity:0.12999998;color:#bebebe;fill:#ffffff;fill-opacity:1;fill-rule:nonzero;stroke:none;stroke-width:0;marker:none;visibility:visible;display:inline;overflow:visible;enable-background:accumulate"
         d="m 424,54 c -3.3413,0 -6,2.658703 -6,6 l 0,1 c 0,-3.341297 2.6587,-6 6,-6 l 16,0 c 3.3413,0 6,2.658703 6,6 l 0,-1 c 0,-3.341297 -2.6587,-6 -6,-6 l -16,0 z"
         id="rect3900"
         inkscape:connector-curvature="0" />
      <path
         style="opacity:0.12999998;color:#bebebe;fill:#ffffff;fill-opacity:1;fill-rule:nonzero;stroke:none;stroke-width:0;marker:none;visibility:visible;display:inline;overflow:visible;enable-background:accumulate"
         d="m 300,224 c -4.4493,0 -8,3.5507 -8,8 l 0,1 c 0,-4.4493 3.5507,-8 8,-8 l 24,0 c 4.4493,0 8,3.5507 8,8 l 0,-1 c 0,-4.4493 -3.5507,-8 -8,-8 l -24,0 z"
         id="rect3902"
         inkscape:connector-curvature="0" />
      <path
         style="opacity:0.12999998;color:#bebebe;fill:#ffffff;fill-opacity:1;fill-rule:nonzero;stroke:none;stroke-width:0;marker:none;visibility:visible;display:inline;overflow:visible;enable-background:accumulate"
         d="m 310,33 c -9.4353,0 -17,7.564703 -17,17 l 0,1 c 0,-9.435297 7.5647,-17 17,-17 l 52,0 c 9.4353,0 17,7.564703 17,17 l 0,-1 c 0,-9.435297 -7.5647,-17 -17,-17 l -52,0 z"
         id="rect3904"
         inkscape:connector-curvature="0" />
      <path
         style="opacity:0.12999998;color:#bebebe;fill:#ffffff;fill-opacity:1;fill-rule:nonzero;stroke:none;stroke-width:0;marker:none;visibility:visible;display:inline;overflow:visible;enable-background:accumulate"
         d="m 302.5,143 c -6.3883,0 -11.5,5.1117 -11.5,11.5 l 0,1 c 0,-6.3883 5.1117,-11.5 11.5,-11.5 l 35,0 c 6.3883,0 11.5,5.1117 11.5,11.5 l 0,-1 c 0,-6.3883 -5.1117,-11.5 -11.5,-11.5 l -35,0 z"
         id="rect3906"
         inkscape:connector-curvature="0" />
      <path
         id="path4085"
         d="m 204,266 c 27.1633,0 49,-21.8367 49,-49 l 0,-1 c 0,27.1633 -21.8367,49 -49,49 L 84,265 C 56.8367,265 35,243.1633 35,216 l 0,1 c 0,27.1633 21.8367,49 49,49 l 120,0 z"
         style="opacity:0.41;color:#bebebe;fill:#000000;fill-opacity:1;fill-rule:nonzero;stroke:none;stroke-width:0;marker:none;visibility:visible;display:inline;overflow:visible;enable-background:accumulate"
         inkscape:connector-curvature="0" />
      <path
         id="path4087"
         d="m 429,156 c 1.1253,0 2,-0.8747 2,-2 l 0,-1 c 0,1.1253 -0.8747,2 -2,2 l -10,0 c -1.1253,0 -2,-0.8747 -2,-2 l 0,1 c 0,1.1253 0.8747,2 2,2 l 10,0 z"
         style="opacity:0.3;color:#bebebe;fill:#000000;fill-opacity:1;fill-rule:nonzero;stroke:none;stroke-width:0;marker:none;visibility:visible;display:inline;overflow:visible;enable-background:accumulate"
         inkscape:connector-curvature="0" />
      <path
         id="path4089"
         d="m 434,123 c 2.2333,0 4,-1.7667 4,-4 l 0,-1 c 0,2.2333 -1.7667,4 -4,4 l -12,0 c -2.2333,0 -4,-1.7667 -4,-4 l 0,1 c 0,2.2333 1.7667,4 4,4 l 12,0 z"
         style="opacity:0.3;color:#bebebe;fill:#000000;fill-opacity:1;fill-rule:nonzero;stroke:none;stroke-width:0;marker:none;visibility:visible;display:inline;overflow:visible;enable-background:accumulate"
         inkscape:connector-curvature="0" />
      <path
         id="path4091"
         d="m 440,83 c 3.3413,0 6,-2.6587 6,-6 l 0,-1 c 0,3.3413 -2.6587,6 -6,6 l -16,0 c -3.3413,0 -6,-2.6587 -6,-6 l 0,1 c 0,3.3413 2.6587,6 6,6 l 16,0 z"
         style="opacity:0.41;color:#bebebe;fill:#000000;fill-opacity:1;fill-rule:nonzero;stroke:none;stroke-width:0;marker:none;visibility:visible;display:inline;overflow:visible;enable-background:accumulate"
         inkscape:connector-curvature="0" />
      <path
         id="path4093"
         d="m 324,265 c 4.4493,0 8,-3.5507 8,-8 l 0,-1 c 0,4.4493 -3.5507,8 -8,8 l -24,0 c -4.4493,0 -8,-3.5507 -8,-8 l 0,1 c 0,4.4493 3.5507,8 8,8 l 24,0 z"
         style="opacity:0.41;color:#bebebe;fill:#000000;fill-opacity:1;fill-rule:nonzero;stroke:none;stroke-width:0;marker:none;visibility:visible;display:inline;overflow:visible;enable-background:accumulate"
         inkscape:connector-curvature="0" />
      <path
         id="path4095"
         d="m 362,120 c 9.4353,0 17,-7.5647 17,-17 l 0,-1 c 0,9.4353 -7.5647,17 -17,17 l -52,0 c -9.4353,0 -17,-7.5647 -17,-17 l 0,1 c 0,9.4353 7.5647,17 17,17 l 52,0 z"
         style="opacity:0.41;color:#bebebe;fill:#000000;fill-opacity:1;fill-rule:nonzero;stroke:none;stroke-width:0;marker:none;visibility:visible;display:inline;overflow:visible;enable-background:accumulate"
         inkscape:connector-curvature="0" />
      <path
         id="path4097"
         d="m 337.5,202 c 6.3883,0 11.5,-5.1117 11.5,-11.5 l 0,-1 c 0,6.3883 -5.1117,11.5 -11.5,11.5 l -35,0 c -6.3883,0 -11.5,-5.1117 -11.5,-11.5 l 0,1 c 0,6.3883 5.1117,11.5 11.5,11.5 l 35,0 z"
         style="opacity:0.41;color:#bebebe;fill:#000000;fill-opacity:1;fill-rule:nonzero;stroke:none;stroke-width:0;marker:none;visibility:visible;display:inline;overflow:visible;enable-background:accumulate"
         inkscape:connector-curvature="0" />
      <path
         inkscape:connector-curvature="0"
         id="path4280"
         d="M 84,265 C 56.836703,265 35,243.1633 35,216 l 0,-1 c 0,27.1633 21.836703,49 49,49 l 120,0 c 27.1633,0 49,-21.8367 49,-49 l 0,1 c 0,27.1633 -21.8367,49 -49,49 l -120,0 z"
         style="opacity:0.1;color:#bebebe;fill:#ffffff;fill-opacity:1;fill-rule:nonzero;stroke:none;stroke-width:0;marker:none;visibility:visible;display:inline;overflow:visible;enable-background:accumulate" />
      <path
         style="opacity:0.1;color:#bebebe;fill:#ffffff;fill-opacity:1;fill-rule:nonzero;stroke:none;stroke-width:0;marker:none;visibility:visible;display:inline;overflow:visible;enable-background:accumulate"
         d="m 300,264 c -4.4493,0 -8,-3.5507 -8,-8 l 0,-1 c 0,4.4493 3.5507,8 8,8 l 24,0 c 4.4493,0 8,-3.5507 8,-8 l 0,1 c 0,4.4493 -3.5507,8 -8,8 l -24,0 z"
         id="path4294"
         inkscape:connector-curvature="0" />
      <path
         style="opacity:0.1;color:#bebebe;fill:#ffffff;fill-opacity:1;fill-rule:nonzero;stroke:none;stroke-width:0;marker:none;visibility:visible;display:inline;overflow:visible;enable-background:accumulate"
         d="m 302.5,201 c -6.3883,0 -11.5,-5.1117 -11.5,-11.5 l 0,-1 c 0,6.3883 5.1117,11.5 11.5,11.5 l 35,0 c 6.3883,0 11.5,-5.1117 11.5,-11.5 l 0,1 c 0,6.3883 -5.1117,11.5 -11.5,11.5 l -35,0 z"
         id="path4296"
         inkscape:connector-curvature="0" />
      <path
         style="opacity:0.1;color:#bebebe;fill:#ffffff;fill-opacity:1;fill-rule:nonzero;stroke:none;stroke-width:0;marker:none;visibility:visible;display:inline;overflow:visible;enable-background:accumulate"
         d="m 310,119 c -9.4353,0 -17,-7.5647 -17,-17 l 0,-1 c 0,9.4353 7.5647,17 17,17 l 52,0 c 9.4353,0 17,-7.5647 17,-17 l 0,1 c 0,9.4353 -7.5647,17 -17,17 l -52,0 z"
         id="path4298"
         inkscape:connector-curvature="0" />
      <path
         style="opacity:0.1;color:#bebebe;fill:#ffffff;fill-opacity:1;fill-rule:nonzero;stroke:none;stroke-width:0;marker:none;visibility:visible;display:inline;overflow:visible;enable-background:accumulate"
         d="m 424,82 c -3.3413,0 -6,-2.658703 -6,-6 l 0,-1 c 0,3.341297 2.6587,6 6,6 l 16,0 c 3.3413,0 6,-2.658703 6,-6 l 0,1 c 0,3.341297 -2.6587,6 -6,6 l -16,0 z"
         id="path4300"
         inkscape:connector-curvature="0" />
      <path
         style="opacity:0.1;color:#bebebe;fill:#ffffff;fill-opacity:1;fill-rule:nonzero;stroke:none;stroke-width:0;marker:none;visibility:visible;display:inline;overflow:visible;enable-background:accumulate"
         d="m 422,122 c -2.2333,0 -4,-1.7667 -4,-4 l 0,-1 c 0,2.2333 1.7667,4 4,4 l 12,0 c 2.2333,0 4,-1.7667 4,-4 l 0,1 c 0,2.2333 -1.7667,4 -4,4 l -12,0 z"
         id="path4302"
         inkscape:connector-curvature="0" />
      <path
         style="opacity:0.1;color:#bebebe;fill:#ffffff;fill-opacity:1;fill-rule:nonzero;stroke:none;stroke-width:0;marker:none;visibility:visible;display:inline;overflow:visible;enable-background:accumulate"
         d="m 419,154.5 c -1.1253,0 -2,-0.8747 -2,-2 l 0,-1 c 0,1.1253 0.8747,2 2,2 l 10,0 c 1.1253,0 2,-0.8747 2,-2 l 0,1 c 0,1.1253 -0.8747,2 -2,2 l -10,0 z"
         id="path4304"
         inkscape:connector-curvature="0" />
    </g>
    <g
       inkscape:groupmode="layer"
       id="layer3"
       inkscape:label="Border"
       style="display:inline"
       sodipodi:insensitive="true">
      <path
         style="opacity:0.41;color:#bebebe;fill:#000000;fill-opacity:1;fill-rule:nonzero;stroke:none;stroke-width:0;marker:none;visibility:visible;display:inline;overflow:visible;enable-background:accumulate"
         d="m 422,101 c -2.77,0 -5,2.23 -5,5 l 0,12 c 0,2.77 2.23,5 5,5 l 12,0 c 2.77,0 5,-2.23 5,-5 l 0,-12 c 0,-2.77 -2.23,-5 -5,-5 l -12,0 z m 0,1 12,0 c 2.2333,0 4,1.7667 4,4 l 0,12 c 0,2.2333 -1.7667,4 -4,4 l -12,0 c -2.2333,0 -4,-1.7667 -4,-4 l 0,-12 c 0,-2.2333 1.7667,-4 4,-4 z"
         id="rect4099"
         inkscape:connector-curvature="0" />
      <path
         style="opacity:0.41;color:#bebebe;fill:#000000;fill-opacity:1;fill-rule:nonzero;stroke:none;stroke-width:0;marker:none;visibility:visible;display:inline;overflow:visible;enable-background:accumulate"
         d="m 424,53 c -3.878,0 -7,3.122 -7,7 l 0,16 c 0,3.878 3.122,7 7,7 l 16,0 c 3.878,0 7,-3.122 7,-7 l 0,-16 c 0,-3.878 -3.122,-7 -7,-7 l -16,0 z m 0,1 16,0 c 3.3413,0 6,2.658703 6,6 l 0,16 c 0,3.341297 -2.6587,6 -6,6 l -16,0 c -3.3413,0 -6,-2.658703 -6,-6 l 0,-16 c 0,-3.341297 2.6587,-6 6,-6 z"
         id="rect4151"
         inkscape:connector-curvature="0" />
      <path
         style="opacity:0.41;color:#bebebe;fill:#000000;fill-opacity:1;fill-rule:nonzero;stroke:none;stroke-width:0;marker:none;visibility:visible;display:inline;overflow:visible;enable-background:accumulate"
         d="m 419,140 c -1.662,0 -3,1.338 -3,3 l 0,10 c 0,1.662 1.338,3 3,3 l 10,0 c 1.662,0 3,-1.338 3,-3 l 0,-10 c 0,-1.662 -1.338,-3 -3,-3 l -10,0 z m 0,1 10,0 c 1.1253,0 2,0.8747 2,2 l 0,10 c 0,1.1253 -0.8747,2 -2,2 l -10,0 c -1.1253,0 -2,-0.8747 -2,-2 l 0,-10 c 0,-1.1253 0.8747,-2 2,-2 z"
         id="rect4095"
         inkscape:connector-curvature="0" />
      <path
         style="opacity:0.41;color:#bebebe;fill:#000000;fill-opacity:1;fill-rule:nonzero;stroke:none;stroke-width:0;marker:none;visibility:visible;display:inline;overflow:visible;enable-background:accumulate"
         d="m 300,223 c -4.986,0 -9,4.014 -9,9 l 0,24 c 0,4.986 4.014,9 9,9 l 24,0 c 4.986,0 9,-4.014 9,-9 l 0,-24 c 0,-4.986 -4.014,-9 -9,-9 l -24,0 z m 0,1 24,0 c 4.4493,0 8,3.5507 8,8 l 0,24 c 0,4.4493 -3.5507,8 -8,8 l -24,0 c -4.4493,0 -8,-3.5507 -8,-8 l 0,-24 c 0,-4.4493 3.5507,-8 8,-8 z"
         id="rect4783"
         inkscape:connector-curvature="0" />
      <path
         style="opacity:0.41;color:#bebebe;fill:#000000;fill-opacity:1;fill-rule:nonzero;stroke:none;stroke-width:0;marker:none;visibility:visible;display:inline;overflow:visible;enable-background:accumulate"
         d="m 302.5,142 c -6.925,0 -12.5,5.575 -12.5,12.5 l 0,35 c 0,6.925 5.575,12.5 12.5,12.5 l 35,0 c 6.925,0 12.5,-5.575 12.5,-12.5 l 0,-35 c 0,-6.925 -5.575,-12.5 -12.5,-12.5 l -35,0 z m 0,1 35,0 c 6.3883,0 11.5,5.1117 11.5,11.5 l 0,35 c 0,6.3883 -5.1117,11.5 -11.5,11.5 l -35,0 c -6.3883,0 -11.5,-5.1117 -11.5,-11.5 l 0,-35 c 0,-6.3883 5.1117,-11.5 11.5,-11.5 z"
         id="rect4515"
         inkscape:connector-curvature="0" />
      <path
         style="opacity:0.41;color:#bebebe;fill:#000000;fill-opacity:1;fill-rule:nonzero;stroke:none;stroke-width:0;marker:none;visibility:visible;display:inline;overflow:visible;enable-background:accumulate"
         d="m 310,32 c -9.972,0 -18,8.028 -18,18 l 0,52 c 0,9.972 8.028,18 18,18 l 52,0 c 9.972,0 18,-8.028 18,-18 l 0,-52 c 0,-9.972 -8.028,-18 -18,-18 l -52,0 z m 0,1 52,0 c 9.4353,0 17,7.564703 17,17 l 0,52 c 0,9.4353 -7.5647,17 -17,17 l -52,0 c -9.4353,0 -17,-7.5647 -17,-17 l 0,-52 c 0,-9.435297 7.5647,-17 17,-17 z"
         id="rect4511"
         inkscape:connector-curvature="0" />
      <path
         style="opacity:0.41;color:#bebebe;fill:#000000;fill-opacity:1;fill-rule:nonzero;stroke:none;stroke-width:0;marker:none;visibility:visible;display:inline;overflow:visible;enable-background:accumulate"
         d="M 84,46 C 56.3,46 34,68.3 34,96 l 0,120 c 0,27.7 22.3,50 50,50 l 120,0 c 27.7,0 50,-22.3 50,-50 L 254,96 C 254,68.3 231.7,46 204,46 L 84,46 z m 0,1 120,0 c 27.1633,0 49,21.836703 49,49 l 0,120 c 0,27.1633 -21.8367,49 -49,49 L 84,265 C 56.836703,265 35,243.1633 35,216 L 35,96 C 35,68.836703 56.836703,47 84,47 z"
         id="rect4040"
         inkscape:connector-curvature="0" />
    </g>
  </g>
</svg>
